{
copyright = "This work is licensed under the Creative Commons Attribution 3.0 Unported License. To view a copy of this license, visit http://creativecommons.org/licenses/by/3.0/.";
date = "2013-06-18 01:35:54 +0000";
designer = "Ali Mihandoost";
designerURL = "http://ali.md/";
familyName = "Encrypted Persian";
fontMaster = (
{
ascender = 1000;
capHeight = 700;
customParameters = (
{
name = "typoAscender";
value = "1000";
},
{
name = "typoDescender";
value = "0";
},
{
name = "typoLineGap";
value = "90";
}
);
descender = "-800";
id = "3D323242-F336-407C-B164-DE86AA499667";
weightValue = 500;
widthValue = 5;
xHeight = 500;
}
);
glyphs = (
{
glyphname = "ain-ar";
lastChange = "2013-06-18 07:50:53 +0330";
layers = (
{
layerId = "3D323242-F336-407C-B164-DE86AA499667";
name = "Regular";
paths = (
{
closed = 1;
nodes = (
"100 375 OFFCURVE",
"200 500 OFFCURVE",
"337 500 CURVE SMOOTH",
"440 500 OFFCURVE",
"515 408 OFFCURVE",
"515 304 CURVE SMOOTH",
"515 210 OFFCURVE",
"455 132 OFFCURVE",
"375 132 CURVE SMOOTH",
"373 132 LINE SMOOTH",
"317 132 OFFCURVE",
"268 183 OFFCURVE",
"268 265 CURVE SMOOTH",
"268 281 OFFCURVE",
"284 297 OFFCURVE",
"303 297 CURVE SMOOTH",
"319 297 OFFCURVE",
"334 281 OFFCURVE",
"334 265 CURVE SMOOTH",
"334 242 OFFCURVE",
"340 223 OFFCURVE",
"352 209 CURVE SMOOTH",
"358 202 OFFCURVE",
"364 198 OFFCURVE",
"373 198 CURVE SMOOTH",
"417 198 OFFCURVE",
"449 245 OFFCURVE",
"449 304 CURVE SMOOTH",
"449 375 OFFCURVE",
"400 434 OFFCURVE",
"337 434 CURVE SMOOTH",
"242 434 OFFCURVE",
"166 343 OFFCURVE",
"166 236 CURVE SMOOTH",
"166 179 OFFCURVE",
"175 133 OFFCURVE",
"202 84 CURVE SMOOTH",
"231 37 OFFCURVE",
"243 14 OFFCURVE",
"296 -36 CURVE SMOOTH",
"322 -61 OFFCURVE",
"343 -78 OFFCURVE",
"356 -88 CURVE",
"369 -98 OFFCURVE",
"392 -119 OFFCURVE",
"427 -148 CURVE SMOOTH",
"436 -155 OFFCURVE",
"439 -164 OFFCURVE",
"439 -173 CURVE SMOOTH",
"439 -191 OFFCURVE",
"426 -207 OFFCURVE",
"405 -207 CURVE SMOOTH",
"396 -207 OFFCURVE",
"389 -204 OFFCURVE",
"384 -199 CURVE",
"369 -185 OFFCURVE",
"352 -172 OFFCURVE",
"337 -160 CURVE SMOOTH",
"306 -135 OFFCURVE",
"275 -107 OFFCURVE",
"249 -81 CURVE SMOOTH",
"220 -54 OFFCURVE",
"194 -23 OFFCURVE",
"173 8 CURVE SMOOTH",
"151 38 OFFCURVE",
"133 74 OFFCURVE",
"121 111 CURVE SMOOTH",
"109 147 OFFCURVE",
"100 190 OFFCURVE",
"100 236 CURVE SMOOTH"
);
}
);
width = 615;
}
);
unicode = 0639;
},
{
glyphname = "alef-ar";
lastChange = "2013-06-18 07:18:02 +0330";
layers = (
{
layerId = "3D323242-F336-407C-B164-DE86AA499667";
name = "Regular";
paths = (
{
closed = 1;
nodes = (
"165 860 LINE SMOOTH",
"165 873 OFFCURVE",
"177 885 OFFCURVE",
"190 885 CURVE SMOOTH",
"203 885 OFFCURVE",
"215 873 OFFCURVE",
"215 860 CURVE SMOOTH",
"215 722 LINE",
"264 679 OFFCURVE",
"284 654 OFFCURVE",
"284 607 CURVE SMOOTH",
"284 556 OFFCURVE",
"265 530 OFFCURVE",
"213 478 CURVE",
"213 25 LINE SMOOTH",
"213 12 OFFCURVE",
"201 0 OFFCURVE",
"188 0 CURVE SMOOTH",
"175 0 OFFCURVE",
"163 12 OFFCURVE",
"163 25 CURVE SMOOTH",
"163 481 LINE",
"132 516 OFFCURVE",
"121 529 OFFCURVE",
"109 559 CURVE SMOOTH",
"103 574 OFFCURVE",
"100 590 OFFCURVE",
"100 607 CURVE SMOOTH",
"100 654 OFFCURVE",
"120 684 OFFCURVE",
"165 725 CURVE"
);
},
{
closed = 1;
nodes = (
"227 542 OFFCURVE",
"244 567 OFFCURVE",
"244 607 CURVE SMOOTH",
"244 644 OFFCURVE",
"229 665 OFFCURVE",
"189 700 CURVE",
"156 670 OFFCURVE",
"140 639 OFFCURVE",
"140 607 CURVE SMOOTH",
"140 568 OFFCURVE",
"154 544 OFFCURVE",
"190 504 CURVE"
);
}
);
width = 384;
}
);
unicode = 0627;
},
{
glyphname = "alefHamzaabove-ar";
lastChange = "2013-06-18 07:18:32 +0330";
layers = (
{
layerId = "3D323242-F336-407C-B164-DE86AA499667";
name = "Regular";
paths = (
{
closed = 1;
nodes = (
"165 860 LINE SMOOTH",
"165 873 OFFCURVE",
"177 885 OFFCURVE",
"190 885 CURVE SMOOTH",
"203 885 OFFCURVE",
"215 873 OFFCURVE",
"215 860 CURVE SMOOTH",
"215 722 LINE",
"264 679 OFFCURVE",
"284 654 OFFCURVE",
"284 607 CURVE SMOOTH",
"284 556 OFFCURVE",
"265 530 OFFCURVE",
"213 478 CURVE",
"213 25 LINE SMOOTH",
"213 12 OFFCURVE",
"201 0 OFFCURVE",
"188 0 CURVE SMOOTH",
"175 0 OFFCURVE",
"163 12 OFFCURVE",
"163 25 CURVE SMOOTH",
"163 481 LINE",
"132 516 OFFCURVE",
"121 529 OFFCURVE",
"109 559 CURVE SMOOTH",
"103 574 OFFCURVE",
"100 590 OFFCURVE",
"100 607 CURVE SMOOTH",
"100 654 OFFCURVE",
"120 684 OFFCURVE",
"165 725 CURVE"
);
},
{
closed = 1;
nodes = (
"227 542 OFFCURVE",
"244 567 OFFCURVE",
"244 607 CURVE SMOOTH",
"244 644 OFFCURVE",
"229 665 OFFCURVE",
"189 700 CURVE",
"156 670 OFFCURVE",
"140 639 OFFCURVE",
"140 607 CURVE SMOOTH",
"140 568 OFFCURVE",
"154 544 OFFCURVE",
"190 504 CURVE"
);
}
);
width = 384;
}
);
unicode = 0623;
},
{
glyphname = "alefHamzabelow-ar";
lastChange = "2013-06-18 07:18:40 +0330";
layers = (
{
layerId = "3D323242-F336-407C-B164-DE86AA499667";
name = "Regular";
paths = (
{
closed = 1;
nodes = (
"165 860 LINE SMOOTH",
"165 873 OFFCURVE",
"177 885 OFFCURVE",
"190 885 CURVE SMOOTH",
"203 885 OFFCURVE",
"215 873 OFFCURVE",
"215 860 CURVE SMOOTH",
"215 722 LINE",
"264 679 OFFCURVE",
"284 654 OFFCURVE",
"284 607 CURVE SMOOTH",
"284 556 OFFCURVE",
"265 530 OFFCURVE",
"213 478 CURVE",
"213 25 LINE SMOOTH",
"213 12 OFFCURVE",
"201 0 OFFCURVE",
"188 0 CURVE SMOOTH",
"175 0 OFFCURVE",
"163 12 OFFCURVE",
"163 25 CURVE SMOOTH",
"163 481 LINE",
"132 516 OFFCURVE",
"121 529 OFFCURVE",
"109 559 CURVE SMOOTH",
"103 574 OFFCURVE",
"100 590 OFFCURVE",
"100 607 CURVE SMOOTH",
"100 654 OFFCURVE",
"120 684 OFFCURVE",
"165 725 CURVE"
);
},
{
closed = 1;
nodes = (
"227 542 OFFCURVE",
"244 567 OFFCURVE",
"244 607 CURVE SMOOTH",
"244 644 OFFCURVE",
"229 665 OFFCURVE",
"189 700 CURVE",
"156 670 OFFCURVE",
"140 639 OFFCURVE",
"140 607 CURVE SMOOTH",
"140 568 OFFCURVE",
"154 544 OFFCURVE",
"190 504 CURVE"
);
}
);
width = 384;
}
);
unicode = 0625;
},
{
glyphname = "alefMadda-ar";
lastChange = "2013-06-18 07:18:45 +0330";
layers = (
{
layerId = "3D323242-F336-407C-B164-DE86AA499667";
name = "Regular";
paths = (
{
closed = 1;
nodes = (
"165 860 LINE SMOOTH",
"165 873 OFFCURVE",
"177 885 OFFCURVE",
"190 885 CURVE SMOOTH",
"203 885 OFFCURVE",
"215 873 OFFCURVE",
"215 860 CURVE SMOOTH",
"215 722 LINE",
"264 679 OFFCURVE",
"284 654 OFFCURVE",
"284 607 CURVE SMOOTH",
"284 556 OFFCURVE",
"265 530 OFFCURVE",
"213 478 CURVE",
"213 25 LINE SMOOTH",
"213 12 OFFCURVE",
"201 0 OFFCURVE",
"188 0 CURVE SMOOTH",
"175 0 OFFCURVE",
"163 12 OFFCURVE",
"163 25 CURVE SMOOTH",
"163 481 LINE",
"132 516 OFFCURVE",
"121 529 OFFCURVE",
"109 559 CURVE SMOOTH",
"103 574 OFFCURVE",
"100 590 OFFCURVE",
"100 607 CURVE SMOOTH",
"100 654 OFFCURVE",
"120 684 OFFCURVE",
"165 725 CURVE"
);
},
{
closed = 1;
nodes = (
"227 542 OFFCURVE",
"244 567 OFFCURVE",
"244 607 CURVE SMOOTH",
"244 644 OFFCURVE",
"229 665 OFFCURVE",
"189 700 CURVE",
"156 670 OFFCURVE",
"140 639 OFFCURVE",
"140 607 CURVE SMOOTH",
"140 568 OFFCURVE",
"154 544 OFFCURVE",
"190 504 CURVE"
);
}
);
width = 384;
}
);
unicode = 0622;
},
{
glyphname = "beh-ar";
lastChange = "2013-06-18 06:47:18 +0330";
layers = (
{
layerId = "3D323242-F336-407C-B164-DE86AA499667";
name = "Regular";
paths = (
{
closed = 1;
nodes = (
"154 250 LINE",
"233 117 OFFCURVE",
"385 40 OFFCURVE",
"564 40 CURVE SMOOTH",
"569 40 LINE SMOOTH",
"658 41 OFFCURVE",
"733 62 OFFCURVE",
"790 102 CURVE SMOOTH",
"847 142 OFFCURVE",
"887 185 OFFCURVE",
"932 250 CURVE"
);
},
{
closed = 1;
nodes = (
"970 290 LINE SMOOTH",
"978 290 OFFCURVE",
"984 286 OFFCURVE",
"987 279 CURVE",
"988 279 LINE",
"996 274 LINE",
"1008 269 OFFCURVE",
"1023 261 OFFCURVE",
"1041 245 CURVE SMOOTH",
"1059 228 OFFCURVE",
"1075 210 OFFCURVE",
"1085 180 CURVE SMOOTH",
"1090 165 OFFCURVE",
"1092 148 OFFCURVE",
"1092 131 CURVE SMOOTH",
"1092 128 LINE SMOOTH",
"1091 75 OFFCURVE",
"1055 48 OFFCURVE",
"1024 48 CURVE SMOOTH",
"991 48 OFFCURVE",
"937 105 OFFCURVE",
"929 178 CURVE",
"838 65 OFFCURVE",
"732 1 OFFCURVE",
"569 0 CURVE SMOOTH",
"564 0 LINE SMOOTH",
"360 0 OFFCURVE",
"182 94 OFFCURVE",
"102 261 CURVE",
"101 265 OFFCURVE",
"100 268 OFFCURVE",
"100 270 CURVE SMOOTH",
"100 274 OFFCURVE",
"101 277 OFFCURVE",
"104 280 CURVE",
"107 287 OFFCURVE",
"113 290 OFFCURVE",
"120 290 CURVE SMOOTH"
);
},
{
closed = 1;
nodes = (
"974 240 LINE",
"962 222 LINE",
"963 217 OFFCURVE",
"964 210 OFFCURVE",
"966 201 CURVE",
"969 183 OFFCURVE",
"978 136 OFFCURVE",
"998 111 CURVE",
"1007 98 OFFCURVE",
"1018 92 OFFCURVE",
"1031 92 CURVE SMOOTH",
"1044 92 OFFCURVE",
"1051 104 OFFCURVE",
"1052 128 CURVE",
"1052 131 LINE SMOOTH",
"1052 168 OFFCURVE",
"1033 201 OFFCURVE",
"1013 217 CURVE",
"1003 224 OFFCURVE",
"994 230 OFFCURVE",
"986 234 CURVE SMOOTH"
);
}
);
width = 1192;
}
);
unicode = 0628;
},
{
glyphname = "dal-ar";
lastChange = "2013-06-18 07:07:45 +0330";
layers = (
{
layerId = "3D323242-F336-407C-B164-DE86AA499667";
name = "Regular";
paths = (
{
closed = 1;
nodes = (
"455 187 OFFCURVE",
"456 188 OFFCURVE",
"459 191 CURVE",
"461 195 OFFCURVE",
"465 199 OFFCURVE",
"468 203 CURVE",
"736 535 LINE",
"740 538 OFFCURVE",
"744 540 OFFCURVE",
"749 540 CURVE SMOOTH",
"753 540 OFFCURVE",
"758 538 OFFCURVE",
"759 535 CURVE",
"822 485 LINE SMOOTH",
"827 481 OFFCURVE",
"829 477 OFFCURVE",
"829 472 CURVE SMOOTH",
"829 469 OFFCURVE",
"828 465 OFFCURVE",
"825 461 CURVE",
"674 275 LINE",
"727 233 LINE SMOOTH",
"731 229 OFFCURVE",
"732 225 OFFCURVE",
"732 220 CURVE SMOOTH",
"732 216 OFFCURVE",
"731 212 OFFCURVE",
"729 209 CURVE",
"470 -110 LINE",
"463 -117 OFFCURVE",
"459 -121 OFFCURVE",
"456 -121 CURVE SMOOTH",
"450 -121 OFFCURVE",
"445 -117 OFFCURVE",
"439 -111 CURVE",
"179 209 LINE",
"177 212 OFFCURVE",
"176 216 OFFCURVE",
"176 220 CURVE SMOOTH",
"176 225 OFFCURVE",
"177 229 OFFCURVE",
"181 233 CURVE SMOOTH",
"234 275 LINE",
"83 461 LINE",
"80 465 OFFCURVE",
"79 469 OFFCURVE",
"79 472 CURVE SMOOTH",
"79 477 OFFCURVE",
"81 481 OFFCURVE",
"86 485 CURVE SMOOTH",
"149 535 LINE",
"150 538 OFFCURVE",
"155 540 OFFCURVE",
"159 540 CURVE SMOOTH",
"164 540 OFFCURVE",
"168 538 OFFCURVE",
"172 535 CURVE",
"441 200 LINE",
"454 187 LINE"
);
},
{
closed = 1;
nodes = (
"449 -72 OFFCURVE",
"451 -75 OFFCURVE",
"454 -75 CURVE SMOOTH",
"457 -75 OFFCURVE",
"459 -72 OFFCURVE",
"463 -66 CURVE",
"693 217 LINE",
"655 249 LINE",
"467 15 LINE",
"459 7 OFFCURVE",
"456 3 OFFCURVE",
"455 3 CURVE SMOOTH",
"454 3 OFFCURVE",
"449 5 OFFCURVE",
"443 14 CURVE",
"253 249 LINE",
"215 217 LINE",
"446 -67 LINE"
);
},
{
closed = 1;
nodes = (
"449 60 OFFCURVE",
"453 56 OFFCURVE",
"454 56 CURVE",
"466 70 LINE",
"789 469 LINE",
"751 500 LINE",
"467 148 LINE",
"459 141 OFFCURVE",
"455 136 OFFCURVE",
"454 136 CURVE SMOOTH",
"453 136 OFFCURVE",
"447 142 OFFCURVE",
"442 146 CURVE",
"157 500 LINE",
"119 469 LINE",
"443 69 LINE SMOOTH"
);
}
);
width = 908;
}
);
unicode = 062F;
},
{
glyphname = "feh-ar";
lastChange = "2013-06-18 08:09:20 +0330";
layers = (
{
layerId = "3D323242-F336-407C-B164-DE86AA499667";
name = "Regular";
paths = (
{
closed = 1;
nodes = (
"100 447 LINE SMOOTH",
"100 460 OFFCURVE",
"110 470 OFFCURVE",
"123 470 CURVE SMOOTH",
"733 470 LINE SMOOTH",
"746 470 OFFCURVE",
"756 460 OFFCURVE",
"756 447 CURVE SMOOTH",
"756 23 LINE SMOOTH",
"756 10 OFFCURVE",
"746 0 OFFCURVE",
"733 0 CURVE SMOOTH",
"469 0 LINE",
"469 45 LINE",
"711 45 LINE",
"711 425 LINE",
"145 425 LINE",
"145 19 LINE",
"100 19 LINE"
);
}
);
width = 856;
}
);
unicode = 0641;
},
{
glyphname = "gaf-ar";
lastChange = "2013-06-18 09:49:24 +0330";
layers = (
{
layerId = "3D323242-F336-407C-B164-DE86AA499667";
name = "Regular";
paths = (
{
closed = 1;
nodes = (
"1084 51 LINE SMOOTH",
"1097 51 OFFCURVE",
"1108 39 OFFCURVE",
"1108 26 CURVE SMOOTH",
"1108 13 OFFCURVE",
"1097 1 OFFCURVE",
"1084 1 CURVE SMOOTH",
"574 1 LINE",
"623 -54 OFFCURVE",
"648 -84 OFFCURVE",
"675 -144 CURVE SMOOTH",
"688 -175 OFFCURVE",
"695 -205 OFFCURVE",
"695 -234 CURVE SMOOTH",
"695 -247 OFFCURVE",
"685 -258 OFFCURVE",
"672 -258 CURVE SMOOTH",
"659 -258 OFFCURVE",
"648 -247 OFFCURVE",
"648 -234 CURVE SMOOTH",
"648 -190 OFFCURVE",
"629 -145 OFFCURVE",
"602 -109 CURVE SMOOTH",
"575 -73 OFFCURVE",
"542 -32 OFFCURVE",
"510 1 CURVE",
"124 1 LINE SMOOTH",
"111 1 OFFCURVE",
"100 13 OFFCURVE",
"100 26 CURVE SMOOTH",
"100 39 OFFCURVE",
"111 51 OFFCURVE",
"124 51 CURVE SMOOTH",
"470 51 LINE",
"439 92 OFFCURVE",
"423 131 OFFCURVE",
"423 168 CURVE SMOOTH",
"423 225 OFFCURVE",
"446 271 OFFCURVE",
"478 295 CURVE SMOOTH",
"509 318 OFFCURVE",
"543 330 OFFCURVE",
"574 330 CURVE SMOOTH",
"625 330 OFFCURVE",
"667 302 OFFCURVE",
"687 267 CURVE SMOOTH",
"706 231 OFFCURVE",
"715 201 OFFCURVE",
"715 185 CURVE SMOOTH",
"715 140 OFFCURVE",
"673 81 OFFCURVE",
"622 81 CURVE",
"594 84 OFFCURVE",
"555 122 OFFCURVE",
"539 153 CURVE",
"533 169 OFFCURVE",
"530 179 OFFCURVE",
"530 184 CURVE SMOOTH",
"530 197 OFFCURVE",
"536 205 OFFCURVE",
"540 206 CURVE SMOOTH",
"544 207 LINE",
"552 207 OFFCURVE",
"563 181 OFFCURVE",
"567 170 CURVE",
"576 151 OFFCURVE",
"602 129 OFFCURVE",
"622 129 CURVE SMOOTH",
"645 129 OFFCURVE",
"668 163 OFFCURVE",
"668 186 CURVE SMOOTH",
"668 189 OFFCURVE",
"667 194 OFFCURVE",
"664 203 CURVE SMOOTH",
"658 220 OFFCURVE",
"648 249 OFFCURVE",
"621 269 CURVE SMOOTH",
"608 278 OFFCURVE",
"592 283 OFFCURVE",
"574 283 CURVE SMOOTH",
"557 283 OFFCURVE",
"535 277 OFFCURVE",
"511 262 CURVE SMOOTH",
"487 246 OFFCURVE",
"470 212 OFFCURVE",
"470 168 CURVE SMOOTH",
"470 137 OFFCURVE",
"490 98 OFFCURVE",
"530 51 CURVE"
);
},
{
closed = 1;
nodes = (
"1075 -31 LINE",
"1088 -31 OFFCURVE",
"1099 -40 OFFCURVE",
"1099 -49 CURVE SMOOTH",
"1099 -59 OFFCURVE",
"1088 -68 OFFCURVE",
"1075 -68 CURVE",
"765 -68 LINE",
"752 -68 OFFCURVE",
"741 -59 OFFCURVE",
"741 -49 CURVE SMOOTH",
"741 -40 OFFCURVE",
"752 -31 OFFCURVE",
"765 -31 CURVE"
);
}
);
width = 1208;
}
);
unicode = 06AF;
},
{
glyphname = "ghain-ar";
lastChange = "2013-06-18 07:51:28 +0330";
layers = (
{
layerId = "3D323242-F336-407C-B164-DE86AA499667";
name = "Regular";
paths = (
{
closed = 1;
nodes = (
"100 375 OFFCURVE",
"200 500 OFFCURVE",
"337 500 CURVE SMOOTH",
"440 500 OFFCURVE",
"515 408 OFFCURVE",
"515 304 CURVE SMOOTH",
"515 210 OFFCURVE",
"455 132 OFFCURVE",
"375 132 CURVE SMOOTH",
"373 132 LINE SMOOTH",
"317 132 OFFCURVE",
"268 183 OFFCURVE",
"268 265 CURVE SMOOTH",
"268 281 OFFCURVE",
"284 297 OFFCURVE",
"303 297 CURVE SMOOTH",
"319 297 OFFCURVE",
"334 281 OFFCURVE",
"334 265 CURVE SMOOTH",
"334 242 OFFCURVE",
"340 223 OFFCURVE",
"352 209 CURVE SMOOTH",
"358 202 OFFCURVE",
"364 198 OFFCURVE",
"373 198 CURVE SMOOTH",
"417 198 OFFCURVE",
"449 245 OFFCURVE",
"449 304 CURVE SMOOTH",
"449 375 OFFCURVE",
"400 434 OFFCURVE",
"337 434 CURVE SMOOTH",
"242 434 OFFCURVE",
"166 343 OFFCURVE",
"166 236 CURVE SMOOTH",
"166 179 OFFCURVE",
"175 133 OFFCURVE",
"202 84 CURVE SMOOTH",
"231 37 OFFCURVE",
"243 14 OFFCURVE",
"296 -36 CURVE SMOOTH",
"322 -61 OFFCURVE",
"343 -78 OFFCURVE",
"356 -88 CURVE",
"369 -98 OFFCURVE",
"392 -119 OFFCURVE",
"427 -148 CURVE SMOOTH",
"436 -155 OFFCURVE",
"439 -164 OFFCURVE",
"439 -173 CURVE SMOOTH",
"439 -191 OFFCURVE",
"426 -207 OFFCURVE",
"405 -207 CURVE SMOOTH",
"396 -207 OFFCURVE",
"389 -204 OFFCURVE",
"384 -199 CURVE",
"369 -185 OFFCURVE",
"352 -172 OFFCURVE",
"337 -160 CURVE SMOOTH",
"306 -135 OFFCURVE",
"275 -107 OFFCURVE",
"249 -81 CURVE SMOOTH",
"220 -54 OFFCURVE",
"194 -23 OFFCURVE",
"173 8 CURVE SMOOTH",
"151 38 OFFCURVE",
"133 74 OFFCURVE",
"121 111 CURVE SMOOTH",
"109 147 OFFCURVE",
"100 190 OFFCURVE",
"100 236 CURVE SMOOTH"
);
},
{
closed = 1;
nodes = (
"422 583 OFFCURVE",
"383 545 OFFCURVE",
"337 545 CURVE SMOOTH",
"291 545 OFFCURVE",
"251 583 OFFCURVE",
"251 627 CURVE SMOOTH",
"251 676 OFFCURVE",
"291 716 OFFCURVE",
"340 716 CURVE SMOOTH",
"385 716 OFFCURVE",
"422 676 OFFCURVE",
"422 628 CURVE SMOOTH"
);
}
);
width = 615;
}
);
unicode = 063A;
},
{
glyphname = "hah-ar";
lastChange = "2013-06-18 07:28:42 +0330";
layers = (
{
layerId = "3D323242-F336-407C-B164-DE86AA499667";
name = "Regular";
paths = (
{
closed = 1;
nodes = (
"361 47 LINE",
"361 50 LINE",
"361 111 OFFCURVE",
"336 155 OFFCURVE",
"282 161 CURVE",
"230 161 OFFCURVE",
"186 149 OFFCURVE",
"149 121 CURVE SMOOTH",
"114 96 OFFCURVE",
"100 106 OFFCURVE",
"100 124 CURVE",
"100 156 OFFCURVE",
"196 217 OFFCURVE",
"269 217 CURVE SMOOTH",
"329 217 OFFCURVE",
"424 170 OFFCURVE",
"424 50 CURVE SMOOTH",
"424 47 LINE",
"391 -715 LINE SMOOTH",
"403 -709 OFFCURVE",
"379 -740 OFFCURVE",
"366 -740 CURVE SMOOTH",
"353 -740 OFFCURVE",
"341 -728 OFFCURVE",
"341 -715 CURVE"
);
}
);
width = 524;
}
);
unicode = 062D;
},
{
glyphname = "heh-ar";
lastChange = "2013-06-18 07:05:43 +0330";
layers = (
{
layerId = "3D323242-F336-407C-B164-DE86AA499667";
name = "Regular";
paths = (
{
closed = 1;
nodes = (
"353 136 LINE SMOOTH",
"353 125 OFFCURVE",
"344 116 OFFCURVE",
"333 116 CURVE SMOOTH",
"322 116 OFFCURVE",
"313 125 OFFCURVE",
"313 136 CURVE SMOOTH",
"313 391 LINE SMOOTH",
"313 402 OFFCURVE",
"322 411 OFFCURVE",
"333 411 CURVE SMOOTH",
"344 411 OFFCURVE",
"353 402 OFFCURVE",
"353 391 CURVE SMOOTH"
);
},
{
closed = 1;
nodes = (
"243 139 LINE SMOOTH",
"243 128 OFFCURVE",
"234 119 OFFCURVE",
"223 119 CURVE SMOOTH",
"212 119 OFFCURVE",
"203 128 OFFCURVE",
"203 139 CURVE SMOOTH",
"203 394 LINE SMOOTH",
"203 405 OFFCURVE",
"212 414 OFFCURVE",
"223 414 CURVE SMOOTH",
"234 414 OFFCURVE",
"243 405 OFFCURVE",
"243 394 CURVE SMOOTH"
);
},
{
closed = 1;
nodes = (
"539 123 OFFCURVE",
"419 0 OFFCURVE",
"268 0 CURVE SMOOTH",
"120 0 OFFCURVE",
"0 118 OFFCURVE",
"0 265 CURVE SMOOTH",
"0 413 OFFCURVE",
"125 530 OFFCURVE",
"274 530 CURVE SMOOTH",
"418 530 OFFCURVE",
"539 418 OFFCURVE",
"539 274 CURVE SMOOTH"
);
},
{
closed = 1;
nodes = (
"146 490 OFFCURVE",
"40 390 OFFCURVE",
"40 265 CURVE SMOOTH",
"40 141 OFFCURVE",
"143 40 OFFCURVE",
"268 40 CURVE SMOOTH",
"396 40 OFFCURVE",
"499 145 OFFCURVE",
"499 274 CURVE SMOOTH",
"499 394 OFFCURVE",
"398 490 OFFCURVE",
"274 490 CURVE SMOOTH"
);
}
);
width = 539;
}
);
unicode = 0647;
},
{
glyphname = "jeem-ar";
lastChange = "2013-06-18 07:39:26 +0330";
layers = (
{
layerId = "3D323242-F336-407C-B164-DE86AA499667";
name = "Regular";
paths = (
{
closed = 1;
nodes = (
"361 47 LINE",
"361 50 LINE",
"361 111 OFFCURVE",
"336 155 OFFCURVE",
"282 161 CURVE",
"230 161 OFFCURVE",
"186 149 OFFCURVE",
"149 121 CURVE SMOOTH",
"114 96 OFFCURVE",
"100 106 OFFCURVE",
"100 124 CURVE",
"100 156 OFFCURVE",
"196 217 OFFCURVE",
"269 217 CURVE SMOOTH",
"329 217 OFFCURVE",
"424 170 OFFCURVE",
"424 50 CURVE SMOOTH",
"424 47 LINE",
"400 -496 LINE",
"397 -565 LINE",
"391 -715 LINE SMOOTH",
"390 -728 OFFCURVE",
"379 -740 OFFCURVE",
"366 -740 CURVE SMOOTH",
"353 -740 OFFCURVE",
"341 -728 OFFCURVE",
"341 -715 CURVE"
);
},
{
closed = 1;
nodes = (
"398 -550 OFFCURVE",
"441 -508 OFFCURVE",
"505 -501 CURVE",
"531 -500 OFFCURVE",
"542 -504 OFFCURVE",
"558 -514 CURVE SMOOTH",
"572 -523 OFFCURVE",
"583 -521 OFFCURVE",
"587 -513 CURVE",
"592 -498 OFFCURVE",
"572 -462 OFFCURVE",
"514 -462 CURVE",
"514 -462 OFFCURVE",
"514 -462 OFFCURVE",
"513 -462 CURVE SMOOTH",
"512 -462 OFFCURVE",
"512 -462 OFFCURVE",
"512 -462 CURVE",
"508 -462 LINE",
"470 -464 OFFCURVE",
"434 -477 OFFCURVE",
"400 -496 CURVE",
"397 -565 LINE SMOOTH"
);
}
);
width = 511;
}
);
unicode = 062C;
},
{
glyphname = "keheh-ar";
lastChange = "2013-06-18 09:49:30 +0330";
layers = (
{
layerId = "3D323242-F336-407C-B164-DE86AA499667";
name = "Regular";
paths = (
{
closed = 1;
nodes = (
"1084 51 LINE SMOOTH",
"1097 51 OFFCURVE",
"1108 39 OFFCURVE",
"1108 26 CURVE SMOOTH",
"1108 13 OFFCURVE",
"1097 1 OFFCURVE",
"1084 1 CURVE SMOOTH",
"574 1 LINE",
"623 -54 OFFCURVE",
"648 -84 OFFCURVE",
"675 -144 CURVE SMOOTH",
"688 -175 OFFCURVE",
"695 -205 OFFCURVE",
"695 -234 CURVE SMOOTH",
"695 -247 OFFCURVE",
"685 -258 OFFCURVE",
"672 -258 CURVE SMOOTH",
"659 -258 OFFCURVE",
"648 -247 OFFCURVE",
"648 -234 CURVE SMOOTH",
"648 -190 OFFCURVE",
"629 -145 OFFCURVE",
"602 -109 CURVE SMOOTH",
"575 -73 OFFCURVE",
"542 -32 OFFCURVE",
"510 1 CURVE",
"124 1 LINE SMOOTH",
"111 1 OFFCURVE",
"100 13 OFFCURVE",
"100 26 CURVE SMOOTH",
"100 39 OFFCURVE",
"111 51 OFFCURVE",
"124 51 CURVE SMOOTH",
"470 51 LINE",
"439 92 OFFCURVE",
"423 131 OFFCURVE",
"423 168 CURVE SMOOTH",
"423 225 OFFCURVE",
"446 271 OFFCURVE",
"478 295 CURVE SMOOTH",
"509 318 OFFCURVE",
"543 330 OFFCURVE",
"574 330 CURVE SMOOTH",
"625 330 OFFCURVE",
"667 302 OFFCURVE",
"687 267 CURVE SMOOTH",
"706 231 OFFCURVE",
"715 201 OFFCURVE",
"715 185 CURVE SMOOTH",
"715 140 OFFCURVE",
"673 81 OFFCURVE",
"622 81 CURVE",
"594 84 OFFCURVE",
"555 122 OFFCURVE",
"539 153 CURVE",
"533 169 OFFCURVE",
"530 179 OFFCURVE",
"530 184 CURVE SMOOTH",
"530 197 OFFCURVE",
"536 205 OFFCURVE",
"540 206 CURVE SMOOTH",
"544 207 LINE",
"552 207 OFFCURVE",
"563 181 OFFCURVE",
"567 170 CURVE",
"576 151 OFFCURVE",
"602 129 OFFCURVE",
"622 129 CURVE SMOOTH",
"645 129 OFFCURVE",
"668 163 OFFCURVE",
"668 186 CURVE SMOOTH",
"668 189 OFFCURVE",
"667 194 OFFCURVE",
"664 203 CURVE SMOOTH",
"658 220 OFFCURVE",
"648 249 OFFCURVE",
"621 269 CURVE SMOOTH",
"608 278 OFFCURVE",
"592 283 OFFCURVE",
"574 283 CURVE SMOOTH",
"557 283 OFFCURVE",
"535 277 OFFCURVE",
"511 262 CURVE SMOOTH",
"487 246 OFFCURVE",
"470 212 OFFCURVE",
"470 168 CURVE SMOOTH",
"470 137 OFFCURVE",
"490 98 OFFCURVE",
"530 51 CURVE"
);
}
);
width = 1208;
}
);
unicode = 06A9;
},
{
glyphname = "khah-ar";
lastChange = "2013-06-18 07:43:32 +0330";
layers = (
{
layerId = "3D323242-F336-407C-B164-DE86AA499667";
name = "Regular";
paths = (
{
closed = 1;
nodes = (
"345 -567 LINE",
"347 -498 LINE",
"361 47 LINE",
"361 50 LINE",
"361 111 OFFCURVE",
"336 155 OFFCURVE",
"282 161 CURVE",
"230 161 OFFCURVE",
"186 149 OFFCURVE",
"149 121 CURVE SMOOTH",
"114 96 OFFCURVE",
"100 106 OFFCURVE",
"100 124 CURVE",
"100 156 OFFCURVE",
"196 217 OFFCURVE",
"269 217 CURVE SMOOTH",
"329 217 OFFCURVE",
"424 170 OFFCURVE",
"424 50 CURVE SMOOTH",
"424 47 LINE",
"391 -715 LINE",
"390 -728 OFFCURVE",
"379 -740 OFFCURVE",
"366 -740 CURVE SMOOTH",
"353 -740 OFFCURVE",
"341 -728 OFFCURVE",
"341 -715 CURVE"
);
},
{
closed = 1;
nodes = (
"347 -498 LINE SMOOTH",
"347 -498 OFFCURVE",
"271 -467 OFFCURVE",
"233 -465 CURVE",
"229 -465 LINE",
"229 -465 OFFCURVE",
"229 -465 OFFCURVE",
"228 -465 CURVE SMOOTH",
"227 -465 OFFCURVE",
"227 -465 OFFCURVE",
"227 -465 CURVE",
"169 -465 OFFCURVE",
"149 -501 OFFCURVE",
"154 -516 CURVE",
"158 -524 OFFCURVE",
"169 -526 OFFCURVE",
"183 -517 CURVE SMOOTH",
"199 -507 OFFCURVE",
"210 -503 OFFCURVE",
"236 -504 CURVE",
"300 -511 OFFCURVE",
"345 -552 OFFCURVE",
"345 -567 CURVE SMOOTH"
);
}
);
width = 688;
}
);
unicode = 062E;
},
{
glyphname = "lam-ar";
lastChange = "2013-06-18 09:41:02 +0330";
layers = (
{
layerId = "3D323242-F336-407C-B164-DE86AA499667";
name = "Regular";
paths = (
{
closed = 1;
nodes = (
"526 863 OFFCURVE",
"521 866 OFFCURVE",
"514 869 CURVE",
"416 869 LINE",
"410 868 OFFCURVE",
"403 865 OFFCURVE",
"395 861 CURVE SMOOTH",
"348 836 OFFCURVE",
"325 799 OFFCURVE",
"325 750 CURVE SMOOTH",
"325 674 OFFCURVE",
"388 611 OFFCURVE",
"465 611 CURVE SMOOTH",
"540 611 OFFCURVE",
"600 674 OFFCURVE",
"600 750 CURVE SMOOTH",
"600 798 OFFCURVE",
"577 835 OFFCURVE",
"530 860 CURVE"
);
},
{
closed = 1;
nodes = (
"520 948 LINE SMOOTH",
"541 948 OFFCURVE",
"560 930 OFFCURVE",
"560 909 CURVE SMOOTH",
"560 902 OFFCURVE",
"559 897 OFFCURVE",
"556 892 CURVE",
"613 860 OFFCURVE",
"641 813 OFFCURVE",
"641 752 CURVE SMOOTH",
"641 677 OFFCURVE",
"597 612 OFFCURVE",
"530 585 CURVE",
"574 440 OFFCURVE",
"601 355 OFFCURVE",
"613 250 CURVE SMOOTH",
"630 107 LINE",
"630 105 OFFCURVE",
"631 96 OFFCURVE",
"632 79 CURVE SMOOTH",
"633 62 OFFCURVE",
"633 50 OFFCURVE",
"633 43 CURVE SMOOTH",
"633 20 OFFCURVE",
"634 2 OFFCURVE",
"592 0 CURVE SMOOTH",
"571 -1 OFFCURVE",
"518 -2 OFFCURVE",
"433 -2 CURVE SMOOTH",
"432 -2 OFFCURVE",
"430 -2 OFFCURVE",
"427 -2 CURVE",
"424 -3 OFFCURVE",
"421 -3 OFFCURVE",
"420 -3 CURVE SMOOTH",
"413 -3 OFFCURVE",
"409 2 OFFCURVE",
"409 13 CURVE SMOOTH",
"409 48 OFFCURVE",
"449 62 OFFCURVE",
"489 62 CURVE SMOOTH",
"528 61 OFFCURVE",
"568 67 OFFCURVE",
"568 91 CURVE SMOOTH",
"568 158 OFFCURVE",
"549 276 OFFCURVE",
"536 326 CURVE SMOOTH",
"526 363 OFFCURVE",
"499 460 OFFCURVE",
"498 464 CURVE SMOOTH",
"490 493 OFFCURVE",
"482 510 OFFCURVE",
"475 515 CURVE",
"465 515 LINE",
"458 508 OFFCURVE",
"446 465 OFFCURVE",
"429 408 CURVE SMOOTH",
"407 333 OFFCURVE",
"402 306 OFFCURVE",
"398 293 CURVE",
"396 281 OFFCURVE",
"386 238 OFFCURVE",
"357 171 CURVE SMOOTH",
"331 111 OFFCURVE",
"316 64 OFFCURVE",
"311 41 CURVE",
"311 40 OFFCURVE",
"311 37 OFFCURVE",
"312 33 CURVE",
"312 29 OFFCURVE",
"312 26 OFFCURVE",
"312 25 CURVE SMOOTH",
"312 10 OFFCURVE",
"308 3 OFFCURVE",
"299 3 CURVE",
"285 0 OFFCURVE",
"269 -2 OFFCURVE",
"251 -2 CURVE SMOOTH",
"244 -2 OFFCURVE",
"227 -1 OFFCURVE",
"200 0 CURVE SMOOTH",
"173 1 OFFCURVE",
"146 2 OFFCURVE",
"120 2 CURVE SMOOTH",
"109 2 OFFCURVE",
"102 9 OFFCURVE",
"101 16 CURVE",
"100 21 LINE",
"100 29 OFFCURVE",
"102 35 OFFCURVE",
"105 38 CURVE SMOOTH",
"115 48 OFFCURVE",
"130 54 OFFCURVE",
"149 57 CURVE SMOOTH",
"187 62 OFFCURVE",
"230 68 OFFCURVE",
"259 99 CURVE",
"328 285 LINE SMOOTH",
"338 311 OFFCURVE",
"347 353 OFFCURVE",
"372 445 CURVE SMOOTH",
"392 518 OFFCURVE",
"403 571 OFFCURVE",
"406 582 CURVE",
"334 606 OFFCURVE",
"284 673 OFFCURVE",
"284 752 CURVE SMOOTH",
"284 812 OFFCURVE",
"318 865 OFFCURVE",
"370 894 CURVE",
"369 901 OFFCURVE",
"368 906 OFFCURVE",
"368 909 CURVE SMOOTH",
"368 930 OFFCURVE",
"386 948 OFFCURVE",
"407 948 CURVE SMOOTH"
);
},
{
closed = 1;
nodes = (
"405 922 LINE SMOOTH",
"396 922 OFFCURVE",
"392 918 OFFCURVE",
"392 909 CURVE SMOOTH",
"392 900 OFFCURVE",
"396 896 OFFCURVE",
"405 896 CURVE SMOOTH",
"519 896 LINE SMOOTH",
"528 896 OFFCURVE",
"532 900 OFFCURVE",
"532 909 CURVE SMOOTH",
"532 918 OFFCURVE",
"528 922 OFFCURVE",
"519 922 CURVE SMOOTH"
);
}
);
width = 642;
}
);
unicode = 0644;
},
{
glyphname = "noon-ar";
lastChange = "2013-06-18 07:00:11 +0330";
layers = (
{
layerId = "3D323242-F336-407C-B164-DE86AA499667";
name = "Regular";
paths = (
{
closed = 1;
nodes = (
"144 -461 LINE",
"410 -461 LINE",
"410 25 LINE SMOOTH",
"410 38 OFFCURVE",
"420 48 OFFCURVE",
"432 48 CURVE SMOOTH",
"742 48 LINE SMOOTH",
"755 48 OFFCURVE",
"764 38 OFFCURVE",
"764 25 CURVE SMOOTH",
"764 -510 LINE",
"719 -510 LINE",
"719 3 LINE",
"455 3 LINE",
"455 -483 LINE",
"454 -483 LINE",
"454 -498 OFFCURVE",
"447 -506 OFFCURVE",
"433 -506 CURVE SMOOTH",
"122 -506 LINE SMOOTH",
"109 -506 OFFCURVE",
"100 -496 OFFCURVE",
"100 -483 CURVE SMOOTH",
"100 52 LINE",
"144 52 LINE"
);
}
);
width = 864;
}
);
unicode = 0646;
},
{
glyphname = "peh-ar";
lastChange = "2013-06-18 07:01:08 +0330";
layers = (
{
layerId = "3D323242-F336-407C-B164-DE86AA499667";
name = "Regular";
paths = (
{
closed = 1;
nodes = (
"140 8 OFFCURVE",
"140 5 OFFCURVE",
"141 3 CURVE",
"145 3 LINE SMOOTH",
"151 3 OFFCURVE",
"158 5 OFFCURVE",
"165 8 CURVE SMOOTH",
"172 11 OFFCURVE",
"179 14 OFFCURVE",
"184 15 CURVE",
"188 16 OFFCURVE",
"206 20 OFFCURVE",
"239 28 CURVE SMOOTH",
"272 35 OFFCURVE",
"297 40 OFFCURVE",
"314 41 CURVE SMOOTH",
"327 42 OFFCURVE",
"348 44 OFFCURVE",
"377 47 CURVE SMOOTH",
"406 50 OFFCURVE",
"429 52 OFFCURVE",
"448 52 CURVE SMOOTH",
"461 52 OFFCURVE",
"472 52 OFFCURVE",
"479 51 CURVE",
"590 43 OFFCURVE",
"699 28 OFFCURVE",
"808 7 CURVE SMOOTH",
"847 -1 OFFCURVE",
"881 -16 OFFCURVE",
"910 -39 CURVE SMOOTH",
"922 -48 OFFCURVE",
"932 -60 OFFCURVE",
"941 -73 CURVE",
"957 -101 OFFCURVE",
"967 -122 OFFCURVE",
"988 -130 CURVE",
"991 -130 LINE SMOOTH",
"994 -130 OFFCURVE",
"997 -128 OFFCURVE",
"999 -125 CURVE",
"1008 -116 OFFCURVE",
"1044 -53 OFFCURVE",
"1044 -30 CURVE SMOOTH",
"1044 -25 OFFCURVE",
"1043 -19 OFFCURVE",
"1041 -12 CURVE",
"1037 -5 OFFCURVE",
"1030 -6 OFFCURVE",
"1021 -6 CURVE SMOOTH",
"1012 -6 OFFCURVE",
"1003 -5 OFFCURVE",
"987 0 CURVE SMOOTH",
"966 7 OFFCURVE",
"942 15 OFFCURVE",
"915 26 CURVE SMOOTH",
"862 47 OFFCURVE",
"822 60 OFFCURVE",
"771 71 CURVE SMOOTH",
"702 85 OFFCURVE",
"618 92 OFFCURVE",
"521 93 CURVE SMOOTH",
"496 93 LINE SMOOTH",
"340 93 OFFCURVE",
"232 71 OFFCURVE",
"140 12 CURVE"
);
},
{
closed = 1;
nodes = (
"103 -12 LINE SMOOTH",
"103 -9 OFFCURVE",
"103 -5 OFFCURVE",
"102 0 CURVE SMOOTH",
"101 5 OFFCURVE",
"100 10 OFFCURVE",
"100 13 CURVE SMOOTH",
"100 27 OFFCURVE",
"105 37 OFFCURVE",
"115 44 CURVE",
"174 81 OFFCURVE",
"211 97 OFFCURVE",
"282 112 CURVE SMOOTH",
"347 126 OFFCURVE",
"418 133 OFFCURVE",
"496 133 CURVE SMOOTH",
"521 133 LINE SMOOTH",
"622 132 OFFCURVE",
"708 124 OFFCURVE",
"778 110 CURVE SMOOTH",
"831 99 OFFCURVE",
"874 85 OFFCURVE",
"928 64 CURVE SMOOTH",
"955 53 OFFCURVE",
"979 45 OFFCURVE",
"1000 38 CURVE",
"1001 38 OFFCURVE",
"1066 37 OFFCURVE",
"1078 2 CURVE SMOOTH",
"1082 -9 OFFCURVE",
"1084 -19 OFFCURVE",
"1084 -30 CURVE SMOOTH",
"1084 -51 OFFCURVE",
"1074 -77 OFFCURVE",
"1055 -110 CURVE SMOOTH",
"1031 -155 OFFCURVE",
"1018 -170 OFFCURVE",
"991 -170 CURVE SMOOTH",
"988 -170 OFFCURVE",
"983 -169 OFFCURVE",
"976 -168 CURVE",
"944 -157 OFFCURVE",
"926 -130 OFFCURVE",
"910 -101 CURVE SMOOTH",
"902 -87 OFFCURVE",
"894 -77 OFFCURVE",
"886 -71 CURVE",
"865 -54 OFFCURVE",
"842 -43 OFFCURVE",
"817 -36 CURVE",
"814 -40 OFFCURVE",
"812 -42 OFFCURVE",
"809 -43 CURVE",
"804 -45 OFFCURVE",
"798 -48 OFFCURVE",
"789 -53 CURVE SMOOTH",
"771 -63 OFFCURVE",
"755 -72 OFFCURVE",
"736 -76 CURVE",
"725 -79 OFFCURVE",
"708 -84 OFFCURVE",
"687 -91 CURVE SMOOTH",
"644 -106 OFFCURVE",
"615 -113 OFFCURVE",
"583 -113 CURVE SMOOTH",
"559 -113 OFFCURVE",
"513 -106 OFFCURVE",
"474 -83 CURVE SMOOTH",
"455 -72 OFFCURVE",
"434 -57 OFFCURVE",
"413 -39 CURVE",
"391 -22 OFFCURVE",
"373 -9 OFFCURVE",
"358 0 CURVE",
"357 0 OFFCURVE",
"357 1 OFFCURVE",
"356 2 CURVE SMOOTH",
"355 3 OFFCURVE",
"354 4 OFFCURVE",
"353 4 CURVE",
"342 3 OFFCURVE",
"330 2 OFFCURVE",
"317 1 CURVE SMOOTH",
"306 0 OFFCURVE",
"264 -8 OFFCURVE",
"192 -25 CURVE",
"191 -25 OFFCURVE",
"186 -27 OFFCURVE",
"177 -31 CURVE",
"167 -35 OFFCURVE",
"156 -37 OFFCURVE",
"145 -37 CURVE SMOOTH",
"137 -37 OFFCURVE",
"102 -38 OFFCURVE",
"102 -15 CURVE SMOOTH",
"102 -14 OFFCURVE",
"102 -14 OFFCURVE",
"103 -13 CURVE"
);
},
{
closed = 1;
nodes = (
"559 -72 OFFCURVE",
"571 -73 OFFCURVE",
"583 -73 CURVE SMOOTH",
"611 -73 OFFCURVE",
"635 -66 OFFCURVE",
"675 -53 CURVE SMOOTH",
"695 -46 OFFCURVE",
"712 -41 OFFCURVE",
"727 -37 CURVE SMOOTH",
"739 -34 OFFCURVE",
"750 -30 OFFCURVE",
"759 -24 CURVE",
"674 -8 OFFCURVE",
"579 4 OFFCURVE",
"476 11 CURVE",
"469 12 OFFCURVE",
"460 12 OFFCURVE",
"448 12 CURVE SMOOTH",
"444 12 OFFCURVE",
"438 12 OFFCURVE",
"431 12 CURVE",
"423 11 OFFCURVE",
"417 11 OFFCURVE",
"414 11 CURVE",
"451 -22 OFFCURVE",
"497 -58 OFFCURVE",
"548 -69 CURVE"
);
}
);
width = 1184;
}
);
unicode = 067E;
},
{
glyphname = "qaf-ar";
lastChange = "2013-06-18 08:09:05 +0330";
layers = (
{
layerId = "3D323242-F336-407C-B164-DE86AA499667";
name = "Regular";
paths = (
{
closed = 1;
nodes = (
"100 447 LINE SMOOTH",
"100 460 OFFCURVE",
"110 470 OFFCURVE",
"123 470 CURVE SMOOTH",
"733 470 LINE SMOOTH",
"746 470 OFFCURVE",
"756 460 OFFCURVE",
"756 447 CURVE SMOOTH",
"756 23 LINE SMOOTH",
"756 10 OFFCURVE",
"746 0 OFFCURVE",
"733 0 CURVE SMOOTH",
"446 0 LINE SMOOTH",
"433 0 OFFCURVE",
"424 10 OFFCURVE",
"424 23 CURVE SMOOTH",
"424 259 LINE",
"469 259 LINE",
"469 45 LINE",
"711 45 LINE",
"711 425 LINE",
"145 425 LINE",
"145 19 LINE",
"100 19 LINE"
);
}
);
width = 898;
}
);
unicode = 0642;
},
{
glyphname = "tah-ar";
lastChange = "2013-06-18 07:02:13 +0330";
layers = (
{
layerId = "3D323242-F336-407C-B164-DE86AA499667";
name = "Regular";
paths = (
{
closed = 1;
nodes = (
"40 129 LINE",
"40 40 LINE",
"558 40 LINE",
"558 129 LINE"
);
},
{
closed = 1;
nodes = (
"578 169 LINE SMOOTH",
"591 169 OFFCURVE",
"598 162 OFFCURVE",
"598 149 CURVE SMOOTH",
"598 20 LINE SMOOTH",
"598 7 OFFCURVE",
"591 0 OFFCURVE",
"578 0 CURVE SMOOTH",
"20 0 LINE SMOOTH",
"7 0 OFFCURVE",
"0 7 OFFCURVE",
"0 20 CURVE SMOOTH",
"0 149 LINE SMOOTH",
"0 162 OFFCURVE",
"7 169 OFFCURVE",
"20 169 CURVE SMOOTH",
"227 169 LINE",
"228 170 OFFCURVE",
"228 170 OFFCURVE",
"228 170 CURVE",
"228 171 OFFCURVE",
"228 172 OFFCURVE",
"229 172 CURVE",
"427 521 LINE",
"421 531 OFFCURVE",
"418 542 OFFCURVE",
"418 554 CURVE SMOOTH",
"418 598 OFFCURVE",
"458 661 OFFCURVE",
"510 661 CURVE SMOOTH",
"534 661 OFFCURVE",
"565 642 OFFCURVE",
"565 607 CURVE SMOOTH",
"565 567 OFFCURVE",
"516 496 OFFCURVE",
"469 495 CURVE",
"469 494 LINE",
"288 169 LINE"
);
},
{
closed = 1;
nodes = (
"467 532 OFFCURVE",
"472 530 OFFCURVE",
"477 530 CURVE SMOOTH",
"505 530 OFFCURVE",
"534 577 OFFCURVE",
"534 596 CURVE SMOOTH",
"534 615 OFFCURVE",
"519 625 OFFCURVE",
"503 625 CURVE SMOOTH",
"472 625 OFFCURVE",
"450 591 OFFCURVE",
"450 563 CURVE SMOOTH",
"450 551 OFFCURVE",
"455 542 OFFCURVE",
"464 535 CURVE"
);
}
);
width = 598;
}
);
unicode = 0637;
},
{
glyphname = "tcheh-ar";
lastChange = "2013-06-18 07:45:43 +0330";
layers = (
{
layerId = "3D323242-F336-407C-B164-DE86AA499667";
name = "Regular";
paths = (
{
closed = 1;
nodes = (
"343 -629 LINE",
"344 -559 LINE",
"345 -507 LINE",
"347 -438 LINE",
"361 47 LINE",
"361 50 LINE",
"361 111 OFFCURVE",
"336 155 OFFCURVE",
"282 161 CURVE",
"230 161 OFFCURVE",
"186 149 OFFCURVE",
"149 121 CURVE SMOOTH",
"114 96 OFFCURVE",
"100 106 OFFCURVE",
"100 124 CURVE",
"100 156 OFFCURVE",
"196 217 OFFCURVE",
"269 217 CURVE SMOOTH",
"329 217 OFFCURVE",
"424 170 OFFCURVE",
"424 50 CURVE SMOOTH",
"424 47 LINE",
"400 -436 LINE",
"397 -505 LINE",
"395 -556 LINE",
"393 -627 LINE",
"391 -715 LINE SMOOTH",
"391 -728 OFFCURVE",
"379 -740 OFFCURVE",
"366 -740 CURVE SMOOTH",
"353 -740 OFFCURVE",
"341 -728 OFFCURVE",
"341 -715 CURVE"
);
},
{
closed = 1;
nodes = (
"398 -490 OFFCURVE",
"441 -448 OFFCURVE",
"505 -441 CURVE",
"531 -440 OFFCURVE",
"542 -444 OFFCURVE",
"558 -454 CURVE SMOOTH",
"572 -463 OFFCURVE",
"583 -461 OFFCURVE",
"587 -453 CURVE",
"592 -438 OFFCURVE",
"572 -402 OFFCURVE",
"514 -402 CURVE",
"514 -402 OFFCURVE",
"514 -402 OFFCURVE",
"513 -402 CURVE SMOOTH",
"512 -402 OFFCURVE",
"512 -402 OFFCURVE",
"512 -402 CURVE",
"508 -402 LINE",
"470 -404 OFFCURVE",
"400 -436 OFFCURVE",
"400 -436 CURVE",
"397 -505 LINE SMOOTH"
);
},
{
closed = 1;
nodes = (
"347 -438 LINE SMOOTH",
"347 -438 OFFCURVE",
"271 -407 OFFCURVE",
"233 -405 CURVE",
"229 -405 LINE",
"229 -405 OFFCURVE",
"229 -405 OFFCURVE",
"228 -405 CURVE SMOOTH",
"227 -405 OFFCURVE",
"227 -405 OFFCURVE",
"227 -405 CURVE",
"169 -405 OFFCURVE",
"149 -441 OFFCURVE",
"154 -456 CURVE",
"158 -464 OFFCURVE",
"169 -466 OFFCURVE",
"183 -457 CURVE SMOOTH",
"199 -447 OFFCURVE",
"210 -443 OFFCURVE",
"236 -444 CURVE",
"300 -451 OFFCURVE",
"345 -492 OFFCURVE",
"345 -507 CURVE SMOOTH"
);
},
{
closed = 1;
nodes = (
"393 -622 OFFCURVE",
"438 -568 OFFCURVE",
"502 -561 CURVE",
"528 -560 OFFCURVE",
"539 -564 OFFCURVE",
"555 -574 CURVE SMOOTH",
"569 -583 OFFCURVE",
"580 -581 OFFCURVE",
"584 -573 CURVE",
"589 -558 OFFCURVE",
"569 -522 OFFCURVE",
"511 -522 CURVE",
"511 -522 OFFCURVE",
"511 -522 OFFCURVE",
"510 -522 CURVE SMOOTH",
"509 -522 OFFCURVE",
"509 -522 OFFCURVE",
"509 -522 CURVE",
"505 -522 LINE",
"467 -524 OFFCURVE",
"395 -556 OFFCURVE",
"395 -556 CURVE",
"393 -627 LINE SMOOTH"
);
},
{
closed = 1;
nodes = (
"344 -559 LINE SMOOTH",
"344 -559 OFFCURVE",
"268 -527 OFFCURVE",
"230 -525 CURVE",
"226 -525 LINE",
"226 -525 OFFCURVE",
"226 -525 OFFCURVE",
"225 -525 CURVE SMOOTH",
"224 -525 OFFCURVE",
"224 -525 OFFCURVE",
"224 -525 CURVE",
"166 -525 OFFCURVE",
"146 -561 OFFCURVE",
"151 -576 CURVE",
"155 -584 OFFCURVE",
"166 -586 OFFCURVE",
"180 -577 CURVE SMOOTH",
"196 -567 OFFCURVE",
"207 -563 OFFCURVE",
"233 -564 CURVE",
"297 -571 OFFCURVE",
"336 -619 OFFCURVE",
"343 -629 CURVE"
);
}
);
width = 527;
}
);
unicode = 0686;
},
{
glyphname = "teh-ar";
lastChange = "2013-06-18 03:06:08 +0330";
layers = (
{
layerId = "3D323242-F336-407C-B164-DE86AA499667";
name = "Regular";
paths = (
{
closed = 1;
nodes = (
"139 62 LINE",
"139 40 LINE",
"1061 40 LINE",
"1061 67 LINE",
"1052 69 OFFCURVE",
"1033 71 OFFCURVE",
"1004 72 CURVE SMOOTH",
"974 73 OFFCURVE",
"952 77 OFFCURVE",
"938 84 CURVE",
"771 177 LINE SMOOTH",
"756 186 OFFCURVE",
"735 197 OFFCURVE",
"708 211 CURVE SMOOTH",
"655 239 OFFCURVE",
"621 259 OFFCURVE",
"578 291 CURVE SMOOTH",
"558 306 OFFCURVE",
"537 327 OFFCURVE",
"514 354 CURVE SMOOTH",
"491 381 OFFCURVE",
"475 398 OFFCURVE",
"468 405 CURVE SMOOTH",
"461 412 OFFCURVE",
"453 421 OFFCURVE",
"443 432 CURVE SMOOTH",
"422 455 OFFCURVE",
"410 464 OFFCURVE",
"390 475 CURVE SMOOTH",
"377 482 OFFCURVE",
"365 485 OFFCURVE",
"355 485 CURVE SMOOTH",
"346 485 OFFCURVE",
"338 484 OFFCURVE",
"329 481 CURVE",
"281 472 OFFCURVE",
"256 443 OFFCURVE",
"240 387 CURVE",
"243 388 OFFCURVE",
"245 389 OFFCURVE",
"247 390 CURVE SMOOTH",
"251 392 LINE",
"257 393 OFFCURVE",
"262 394 OFFCURVE",
"267 394 CURVE SMOOTH",
"272 394 LINE",
"277 393 OFFCURVE",
"282 392 OFFCURVE",
"288 389 CURVE SMOOTH",
"307 380 OFFCURVE",
"317 363 OFFCURVE",
"325 343 CURVE",
"328 333 OFFCURVE",
"331 326 OFFCURVE",
"334 322 CURVE",
"336 318 OFFCURVE",
"337 314 OFFCURVE",
"337 311 CURVE SMOOTH",
"337 310 OFFCURVE",
"336 307 OFFCURVE",
"335 303 CURVE",
"332 296 OFFCURVE",
"327 292 OFFCURVE",
"320 291 CURVE",
"308 290 OFFCURVE",
"306 279 OFFCURVE",
"306 270 CURVE SMOOTH",
"306 264 LINE SMOOTH",
"306 263 OFFCURVE",
"307 260 OFFCURVE",
"308 259 CURVE",
"319 235 OFFCURVE",
"318 236 OFFCURVE",
"326 223 CURVE",
"333 210 OFFCURVE",
"339 199 OFFCURVE",
"347 188 CURVE SMOOTH",
"363 165 OFFCURVE",
"376 150 OFFCURVE",
"399 125 CURVE",
"410 112 OFFCURVE",
"419 102 OFFCURVE",
"426 95 CURVE",
"429 90 OFFCURVE",
"431 86 OFFCURVE",
"431 82 CURVE SMOOTH",
"431 79 OFFCURVE",
"430 77 OFFCURVE",
"429 74 CURVE",
"426 66 OFFCURVE",
"420 62 OFFCURVE",
"411 62 CURVE SMOOTH"
);
},
{
closed = 1;
nodes = (
"367 102 LINE",
"346 125 OFFCURVE",
"329 145 OFFCURVE",
"315 164 CURVE SMOOTH",
"306 176 OFFCURVE",
"298 189 OFFCURVE",
"291 204 CURVE",
"287 211 OFFCURVE",
"284 217 OFFCURVE",
"282 220 CURVE",
"281 221 OFFCURVE",
"280 223 OFFCURVE",
"280 224 CURVE",
"277 229 OFFCURVE",
"268 246 OFFCURVE",
"267 258 CURVE",
"267 258 OFFCURVE",
"267 259 OFFCURVE",
"267 262 CURVE",
"266 265 OFFCURVE",
"266 267 OFFCURVE",
"266 270 CURVE SMOOTH",
"266 277 OFFCURVE",
"266 283 OFFCURVE",
"267 287 CURVE",
"267 288 OFFCURVE",
"267 289 OFFCURVE",
"268 290 CURVE",
"268 291 OFFCURVE",
"268 291 OFFCURVE",
"268 292 CURVE",
"273 305 OFFCURVE",
"281 315 OFFCURVE",
"290 321 CURVE",
"289 328 OFFCURVE",
"276 354 OFFCURVE",
"267 354 CURVE SMOOTH",
"264 354 OFFCURVE",
"254 350 OFFCURVE",
"239 343 CURVE",
"236 333 LINE SMOOTH",
"233 324 OFFCURVE",
"226 319 OFFCURVE",
"217 319 CURVE SMOOTH",
"215 319 LINE",
"204 320 OFFCURVE",
"198 327 OFFCURVE",
"197 338 CURVE",
"197 341 OFFCURVE",
"196 345 OFFCURVE",
"195 351 CURVE SMOOTH",
"194 356 OFFCURVE",
"193 361 OFFCURVE",
"193 365 CURVE SMOOTH",
"193 374 OFFCURVE",
"197 386 OFFCURVE",
"201 398 CURVE",
"204 409 OFFCURVE",
"207 419 OFFCURVE",
"212 429 CURVE",
"216 439 OFFCURVE",
"220 449 OFFCURVE",
"228 459 CURVE",
"231 464 OFFCURVE",
"235 469 OFFCURVE",
"240 474 CURVE",
"249 485 OFFCURVE",
"259 494 OFFCURVE",
"269 500 CURVE",
"267 504 LINE",
"264 511 OFFCURVE",
"262 518 OFFCURVE",
"261 523 CURVE SMOOTH",
"256 552 OFFCURVE",
"253 580 OFFCURVE",
"253 608 CURVE SMOOTH",
"253 624 LINE SMOOTH",
"253 647 OFFCURVE",
"257 696 OFFCURVE",
"265 769 CURVE",
"266 786 OFFCURVE",
"267 800 OFFCURVE",
"270 815 CURVE SMOOTH",
"273 830 OFFCURVE",
"276 844 OFFCURVE",
"283 860 CURVE",
"286 868 OFFCURVE",
"291 876 OFFCURVE",
"296 884 CURVE",
"297 886 OFFCURVE",
"298 888 OFFCURVE",
"300 890 CURVE",
"311 899 OFFCURVE",
"322 904 OFFCURVE",
"333 904 CURVE",
"337 903 OFFCURVE",
"339 903 OFFCURVE",
"340 903 CURVE",
"343 902 OFFCURVE",
"344 902 OFFCURVE",
"345 902 CURVE",
"350 901 OFFCURVE",
"352 900 OFFCURVE",
"356 898 CURVE",
"357 897 OFFCURVE",
"360 896 OFFCURVE",
"363 895 CURVE SMOOTH",
"369 893 OFFCURVE",
"373 889 OFFCURVE",
"376 884 CURVE",
"376 883 LINE",
"377 884 LINE",
"381 888 LINE",
"391 895 OFFCURVE",
"402 898 OFFCURVE",
"414 898 CURVE SMOOTH",
"425 898 OFFCURVE",
"437 895 OFFCURVE",
"450 888 CURVE",
"453 887 OFFCURVE",
"455 885 OFFCURVE",
"457 882 CURVE",
"472 862 OFFCURVE",
"478 848 OFFCURVE",
"482 833 CURVE",
"485 818 OFFCURVE",
"486 802 OFFCURVE",
"487 775 CURVE SMOOTH",
"490 621 LINE SMOOTH",
"489 556 OFFCURVE",
"480 504 OFFCURVE",
"464 467 CURVE",
"477 452 OFFCURVE",
"488 441 OFFCURVE",
"496 433 CURVE",
"509 421 OFFCURVE",
"525 403 OFFCURVE",
"545 379 CURVE SMOOTH",
"585 331 OFFCURVE",
"623 307 OFFCURVE",
"661 284 CURVE SMOOTH",
"680 273 OFFCURVE",
"702 260 OFFCURVE",
"727 247 CURVE SMOOTH",
"752 234 OFFCURVE",
"773 222 OFFCURVE",
"791 211 CURVE",
"956 120 LINE SMOOTH",
"969 113 OFFCURVE",
"989 110 OFFCURVE",
"1016 110 CURVE SMOOTH",
"1019 110 LINE SMOOTH",
"1048 110 OFFCURVE",
"1070 107 OFFCURVE",
"1087 101 CURVE SMOOTH",
"1095 98 OFFCURVE",
"1099 92 OFFCURVE",
"1099 83 CURVE SMOOTH",
"1099 21 LINE SMOOTH",
"1099 20 OFFCURVE",
"1099 18 OFFCURVE",
"1100 16 CURVE SMOOTH",
"1101 14 OFFCURVE",
"1101 13 OFFCURVE",
"1101 12 CURVE SMOOTH",
"1101 11 OFFCURVE",
"1100 9 OFFCURVE",
"1099 6 CURVE",
"1095 2 OFFCURVE",
"1090 0 OFFCURVE",
"1084 0 CURVE SMOOTH",
"116 0 LINE SMOOTH",
"115 0 OFFCURVE",
"113 0 OFFCURVE",
"112 0 CURVE SMOOTH",
"111 0 OFFCURVE",
"110 0 OFFCURVE",
"109 0 CURVE SMOOTH",
"102 0 OFFCURVE",
"100 4 OFFCURVE",
"100 9 CURVE SMOOTH",
"100 10 OFFCURVE",
"100 11 OFFCURVE",
"101 13 CURVE",
"101 15 OFFCURVE",
"101 16 OFFCURVE",
"101 17 CURVE SMOOTH",
"101 83 LINE",
"102 96 OFFCURVE",
"108 102 OFFCURVE",
"120 102 CURVE SMOOTH"
);
},
{
closed = 1;
nodes = (
"361 461 OFFCURVE",
"374 445 OFFCURVE",
"374 428 CURVE SMOOTH",
"374 412 OFFCURVE",
"360 399 OFFCURVE",
"344 399 CURVE SMOOTH",
"327 399 OFFCURVE",
"312 411 OFFCURVE",
"312 427 CURVE SMOOTH",
"312 446 OFFCURVE",
"326 461 OFFCURVE",
"345 461 CURVE SMOOTH"
);
},
{
closed = 1;
nodes = (
"447 774 LINE",
"446 790 OFFCURVE",
"446 802 OFFCURVE",
"446 811 CURVE",
"445 828 OFFCURVE",
"441 835 OFFCURVE",
"429 854 CURVE",
"424 857 OFFCURVE",
"419 858 OFFCURVE",
"414 858 CURVE SMOOTH",
"411 858 OFFCURVE",
"408 858 OFFCURVE",
"407 857 CURVE",
"404 852 OFFCURVE",
"402 846 OFFCURVE",
"401 837 CURVE",
"393 625 LINE",
"409 553 LINE SMOOTH",
"412 538 OFFCURVE",
"413 529 OFFCURVE",
"413 525 CURVE SMOOTH",
"413 520 OFFCURVE",
"412 515 OFFCURVE",
"410 510 CURVE",
"420 505 OFFCURVE",
"428 500 OFFCURVE",
"433 496 CURVE",
"443 533 OFFCURVE",
"449 575 OFFCURVE",
"450 621 CURVE"
);
},
{
closed = 1;
nodes = (
"371 525 OFFCURVE",
"370 542 OFFCURVE",
"370 546 CURVE",
"364 575 LINE",
"355 546 LINE",
"354 545 OFFCURVE",
"354 545 OFFCURVE",
"354 544 CURVE",
"353 541 OFFCURVE",
"349 526 OFFCURVE",
"349 525 CURVE",
"352 522 OFFCURVE",
"357 521 OFFCURVE",
"362 523 CURVE",
"365 523 LINE SMOOTH",
"366 523 OFFCURVE",
"371 522 OFFCURVE",
"372 521 CURVE"
);
},
{
closed = 1;
nodes = (
"300 515 LINE",
"303 516 OFFCURVE",
"308 518 OFFCURVE",
"311 518 CURVE",
"310 523 OFFCURVE",
"309 527 OFFCURVE",
"309 530 CURVE SMOOTH",
"309 539 OFFCURVE",
"312 548 OFFCURVE",
"317 559 CURVE",
"339 629 LINE",
"342 678 OFFCURVE",
"344 718 OFFCURVE",
"346 750 CURVE SMOOTH",
"347 781 OFFCURVE",
"348 802 OFFCURVE",
"349 812 CURVE",
"349 821 OFFCURVE",
"349 828 OFFCURVE",
"349 833 CURVE SMOOTH",
"349 837 OFFCURVE",
"349 840 OFFCURVE",
"350 843 CURVE",
"348 850 OFFCURVE",
"346 856 OFFCURVE",
"343 860 CURVE",
"340 861 OFFCURVE",
"338 862 OFFCURVE",
"336 863 CURVE SMOOTH",
"334 864 OFFCURVE",
"333 864 OFFCURVE",
"333 864 CURVE SMOOTH",
"332 864 OFFCURVE",
"332 864 OFFCURVE",
"332 863 CURVE",
"331 862 OFFCURVE",
"329 862 OFFCURVE",
"328 861 CURVE",
"319 845 OFFCURVE",
"314 831 OFFCURVE",
"311 817 CURVE SMOOTH",
"308 803 OFFCURVE",
"306 786 OFFCURVE",
"305 765 CURVE",
"297 693 OFFCURVE",
"293 646 OFFCURVE",
"293 623 CURVE SMOOTH",
"293 608 LINE SMOOTH",
"293 580 OFFCURVE",
"295 554 OFFCURVE",
"300 530 CURVE",
"301 529 OFFCURVE",
"301 527 OFFCURVE",
"302 526 CURVE",
"302 524 OFFCURVE",
"302 523 OFFCURVE",
"303 522 CURVE",
"302 523 LINE"
);
}
);
width = 1201;
}
);
unicode = 062A;
},
{
glyphname = "tehMarbuta-ar";
lastChange = "2013-06-18 03:06:54 +0330";
layers = (
{
layerId = "3D323242-F336-407C-B164-DE86AA499667";
name = "Regular";
paths = (
{
closed = 1;
nodes = (
"139 62 LINE",
"139 40 LINE",
"1061 40 LINE",
"1061 67 LINE",
"1052 69 OFFCURVE",
"1033 71 OFFCURVE",
"1004 72 CURVE SMOOTH",
"974 73 OFFCURVE",
"952 77 OFFCURVE",
"938 84 CURVE",
"771 177 LINE SMOOTH",
"756 186 OFFCURVE",
"735 197 OFFCURVE",
"708 211 CURVE SMOOTH",
"655 239 OFFCURVE",
"621 259 OFFCURVE",
"578 291 CURVE SMOOTH",
"558 306 OFFCURVE",
"537 327 OFFCURVE",
"514 354 CURVE SMOOTH",
"491 381 OFFCURVE",
"475 398 OFFCURVE",
"468 405 CURVE SMOOTH",
"461 412 OFFCURVE",
"453 421 OFFCURVE",
"443 432 CURVE SMOOTH",
"422 455 OFFCURVE",
"410 464 OFFCURVE",
"390 475 CURVE SMOOTH",
"377 482 OFFCURVE",
"365 485 OFFCURVE",
"355 485 CURVE SMOOTH",
"346 485 OFFCURVE",
"338 484 OFFCURVE",
"329 481 CURVE",
"281 472 OFFCURVE",
"256 443 OFFCURVE",
"240 387 CURVE",
"243 388 OFFCURVE",
"245 389 OFFCURVE",
"247 390 CURVE SMOOTH",
"251 392 LINE",
"257 393 OFFCURVE",
"262 394 OFFCURVE",
"267 394 CURVE SMOOTH",
"272 394 LINE",
"277 393 OFFCURVE",
"282 392 OFFCURVE",
"288 389 CURVE SMOOTH",
"307 380 OFFCURVE",
"317 363 OFFCURVE",
"325 343 CURVE",
"328 333 OFFCURVE",
"331 326 OFFCURVE",
"334 322 CURVE",
"336 318 OFFCURVE",
"337 314 OFFCURVE",
"337 311 CURVE SMOOTH",
"337 310 OFFCURVE",
"336 307 OFFCURVE",
"335 303 CURVE",
"332 296 OFFCURVE",
"327 292 OFFCURVE",
"320 291 CURVE",
"308 290 OFFCURVE",
"306 279 OFFCURVE",
"306 270 CURVE SMOOTH",
"306 264 LINE SMOOTH",
"306 263 OFFCURVE",
"307 260 OFFCURVE",
"308 259 CURVE",
"319 235 OFFCURVE",
"318 236 OFFCURVE",
"326 223 CURVE",
"333 210 OFFCURVE",
"339 199 OFFCURVE",
"347 188 CURVE SMOOTH",
"363 165 OFFCURVE",
"376 150 OFFCURVE",
"399 125 CURVE",
"410 112 OFFCURVE",
"419 102 OFFCURVE",
"426 95 CURVE",
"429 90 OFFCURVE",
"431 86 OFFCURVE",
"431 82 CURVE SMOOTH",
"431 79 OFFCURVE",
"430 77 OFFCURVE",
"429 74 CURVE",
"426 66 OFFCURVE",
"420 62 OFFCURVE",
"411 62 CURVE SMOOTH"
);
},
{
closed = 1;
nodes = (
"367 102 LINE",
"346 125 OFFCURVE",
"329 145 OFFCURVE",
"315 164 CURVE SMOOTH",
"306 176 OFFCURVE",
"298 189 OFFCURVE",
"291 204 CURVE",
"287 211 OFFCURVE",
"284 217 OFFCURVE",
"282 220 CURVE",
"281 221 OFFCURVE",
"280 223 OFFCURVE",
"280 224 CURVE",
"277 229 OFFCURVE",
"268 246 OFFCURVE",
"267 258 CURVE",
"267 258 OFFCURVE",
"267 259 OFFCURVE",
"267 262 CURVE",
"266 265 OFFCURVE",
"266 267 OFFCURVE",
"266 270 CURVE SMOOTH",
"266 277 OFFCURVE",
"266 283 OFFCURVE",
"267 287 CURVE",
"267 288 OFFCURVE",
"267 289 OFFCURVE",
"268 290 CURVE",
"268 291 OFFCURVE",
"268 291 OFFCURVE",
"268 292 CURVE",
"273 305 OFFCURVE",
"281 315 OFFCURVE",
"290 321 CURVE",
"289 328 OFFCURVE",
"276 354 OFFCURVE",
"267 354 CURVE SMOOTH",
"264 354 OFFCURVE",
"254 350 OFFCURVE",
"239 343 CURVE",
"236 333 LINE SMOOTH",
"233 324 OFFCURVE",
"226 319 OFFCURVE",
"217 319 CURVE SMOOTH",
"215 319 LINE",
"204 320 OFFCURVE",
"198 327 OFFCURVE",
"197 338 CURVE",
"197 341 OFFCURVE",
"196 345 OFFCURVE",
"195 351 CURVE SMOOTH",
"194 356 OFFCURVE",
"193 361 OFFCURVE",
"193 365 CURVE SMOOTH",
"193 374 OFFCURVE",
"197 386 OFFCURVE",
"201 398 CURVE",
"204 409 OFFCURVE",
"207 419 OFFCURVE",
"212 429 CURVE",
"216 439 OFFCURVE",
"220 449 OFFCURVE",
"228 459 CURVE",
"231 464 OFFCURVE",
"235 469 OFFCURVE",
"240 474 CURVE",
"249 485 OFFCURVE",
"259 494 OFFCURVE",
"269 500 CURVE",
"267 504 LINE",
"264 511 OFFCURVE",
"262 518 OFFCURVE",
"261 523 CURVE SMOOTH",
"256 552 OFFCURVE",
"253 580 OFFCURVE",
"253 608 CURVE SMOOTH",
"253 624 LINE SMOOTH",
"253 647 OFFCURVE",
"257 696 OFFCURVE",
"265 769 CURVE",
"266 786 OFFCURVE",
"267 800 OFFCURVE",
"270 815 CURVE SMOOTH",
"273 830 OFFCURVE",
"276 844 OFFCURVE",
"283 860 CURVE",
"286 868 OFFCURVE",
"291 876 OFFCURVE",
"296 884 CURVE",
"297 886 OFFCURVE",
"298 888 OFFCURVE",
"300 890 CURVE",
"311 899 OFFCURVE",
"322 904 OFFCURVE",
"333 904 CURVE",
"337 903 OFFCURVE",
"339 903 OFFCURVE",
"340 903 CURVE",
"343 902 OFFCURVE",
"344 902 OFFCURVE",
"345 902 CURVE",
"350 901 OFFCURVE",
"352 900 OFFCURVE",
"356 898 CURVE",
"357 897 OFFCURVE",
"360 896 OFFCURVE",
"363 895 CURVE SMOOTH",
"369 893 OFFCURVE",
"373 889 OFFCURVE",
"376 884 CURVE",
"376 883 LINE",
"377 884 LINE",
"381 888 LINE",
"391 895 OFFCURVE",
"402 898 OFFCURVE",
"414 898 CURVE SMOOTH",
"425 898 OFFCURVE",
"437 895 OFFCURVE",
"450 888 CURVE",
"453 887 OFFCURVE",
"455 885 OFFCURVE",
"457 882 CURVE",
"472 862 OFFCURVE",
"478 848 OFFCURVE",
"482 833 CURVE",
"485 818 OFFCURVE",
"486 802 OFFCURVE",
"487 775 CURVE SMOOTH",
"490 621 LINE SMOOTH",
"489 556 OFFCURVE",
"480 504 OFFCURVE",
"464 467 CURVE",
"477 452 OFFCURVE",
"488 441 OFFCURVE",
"496 433 CURVE",
"509 421 OFFCURVE",
"525 403 OFFCURVE",
"545 379 CURVE SMOOTH",
"585 331 OFFCURVE",
"623 307 OFFCURVE",
"661 284 CURVE SMOOTH",
"680 273 OFFCURVE",
"702 260 OFFCURVE",
"727 247 CURVE SMOOTH",
"752 234 OFFCURVE",
"773 222 OFFCURVE",
"791 211 CURVE",
"956 120 LINE SMOOTH",
"969 113 OFFCURVE",
"989 110 OFFCURVE",
"1016 110 CURVE SMOOTH",
"1019 110 LINE SMOOTH",
"1048 110 OFFCURVE",
"1070 107 OFFCURVE",
"1087 101 CURVE SMOOTH",
"1095 98 OFFCURVE",
"1099 92 OFFCURVE",
"1099 83 CURVE SMOOTH",
"1099 21 LINE SMOOTH",
"1099 20 OFFCURVE",
"1099 18 OFFCURVE",
"1100 16 CURVE SMOOTH",
"1101 14 OFFCURVE",
"1101 13 OFFCURVE",
"1101 12 CURVE SMOOTH",
"1101 11 OFFCURVE",
"1100 9 OFFCURVE",
"1099 6 CURVE",
"1095 2 OFFCURVE",
"1090 0 OFFCURVE",
"1084 0 CURVE SMOOTH",
"116 0 LINE SMOOTH",
"115 0 OFFCURVE",
"113 0 OFFCURVE",
"112 0 CURVE SMOOTH",
"111 0 OFFCURVE",
"110 0 OFFCURVE",
"109 0 CURVE SMOOTH",
"102 0 OFFCURVE",
"100 4 OFFCURVE",
"100 9 CURVE SMOOTH",
"100 10 OFFCURVE",
"100 11 OFFCURVE",
"101 13 CURVE",
"101 15 OFFCURVE",
"101 16 OFFCURVE",
"101 17 CURVE SMOOTH",
"101 83 LINE",
"102 96 OFFCURVE",
"108 102 OFFCURVE",
"120 102 CURVE SMOOTH"
);
},
{
closed = 1;
nodes = (
"361 461 OFFCURVE",
"374 445 OFFCURVE",
"374 428 CURVE SMOOTH",
"374 412 OFFCURVE",
"360 399 OFFCURVE",
"344 399 CURVE SMOOTH",
"327 399 OFFCURVE",
"312 411 OFFCURVE",
"312 427 CURVE SMOOTH",
"312 446 OFFCURVE",
"326 461 OFFCURVE",
"345 461 CURVE SMOOTH"
);
},
{
closed = 1;
nodes = (
"447 774 LINE",
"446 790 OFFCURVE",
"446 802 OFFCURVE",
"446 811 CURVE",
"445 828 OFFCURVE",
"441 835 OFFCURVE",
"429 854 CURVE",
"424 857 OFFCURVE",
"419 858 OFFCURVE",
"414 858 CURVE SMOOTH",
"411 858 OFFCURVE",
"408 858 OFFCURVE",
"407 857 CURVE",
"404 852 OFFCURVE",
"402 846 OFFCURVE",
"401 837 CURVE",
"393 625 LINE",
"409 553 LINE SMOOTH",
"412 538 OFFCURVE",
"413 529 OFFCURVE",
"413 525 CURVE SMOOTH",
"413 520 OFFCURVE",
"412 515 OFFCURVE",
"410 510 CURVE",
"420 505 OFFCURVE",
"428 500 OFFCURVE",
"433 496 CURVE",
"443 533 OFFCURVE",
"449 575 OFFCURVE",
"450 621 CURVE"
);
},
{
closed = 1;
nodes = (
"371 525 OFFCURVE",
"370 542 OFFCURVE",
"370 546 CURVE",
"364 575 LINE",
"355 546 LINE",
"354 545 OFFCURVE",
"354 545 OFFCURVE",
"354 544 CURVE",
"353 541 OFFCURVE",
"349 526 OFFCURVE",
"349 525 CURVE",
"352 522 OFFCURVE",
"357 521 OFFCURVE",
"362 523 CURVE",
"365 523 LINE SMOOTH",
"366 523 OFFCURVE",
"371 522 OFFCURVE",
"372 521 CURVE"
);
},
{
closed = 1;
nodes = (
"300 515 LINE",
"303 516 OFFCURVE",
"308 518 OFFCURVE",
"311 518 CURVE",
"310 523 OFFCURVE",
"309 527 OFFCURVE",
"309 530 CURVE SMOOTH",
"309 539 OFFCURVE",
"312 548 OFFCURVE",
"317 559 CURVE",
"339 629 LINE",
"342 678 OFFCURVE",
"344 718 OFFCURVE",
"346 750 CURVE SMOOTH",
"347 781 OFFCURVE",
"348 802 OFFCURVE",
"349 812 CURVE",
"349 821 OFFCURVE",
"349 828 OFFCURVE",
"349 833 CURVE SMOOTH",
"349 837 OFFCURVE",
"349 840 OFFCURVE",
"350 843 CURVE",
"348 850 OFFCURVE",
"346 856 OFFCURVE",
"343 860 CURVE",
"340 861 OFFCURVE",
"338 862 OFFCURVE",
"336 863 CURVE SMOOTH",
"334 864 OFFCURVE",
"333 864 OFFCURVE",
"333 864 CURVE SMOOTH",
"332 864 OFFCURVE",
"332 864 OFFCURVE",
"332 863 CURVE",
"331 862 OFFCURVE",
"329 862 OFFCURVE",
"328 861 CURVE",
"319 845 OFFCURVE",
"314 831 OFFCURVE",
"311 817 CURVE SMOOTH",
"308 803 OFFCURVE",
"306 786 OFFCURVE",
"305 765 CURVE",
"297 693 OFFCURVE",
"293 646 OFFCURVE",
"293 623 CURVE SMOOTH",
"293 608 LINE SMOOTH",
"293 580 OFFCURVE",
"295 554 OFFCURVE",
"300 530 CURVE",
"301 529 OFFCURVE",
"301 527 OFFCURVE",
"302 526 CURVE",
"302 524 OFFCURVE",
"302 523 OFFCURVE",
"303 522 CURVE",
"302 523 LINE"
);
}
);
width = 1201;
}
);
unicode = 0629;
},
{
glyphname = "tehMarbutagoal-ar";
lastChange = "2013-06-18 03:07:13 +0330";
layers = (
{
layerId = "3D323242-F336-407C-B164-DE86AA499667";
name = "Regular";
paths = (
{
closed = 1;
nodes = (
"139 62 LINE",
"139 40 LINE",
"1061 40 LINE",
"1061 67 LINE",
"1052 69 OFFCURVE",
"1033 71 OFFCURVE",
"1004 72 CURVE SMOOTH",
"974 73 OFFCURVE",
"952 77 OFFCURVE",
"938 84 CURVE",
"771 177 LINE SMOOTH",
"756 186 OFFCURVE",
"735 197 OFFCURVE",
"708 211 CURVE SMOOTH",
"655 239 OFFCURVE",
"621 259 OFFCURVE",
"578 291 CURVE SMOOTH",
"558 306 OFFCURVE",
"537 327 OFFCURVE",
"514 354 CURVE SMOOTH",
"491 381 OFFCURVE",
"475 398 OFFCURVE",
"468 405 CURVE SMOOTH",
"461 412 OFFCURVE",
"453 421 OFFCURVE",
"443 432 CURVE SMOOTH",
"422 455 OFFCURVE",
"410 464 OFFCURVE",
"390 475 CURVE SMOOTH",
"377 482 OFFCURVE",
"365 485 OFFCURVE",
"355 485 CURVE SMOOTH",
"346 485 OFFCURVE",
"338 484 OFFCURVE",
"329 481 CURVE",
"281 472 OFFCURVE",
"256 443 OFFCURVE",
"240 387 CURVE",
"243 388 OFFCURVE",
"245 389 OFFCURVE",
"247 390 CURVE SMOOTH",
"251 392 LINE",
"257 393 OFFCURVE",
"262 394 OFFCURVE",
"267 394 CURVE SMOOTH",
"272 394 LINE",
"277 393 OFFCURVE",
"282 392 OFFCURVE",
"288 389 CURVE SMOOTH",
"307 380 OFFCURVE",
"317 363 OFFCURVE",
"325 343 CURVE",
"328 333 OFFCURVE",
"331 326 OFFCURVE",
"334 322 CURVE",
"336 318 OFFCURVE",
"337 314 OFFCURVE",
"337 311 CURVE SMOOTH",
"337 310 OFFCURVE",
"336 307 OFFCURVE",
"335 303 CURVE",
"332 296 OFFCURVE",
"327 292 OFFCURVE",
"320 291 CURVE",
"308 290 OFFCURVE",
"306 279 OFFCURVE",
"306 270 CURVE SMOOTH",
"306 264 LINE SMOOTH",
"306 263 OFFCURVE",
"307 260 OFFCURVE",
"308 259 CURVE",
"319 235 OFFCURVE",
"318 236 OFFCURVE",
"326 223 CURVE",
"333 210 OFFCURVE",
"339 199 OFFCURVE",
"347 188 CURVE SMOOTH",
"363 165 OFFCURVE",
"376 150 OFFCURVE",
"399 125 CURVE",
"410 112 OFFCURVE",
"419 102 OFFCURVE",
"426 95 CURVE",
"429 90 OFFCURVE",
"431 86 OFFCURVE",
"431 82 CURVE SMOOTH",
"431 79 OFFCURVE",
"430 77 OFFCURVE",
"429 74 CURVE",
"426 66 OFFCURVE",
"420 62 OFFCURVE",
"411 62 CURVE SMOOTH"
);
},
{
closed = 1;
nodes = (
"367 102 LINE",
"346 125 OFFCURVE",
"329 145 OFFCURVE",
"315 164 CURVE SMOOTH",
"306 176 OFFCURVE",
"298 189 OFFCURVE",
"291 204 CURVE",
"287 211 OFFCURVE",
"284 217 OFFCURVE",
"282 220 CURVE",
"281 221 OFFCURVE",
"280 223 OFFCURVE",
"280 224 CURVE",
"277 229 OFFCURVE",
"268 246 OFFCURVE",
"267 258 CURVE",
"267 258 OFFCURVE",
"267 259 OFFCURVE",
"267 262 CURVE",
"266 265 OFFCURVE",
"266 267 OFFCURVE",
"266 270 CURVE SMOOTH",
"266 277 OFFCURVE",
"266 283 OFFCURVE",
"267 287 CURVE",
"267 288 OFFCURVE",
"267 289 OFFCURVE",
"268 290 CURVE",
"268 291 OFFCURVE",
"268 291 OFFCURVE",
"268 292 CURVE",
"273 305 OFFCURVE",
"281 315 OFFCURVE",
"290 321 CURVE",
"289 328 OFFCURVE",
"276 354 OFFCURVE",
"267 354 CURVE SMOOTH",
"264 354 OFFCURVE",
"254 350 OFFCURVE",
"239 343 CURVE",
"236 333 LINE SMOOTH",
"233 324 OFFCURVE",
"226 319 OFFCURVE",
"217 319 CURVE SMOOTH",
"215 319 LINE",
"204 320 OFFCURVE",
"198 327 OFFCURVE",
"197 338 CURVE",
"197 341 OFFCURVE",
"196 345 OFFCURVE",
"195 351 CURVE SMOOTH",
"194 356 OFFCURVE",
"193 361 OFFCURVE",
"193 365 CURVE SMOOTH",
"193 374 OFFCURVE",
"197 386 OFFCURVE",
"201 398 CURVE",
"204 409 OFFCURVE",
"207 419 OFFCURVE",
"212 429 CURVE",
"216 439 OFFCURVE",
"220 449 OFFCURVE",
"228 459 CURVE",
"231 464 OFFCURVE",
"235 469 OFFCURVE",
"240 474 CURVE",
"249 485 OFFCURVE",
"259 494 OFFCURVE",
"269 500 CURVE",
"267 504 LINE",
"264 511 OFFCURVE",
"262 518 OFFCURVE",
"261 523 CURVE SMOOTH",
"256 552 OFFCURVE",
"253 580 OFFCURVE",
"253 608 CURVE SMOOTH",
"253 624 LINE SMOOTH",
"253 647 OFFCURVE",
"257 696 OFFCURVE",
"265 769 CURVE",
"266 786 OFFCURVE",
"267 800 OFFCURVE",
"270 815 CURVE SMOOTH",
"273 830 OFFCURVE",
"276 844 OFFCURVE",
"283 860 CURVE",
"286 868 OFFCURVE",
"291 876 OFFCURVE",
"296 884 CURVE",
"297 886 OFFCURVE",
"298 888 OFFCURVE",
"300 890 CURVE",
"311 899 OFFCURVE",
"322 904 OFFCURVE",
"333 904 CURVE",
"337 903 OFFCURVE",
"339 903 OFFCURVE",
"340 903 CURVE",
"343 902 OFFCURVE",
"344 902 OFFCURVE",
"345 902 CURVE",
"350 901 OFFCURVE",
"352 900 OFFCURVE",
"356 898 CURVE",
"357 897 OFFCURVE",
"360 896 OFFCURVE",
"363 895 CURVE SMOOTH",
"369 893 OFFCURVE",
"373 889 OFFCURVE",
"376 884 CURVE",
"376 883 LINE",
"377 884 LINE",
"381 888 LINE",
"391 895 OFFCURVE",
"402 898 OFFCURVE",
"414 898 CURVE SMOOTH",
"425 898 OFFCURVE",
"437 895 OFFCURVE",
"450 888 CURVE",
"453 887 OFFCURVE",
"455 885 OFFCURVE",
"457 882 CURVE",
"472 862 OFFCURVE",
"478 848 OFFCURVE",
"482 833 CURVE",
"485 818 OFFCURVE",
"486 802 OFFCURVE",
"487 775 CURVE SMOOTH",
"490 621 LINE SMOOTH",
"489 556 OFFCURVE",
"480 504 OFFCURVE",
"464 467 CURVE",
"477 452 OFFCURVE",
"488 441 OFFCURVE",
"496 433 CURVE",
"509 421 OFFCURVE",
"525 403 OFFCURVE",
"545 379 CURVE SMOOTH",
"585 331 OFFCURVE",
"623 307 OFFCURVE",
"661 284 CURVE SMOOTH",
"680 273 OFFCURVE",
"702 260 OFFCURVE",
"727 247 CURVE SMOOTH",
"752 234 OFFCURVE",
"773 222 OFFCURVE",
"791 211 CURVE",
"956 120 LINE SMOOTH",
"969 113 OFFCURVE",
"989 110 OFFCURVE",
"1016 110 CURVE SMOOTH",
"1019 110 LINE SMOOTH",
"1048 110 OFFCURVE",
"1070 107 OFFCURVE",
"1087 101 CURVE SMOOTH",
"1095 98 OFFCURVE",
"1099 92 OFFCURVE",
"1099 83 CURVE SMOOTH",
"1099 21 LINE SMOOTH",
"1099 20 OFFCURVE",
"1099 18 OFFCURVE",
"1100 16 CURVE SMOOTH",
"1101 14 OFFCURVE",
"1101 13 OFFCURVE",
"1101 12 CURVE SMOOTH",
"1101 11 OFFCURVE",
"1100 9 OFFCURVE",
"1099 6 CURVE",
"1095 2 OFFCURVE",
"1090 0 OFFCURVE",
"1084 0 CURVE SMOOTH",
"116 0 LINE SMOOTH",
"115 0 OFFCURVE",
"113 0 OFFCURVE",
"112 0 CURVE SMOOTH",
"111 0 OFFCURVE",
"110 0 OFFCURVE",
"109 0 CURVE SMOOTH",
"102 0 OFFCURVE",
"100 4 OFFCURVE",
"100 9 CURVE SMOOTH",
"100 10 OFFCURVE",
"100 11 OFFCURVE",
"101 13 CURVE",
"101 15 OFFCURVE",
"101 16 OFFCURVE",
"101 17 CURVE SMOOTH",
"101 83 LINE",
"102 96 OFFCURVE",
"108 102 OFFCURVE",
"120 102 CURVE SMOOTH"
);
},
{
closed = 1;
nodes = (
"361 461 OFFCURVE",
"374 445 OFFCURVE",
"374 428 CURVE SMOOTH",
"374 412 OFFCURVE",
"360 399 OFFCURVE",
"344 399 CURVE SMOOTH",
"327 399 OFFCURVE",
"312 411 OFFCURVE",
"312 427 CURVE SMOOTH",
"312 446 OFFCURVE",
"326 461 OFFCURVE",
"345 461 CURVE SMOOTH"
);
},
{
closed = 1;
nodes = (
"447 774 LINE",
"446 790 OFFCURVE",
"446 802 OFFCURVE",
"446 811 CURVE",
"445 828 OFFCURVE",
"441 835 OFFCURVE",
"429 854 CURVE",
"424 857 OFFCURVE",
"419 858 OFFCURVE",
"414 858 CURVE SMOOTH",
"411 858 OFFCURVE",
"408 858 OFFCURVE",
"407 857 CURVE",
"404 852 OFFCURVE",
"402 846 OFFCURVE",
"401 837 CURVE",
"393 625 LINE",
"409 553 LINE SMOOTH",
"412 538 OFFCURVE",
"413 529 OFFCURVE",
"413 525 CURVE SMOOTH",
"413 520 OFFCURVE",
"412 515 OFFCURVE",
"410 510 CURVE",
"420 505 OFFCURVE",
"428 500 OFFCURVE",
"433 496 CURVE",
"443 533 OFFCURVE",
"449 575 OFFCURVE",
"450 621 CURVE"
);
},
{
closed = 1;
nodes = (
"371 525 OFFCURVE",
"370 542 OFFCURVE",
"370 546 CURVE",
"364 575 LINE",
"355 546 LINE",
"354 545 OFFCURVE",
"354 545 OFFCURVE",
"354 544 CURVE",
"353 541 OFFCURVE",
"349 526 OFFCURVE",
"349 525 CURVE",
"352 522 OFFCURVE",
"357 521 OFFCURVE",
"362 523 CURVE",
"365 523 LINE SMOOTH",
"366 523 OFFCURVE",
"371 522 OFFCURVE",
"372 521 CURVE"
);
},
{
closed = 1;
nodes = (
"300 515 LINE",
"303 516 OFFCURVE",
"308 518 OFFCURVE",
"311 518 CURVE",
"310 523 OFFCURVE",
"309 527 OFFCURVE",
"309 530 CURVE SMOOTH",
"309 539 OFFCURVE",
"312 548 OFFCURVE",
"317 559 CURVE",
"339 629 LINE",
"342 678 OFFCURVE",
"344 718 OFFCURVE",
"346 750 CURVE SMOOTH",
"347 781 OFFCURVE",
"348 802 OFFCURVE",
"349 812 CURVE",
"349 821 OFFCURVE",
"349 828 OFFCURVE",
"349 833 CURVE SMOOTH",
"349 837 OFFCURVE",
"349 840 OFFCURVE",
"350 843 CURVE",
"348 850 OFFCURVE",
"346 856 OFFCURVE",
"343 860 CURVE",
"340 861 OFFCURVE",
"338 862 OFFCURVE",
"336 863 CURVE SMOOTH",
"334 864 OFFCURVE",
"333 864 OFFCURVE",
"333 864 CURVE SMOOTH",
"332 864 OFFCURVE",
"332 864 OFFCURVE",
"332 863 CURVE",
"331 862 OFFCURVE",
"329 862 OFFCURVE",
"328 861 CURVE",
"319 845 OFFCURVE",
"314 831 OFFCURVE",
"311 817 CURVE SMOOTH",
"308 803 OFFCURVE",
"306 786 OFFCURVE",
"305 765 CURVE",
"297 693 OFFCURVE",
"293 646 OFFCURVE",
"293 623 CURVE SMOOTH",
"293 608 LINE SMOOTH",
"293 580 OFFCURVE",
"295 554 OFFCURVE",
"300 530 CURVE",
"301 529 OFFCURVE",
"301 527 OFFCURVE",
"302 526 CURVE",
"302 524 OFFCURVE",
"302 523 OFFCURVE",
"303 522 CURVE",
"302 523 LINE"
);
}
);
width = 1201;
}
);
unicode = 06C3;
},
{
glyphname = "thal-ar";
lastChange = "2013-06-18 07:06:41 +0330";
layers = (
{
layerId = "3D323242-F336-407C-B164-DE86AA499667";
name = "Regular";
paths = (
{
closed = 1;
nodes = (
"455 187 OFFCURVE",
"456 188 OFFCURVE",
"459 191 CURVE",
"461 195 OFFCURVE",
"465 199 OFFCURVE",
"468 203 CURVE",
"736 535 LINE",
"740 538 OFFCURVE",
"744 540 OFFCURVE",
"749 540 CURVE SMOOTH",
"753 540 OFFCURVE",
"758 538 OFFCURVE",
"759 535 CURVE",
"822 485 LINE SMOOTH",
"827 481 OFFCURVE",
"829 477 OFFCURVE",
"829 472 CURVE SMOOTH",
"829 469 OFFCURVE",
"828 465 OFFCURVE",
"825 461 CURVE",
"674 275 LINE",
"727 233 LINE SMOOTH",
"731 229 OFFCURVE",
"732 225 OFFCURVE",
"732 220 CURVE SMOOTH",
"732 216 OFFCURVE",
"731 212 OFFCURVE",
"729 209 CURVE",
"470 -110 LINE",
"463 -117 OFFCURVE",
"459 -121 OFFCURVE",
"456 -121 CURVE SMOOTH",
"450 -121 OFFCURVE",
"445 -117 OFFCURVE",
"439 -111 CURVE",
"179 209 LINE",
"177 212 OFFCURVE",
"176 216 OFFCURVE",
"176 220 CURVE SMOOTH",
"176 225 OFFCURVE",
"177 229 OFFCURVE",
"181 233 CURVE SMOOTH",
"234 275 LINE",
"83 461 LINE",
"80 465 OFFCURVE",
"79 469 OFFCURVE",
"79 472 CURVE SMOOTH",
"79 477 OFFCURVE",
"81 481 OFFCURVE",
"86 485 CURVE SMOOTH",
"149 535 LINE",
"150 538 OFFCURVE",
"155 540 OFFCURVE",
"159 540 CURVE SMOOTH",
"164 540 OFFCURVE",
"168 538 OFFCURVE",
"172 535 CURVE",
"441 200 LINE",
"454 187 LINE"
);
},
{
closed = 1;
nodes = (
"449 -72 OFFCURVE",
"451 -75 OFFCURVE",
"454 -75 CURVE SMOOTH",
"457 -75 OFFCURVE",
"459 -72 OFFCURVE",
"463 -66 CURVE",
"693 217 LINE",
"655 249 LINE",
"467 15 LINE",
"459 7 OFFCURVE",
"456 3 OFFCURVE",
"455 3 CURVE SMOOTH",
"454 3 OFFCURVE",
"449 5 OFFCURVE",
"443 14 CURVE",
"253 249 LINE",
"215 217 LINE",
"446 -67 LINE"
);
},
{
closed = 1;
nodes = (
"449 60 OFFCURVE",
"453 56 OFFCURVE",
"454 56 CURVE",
"466 70 LINE",
"789 469 LINE",
"751 500 LINE",
"467 148 LINE",
"459 141 OFFCURVE",
"455 136 OFFCURVE",
"454 136 CURVE SMOOTH",
"453 136 OFFCURVE",
"447 142 OFFCURVE",
"442 146 CURVE",
"157 500 LINE",
"119 469 LINE",
"443 69 LINE SMOOTH"
);
}
);
width = 908;
}
);
unicode = 0630;
},
{
glyphname = "theh-ar";
lastChange = "2013-06-12 03:10:53 +0330";
layers = (
{
layerId = "3D323242-F336-407C-B164-DE86AA499667";
name = "Regular";
paths = (
{
closed = 1;
nodes = (
"139 62 LINE",
"139 40 LINE",
"1061 40 LINE",
"1061 67 LINE",
"1054 68 OFFCURVE",
"1036 70 OFFCURVE",
"1006 71 CURVE SMOOTH",
"975 72 OFFCURVE",
"953 77 OFFCURVE",
"938 84 CURVE",
"772 176 LINE SMOOTH",
"709 212 OFFCURVE",
"649 258 OFFCURVE",
"588 306 CURVE SMOOTH",
"535 346 OFFCURVE",
"495 379 OFFCURVE",
"469 404 CURVE SMOOTH",
"463 410 OFFCURVE",
"455 419 OFFCURVE",
"444 431 CURVE SMOOTH",
"422 455 OFFCURVE",
"410 464 OFFCURVE",
"389 475 CURVE SMOOTH",
"378 481 OFFCURVE",
"367 484 OFFCURVE",
"354 484 CURVE SMOOTH",
"347 484 OFFCURVE",
"339 483 OFFCURVE",
"329 481 CURVE",
"304 475 OFFCURVE",
"285 464 OFFCURVE",
"270 448 CURVE",
"258 433 OFFCURVE",
"248 412 OFFCURVE",
"240 387 CURVE",
"243 388 OFFCURVE",
"245 389 OFFCURVE",
"247 390 CURVE SMOOTH",
"249 391 OFFCURVE",
"250 391 OFFCURVE",
"251 391 CURVE",
"257 393 OFFCURVE",
"262 394 OFFCURVE",
"267 394 CURVE SMOOTH",
"272 394 LINE",
"277 393 OFFCURVE",
"282 392 OFFCURVE",
"288 389 CURVE",
"308 380 OFFCURVE",
"317 363 OFFCURVE",
"325 343 CURVE",
"328 333 OFFCURVE",
"331 326 OFFCURVE",
"334 322 CURVE",
"336 318 OFFCURVE",
"337 314 OFFCURVE",
"337 311 CURVE SMOOTH",
"337 310 OFFCURVE",
"336 307 OFFCURVE",
"335 303 CURVE",
"332 297 OFFCURVE",
"327 293 OFFCURVE",
"320 291 CURVE",
"308 290 OFFCURVE",
"306 278 OFFCURVE",
"306 269 CURVE SMOOTH",
"306 263 LINE",
"307 262 OFFCURVE",
"308 259 OFFCURVE",
"308 258 CURVE",
"314 246 OFFCURVE",
"317 239 OFFCURVE",
"317 238 CURVE",
"320 235 OFFCURVE",
"323 229 OFFCURVE",
"327 222 CURVE",
"334 207 OFFCURVE",
"340 197 OFFCURVE",
"347 188 CURVE SMOOTH",
"364 165 OFFCURVE",
"378 150 OFFCURVE",
"400 125 CURVE SMOOTH",
"411 112 OFFCURVE",
"419 102 OFFCURVE",
"426 95 CURVE",
"429 90 OFFCURVE",
"431 86 OFFCURVE",
"431 82 CURVE SMOOTH",
"431 80 OFFCURVE",
"430 77 OFFCURVE",
"429 73 CURVE",
"425 66 OFFCURVE",
"419 62 OFFCURVE",
"410 62 CURVE SMOOTH"
);
},
{
closed = 1;
nodes = (
"366 102 LINE",
"347 123 OFFCURVE",
"330 144 OFFCURVE",
"315 163 CURVE SMOOTH",
"306 175 OFFCURVE",
"299 188 OFFCURVE",
"292 203 CURVE",
"288 210 OFFCURVE",
"285 216 OFFCURVE",
"282 219 CURVE",
"281 222 OFFCURVE",
"280 223 OFFCURVE",
"280 224 CURVE",
"272 240 LINE",
"269 247 OFFCURVE",
"268 252 OFFCURVE",
"267 257 CURVE",
"267 258 OFFCURVE",
"267 259 OFFCURVE",
"267 262 CURVE",
"266 265 OFFCURVE",
"266 267 OFFCURVE",
"266 269 CURVE SMOOTH",
"266 276 OFFCURVE",
"266 282 OFFCURVE",
"267 287 CURVE",
"267 288 OFFCURVE",
"267 289 OFFCURVE",
"268 290 CURVE",
"268 291 OFFCURVE",
"268 292 OFFCURVE",
"268 293 CURVE",
"275 306 OFFCURVE",
"282 316 OFFCURVE",
"290 321 CURVE",
"285 336 OFFCURVE",
"281 348 OFFCURVE",
"270 353 CURVE",
"270 353 OFFCURVE",
"270 353 OFFCURVE",
"269 354 CURVE",
"268 354 OFFCURVE",
"268 354 OFFCURVE",
"267 354 CURVE SMOOTH",
"265 354 OFFCURVE",
"264 354 OFFCURVE",
"263 353 CURVE",
"261 353 LINE",
"260 352 OFFCURVE",
"256 351 OFFCURVE",
"251 349 CURVE",
"246 346 OFFCURVE",
"242 344 OFFCURVE",
"239 343 CURVE",
"236 333 LINE",
"234 324 OFFCURVE",
"228 319 OFFCURVE",
"218 319 CURVE SMOOTH",
"215 319 LINE",
"204 320 OFFCURVE",
"198 327 OFFCURVE",
"197 338 CURVE",
"197 341 OFFCURVE",
"197 345 OFFCURVE",
"196 351 CURVE SMOOTH",
"195 356 OFFCURVE",
"194 361 OFFCURVE",
"194 365 CURVE SMOOTH",
"194 372 OFFCURVE",
"195 377 OFFCURVE",
"196 381 CURVE",
"200 393 OFFCURVE",
"204 404 OFFCURVE",
"207 414 CURVE SMOOTH",
"213 433 OFFCURVE",
"224 455 OFFCURVE",
"240 474 CURVE",
"261 497 OFFCURVE",
"288 512 OFFCURVE",
"321 520 CURVE",
"331 523 OFFCURVE",
"342 524 OFFCURVE",
"354 524 CURVE SMOOTH",
"391 524 OFFCURVE",
"423 504 OFFCURVE",
"442 489 CURVE",
"451 481 OFFCURVE",
"462 471 OFFCURVE",
"473 459 CURVE",
"484 446 OFFCURVE",
"491 438 OFFCURVE",
"496 433 CURVE SMOOTH",
"518 412 OFFCURVE",
"541 392 OFFCURVE",
"566 373 CURVE",
"746 618 LINE",
"753 625 LINE",
"756 629 OFFCURVE",
"762 632 OFFCURVE",
"766 632 CURVE SMOOTH",
"770 632 OFFCURVE",
"774 629 OFFCURVE",
"779 623 CURVE SMOOTH",
"1086 250 LINE",
"1091 247 OFFCURVE",
"1093 242 OFFCURVE",
"1093 238 CURVE SMOOTH",
"1093 235 OFFCURVE",
"1092 232 OFFCURVE",
"1090 229 CURVE",
"1090 228 LINE",
"1087 225 OFFCURVE",
"1085 224 OFFCURVE",
"1082 224 CURVE SMOOTH",
"1082 224 OFFCURVE",
"1081 225 OFFCURVE",
"1079 226 CURVE",
"1076 227 OFFCURVE",
"1071 228 OFFCURVE",
"1063 230 CURVE SMOOTH",
"1054 232 OFFCURVE",
"1043 234 OFFCURVE",
"1029 235 CURVE",
"1046 197 LINE",
"1050 186 OFFCURVE",
"1039 175 OFFCURVE",
"1032 183 CURVE SMOOTH",
"1004 217 LINE",
"1003 193 OFFCURVE",
"1002 180 OFFCURVE",
"1000 172 CURVE SMOOTH",
"999 168 OFFCURVE",
"996 165 OFFCURVE",
"993 162 CURVE",
"993 162 OFFCURVE",
"993 162 OFFCURVE",
"993 162 CURVE",
"992 161 OFFCURVE",
"992 161 OFFCURVE",
"991 161 CURVE",
"990 160 OFFCURVE",
"987 159 OFFCURVE",
"983 159 CURVE SMOOTH",
"979 159 OFFCURVE",
"975 161 OFFCURVE",
"972 164 CURVE",
"759 561 LINE",
"598 348 LINE",
"612 338 LINE",
"668 294 OFFCURVE",
"728 248 OFFCURVE",
"791 211 CURVE SMOOTH",
"956 119 LINE",
"969 113 OFFCURVE",
"987 110 OFFCURVE",
"1010 110 CURVE SMOOTH",
"1011 110 OFFCURVE",
"1014 110 OFFCURVE",
"1017 110 CURVE SMOOTH",
"1020 110 OFFCURVE",
"1023 110 OFFCURVE",
"1025 110 CURVE SMOOTH",
"1049 110 OFFCURVE",
"1069 107 OFFCURVE",
"1086 101 CURVE SMOOTH",
"1095 98 OFFCURVE",
"1099 92 OFFCURVE",
"1100 83 CURVE",
"1100 21 LINE SMOOTH",
"1100 20 OFFCURVE",
"1100 18 OFFCURVE",
"1101 17 CURVE",
"1101 15 OFFCURVE",
"1101 14 OFFCURVE",
"1101 13 CURVE SMOOTH",
"1101 10 OFFCURVE",
"1100 7 OFFCURVE",
"1098 6 CURVE",
"1094 2 OFFCURVE",
"1089 0 OFFCURVE",
"1084 0 CURVE SMOOTH",
"117 0 LINE SMOOTH",
"116 0 OFFCURVE",
"115 0 OFFCURVE",
"114 0 CURVE SMOOTH",
"112 0 OFFCURVE",
"111 0 OFFCURVE",
"110 0 CURVE SMOOTH",
"103 0 OFFCURVE",
"100 4 OFFCURVE",
"100 9 CURVE SMOOTH",
"100 10 OFFCURVE",
"100 12 OFFCURVE",
"101 17 CURVE",
"101 83 LINE SMOOTH",
"101 94 OFFCURVE",
"110 102 OFFCURVE",
"121 102 CURVE SMOOTH"
);
},
{
closed = 1;
nodes = (
"362 461 OFFCURVE",
"374 445 OFFCURVE",
"374 428 CURVE SMOOTH",
"374 412 OFFCURVE",
"360 399 OFFCURVE",
"344 399 CURVE SMOOTH",
"327 399 OFFCURVE",
"312 411 OFFCURVE",
"312 427 CURVE SMOOTH",
"312 446 OFFCURVE",
"326 461 OFFCURVE",
"345 461 CURVE SMOOTH"
);
},
{
closed = 1;
nodes = (
"970 256 LINE",
"973 257 OFFCURVE",
"975 258 OFFCURVE",
"978 258 CURVE SMOOTH",
"983 258 OFFCURVE",
"990 256 OFFCURVE",
"997 253 CURVE",
"999 271 OFFCURVE",
"1000 280 OFFCURVE",
"1001 280 CURVE SMOOTH",
"1002 280 OFFCURVE",
"1005 279 OFFCURVE",
"1011 276 CURVE SMOOTH",
"1017 273 OFFCURVE",
"1024 270 OFFCURVE",
"1032 269 CURVE",
"841 492 LINE",
"973 225 LINE"
);
}
);
width = 1201;
}
);
unicode = 062B;
},
{
glyphname = "waw-ar";
lastChange = "2013-06-18 07:05:06 +0330";
layers = (
{
layerId = "3D323242-F336-407C-B164-DE86AA499667";
name = "Regular";
paths = (
{
closed = 1;
nodes = (
"125 238 OFFCURVE",
"90 293 OFFCURVE",
"60 343 CURVE SMOOTH",
"30 393 OFFCURVE",
"5 461 OFFCURVE",
"5 518 CURVE SMOOTH",
"5 595 OFFCURVE",
"41 651 OFFCURVE",
"93 676 CURVE SMOOTH",
"118 688 OFFCURVE",
"146 694 OFFCURVE",
"175 694 CURVE SMOOTH",
"234 694 OFFCURVE",
"289 669 OFFCURVE",
"317 622 CURVE SMOOTH",
"336 591 OFFCURVE",
"345 557 OFFCURVE",
"345 518 CURVE SMOOTH",
"345 461 OFFCURVE",
"321 393 OFFCURVE",
"291 343 CURVE SMOOTH",
"261 293 OFFCURVE",
"225 238 OFFCURVE",
"202 209 CURVE",
"220 184 OFFCURVE",
"246 152 OFFCURVE",
"279 113 CURVE SMOOTH",
"312 74 OFFCURVE",
"334 49 OFFCURVE",
"345 36 CURVE",
"348 31 OFFCURVE",
"350 27 OFFCURVE",
"350 22 CURVE SMOOTH",
"350 7 OFFCURVE",
"339 0 OFFCURVE",
"327 0 CURVE SMOOTH",
"319 0 OFFCURVE",
"313 3 OFFCURVE",
"310 8 CURVE",
"302 17 OFFCURVE",
"282 41 OFFCURVE",
"250 78 CURVE SMOOTH",
"217 115 OFFCURVE",
"192 146 OFFCURVE",
"175 170 CURVE",
"158 146 OFFCURVE",
"133 115 OFFCURVE",
"101 78 CURVE SMOOTH",
"68 41 OFFCURVE",
"48 17 OFFCURVE",
"40 8 CURVE",
"37 3 OFFCURVE",
"31 0 OFFCURVE",
"23 0 CURVE SMOOTH",
"11 0 OFFCURVE",
"0 7 OFFCURVE",
"0 22 CURVE SMOOTH",
"0 27 OFFCURVE",
"2 31 OFFCURVE",
"5 36 CURVE",
"16 49 OFFCURVE",
"38 74 OFFCURVE",
"71 113 CURVE SMOOTH",
"104 152 OFFCURVE",
"130 184 OFFCURVE",
"148 209 CURVE"
);
},
{
closed = 1;
nodes = (
"259 632 OFFCURVE",
"224 649 OFFCURVE",
"175 649 CURVE SMOOTH",
"76 649 OFFCURVE",
"50 578 OFFCURVE",
"50 518 CURVE SMOOTH",
"50 486 OFFCURVE",
"58 451 OFFCURVE",
"71 421 CURVE SMOOTH",
"83 391 OFFCURVE",
"102 357 OFFCURVE",
"120 329 CURVE SMOOTH",
"138 301 OFFCURVE",
"158 272 OFFCURVE",
"175 248 CURVE",
"192 272 OFFCURVE",
"213 301 OFFCURVE",
"231 329 CURVE SMOOTH",
"249 357 OFFCURVE",
"267 391 OFFCURVE",
"280 421 CURVE SMOOTH",
"292 451 OFFCURVE",
"300 486 OFFCURVE",
"300 518 CURVE SMOOTH",
"300 548 OFFCURVE",
"293 575 OFFCURVE",
"278 599 CURVE"
);
}
);
width = 350;
}
);
unicode = 0648;
},
{
glyphname = "wawHamzaabove-ar";
lastChange = "2013-06-18 07:05:23 +0330";
layers = (
{
layerId = "3D323242-F336-407C-B164-DE86AA499667";
name = "Regular";
paths = (
{
closed = 1;
nodes = (
"125 238 OFFCURVE",
"90 293 OFFCURVE",
"60 343 CURVE SMOOTH",
"30 393 OFFCURVE",
"5 461 OFFCURVE",
"5 518 CURVE SMOOTH",
"5 595 OFFCURVE",
"41 651 OFFCURVE",
"93 676 CURVE SMOOTH",
"118 688 OFFCURVE",
"146 694 OFFCURVE",
"175 694 CURVE SMOOTH",
"234 694 OFFCURVE",
"289 669 OFFCURVE",
"317 622 CURVE SMOOTH",
"336 591 OFFCURVE",
"345 557 OFFCURVE",
"345 518 CURVE SMOOTH",
"345 461 OFFCURVE",
"321 393 OFFCURVE",
"291 343 CURVE SMOOTH",
"261 293 OFFCURVE",
"225 238 OFFCURVE",
"202 209 CURVE",
"220 184 OFFCURVE",
"246 152 OFFCURVE",
"279 113 CURVE SMOOTH",
"312 74 OFFCURVE",
"334 49 OFFCURVE",
"345 36 CURVE",
"348 31 OFFCURVE",
"350 27 OFFCURVE",
"350 22 CURVE SMOOTH",
"350 7 OFFCURVE",
"339 0 OFFCURVE",
"327 0 CURVE SMOOTH",
"319 0 OFFCURVE",
"313 3 OFFCURVE",
"310 8 CURVE",
"302 17 OFFCURVE",
"282 41 OFFCURVE",
"250 78 CURVE SMOOTH",
"217 115 OFFCURVE",
"192 146 OFFCURVE",
"175 170 CURVE",
"158 146 OFFCURVE",
"133 115 OFFCURVE",
"101 78 CURVE SMOOTH",
"68 41 OFFCURVE",
"48 17 OFFCURVE",
"40 8 CURVE",
"37 3 OFFCURVE",
"31 0 OFFCURVE",
"23 0 CURVE SMOOTH",
"11 0 OFFCURVE",
"0 7 OFFCURVE",
"0 22 CURVE SMOOTH",
"0 27 OFFCURVE",
"2 31 OFFCURVE",
"5 36 CURVE",
"16 49 OFFCURVE",
"38 74 OFFCURVE",
"71 113 CURVE SMOOTH",
"104 152 OFFCURVE",
"130 184 OFFCURVE",
"148 209 CURVE"
);
},
{
closed = 1;
nodes = (
"259 632 OFFCURVE",
"224 649 OFFCURVE",
"175 649 CURVE SMOOTH",
"76 649 OFFCURVE",
"50 578 OFFCURVE",
"50 518 CURVE SMOOTH",
"50 486 OFFCURVE",
"58 451 OFFCURVE",
"71 421 CURVE SMOOTH",
"83 391 OFFCURVE",
"102 357 OFFCURVE",
"120 329 CURVE SMOOTH",
"138 301 OFFCURVE",
"158 272 OFFCURVE",
"175 248 CURVE",
"192 272 OFFCURVE",
"213 301 OFFCURVE",
"231 329 CURVE SMOOTH",
"249 357 OFFCURVE",
"267 391 OFFCURVE",
"280 421 CURVE SMOOTH",
"292 451 OFFCURVE",
"300 486 OFFCURVE",
"300 518 CURVE SMOOTH",
"300 548 OFFCURVE",
"293 575 OFFCURVE",
"278 599 CURVE"
);
}
);
width = 350;
}
);
unicode = 0624;
},
{
glyphname = "yeh-ar";
lastChange = "2013-06-18 09:38:29 +0330";
layers = (
{
layerId = "3D323242-F336-407C-B164-DE86AA499667";
name = "Regular";
paths = (
{
closed = 1;
nodes = (
"588 -1 OFFCURVE",
"583 -1 OFFCURVE",
"579 1 CURVE",
"150 1 LINE",
"277 -297 LINE",
"476 -297 LINE",
"602 1 LINE",
"593 1 LINE"
);
},
{
closed = 1;
nodes = (
"729 179 LINE SMOOTH",
"732 182 OFFCURVE",
"736 184 OFFCURVE",
"741 184 CURVE SMOOTH",
"750 184 OFFCURVE",
"759 175 OFFCURVE",
"759 166 CURVE SMOOTH",
"759 161 OFFCURVE",
"757 157 OFFCURVE",
"753 154 CURVE",
"636 41 LINE",
"641 40 OFFCURVE",
"646 38 OFFCURVE",
"649 33 CURVE",
"649 32 OFFCURVE",
"649 32 OFFCURVE",
"650 32 CURVE",
"835 119 LINE",
"839 120 OFFCURVE",
"842 121 OFFCURVE",
"843 121 CURVE SMOOTH",
"850 121 OFFCURVE",
"856 118 OFFCURVE",
"859 111 CURVE",
"860 109 OFFCURVE",
"860 106 OFFCURVE",
"860 103 CURVE SMOOTH",
"860 96 OFFCURVE",
"857 91 OFFCURVE",
"850 88 CURVE",
"641 -11 LINE",
"640 -11 LINE",
"507 -324 LINE",
"504 -333 OFFCURVE",
"498 -337 OFFCURVE",
"489 -337 CURVE SMOOTH",
"263 -337 LINE SMOOTH",
"254 -337 OFFCURVE",
"248 -333 OFFCURVE",
"245 -325 CURVE",
"102 13 LINE",
"101 15 OFFCURVE",
"100 18 OFFCURVE",
"100 21 CURVE SMOOTH",
"100 28 OFFCURVE",
"105 41 OFFCURVE",
"120 41 CURVE SMOOTH",
"586 42 LINE"
);
}
);
width = 910;
}
);
unicode = 064A;
},
{
glyphname = "yeh-farsi";
lastChange = "2013-06-18 09:38:34 +0330";
layers = (
{
layerId = "3D323242-F336-407C-B164-DE86AA499667";
name = "Regular";
paths = (
{
closed = 1;
nodes = (
"588 -1 OFFCURVE",
"583 -1 OFFCURVE",
"579 1 CURVE",
"150 1 LINE",
"277 -297 LINE",
"476 -297 LINE",
"602 1 LINE",
"593 1 LINE"
);
},
{
closed = 1;
nodes = (
"729 179 LINE SMOOTH",
"732 182 OFFCURVE",
"736 184 OFFCURVE",
"741 184 CURVE SMOOTH",
"750 184 OFFCURVE",
"759 175 OFFCURVE",
"759 166 CURVE SMOOTH",
"759 161 OFFCURVE",
"757 157 OFFCURVE",
"753 154 CURVE",
"636 41 LINE",
"641 40 OFFCURVE",
"646 38 OFFCURVE",
"649 33 CURVE",
"649 32 OFFCURVE",
"649 32 OFFCURVE",
"650 32 CURVE",
"835 119 LINE",
"839 120 OFFCURVE",
"842 121 OFFCURVE",
"843 121 CURVE SMOOTH",
"850 121 OFFCURVE",
"856 118 OFFCURVE",
"859 111 CURVE",
"860 109 OFFCURVE",
"860 106 OFFCURVE",
"860 103 CURVE SMOOTH",
"860 96 OFFCURVE",
"857 91 OFFCURVE",
"850 88 CURVE",
"641 -11 LINE",
"640 -11 LINE",
"507 -324 LINE",
"504 -333 OFFCURVE",
"498 -337 OFFCURVE",
"489 -337 CURVE SMOOTH",
"263 -337 LINE SMOOTH",
"254 -337 OFFCURVE",
"248 -333 OFFCURVE",
"245 -325 CURVE",
"102 13 LINE",
"101 15 OFFCURVE",
"100 18 OFFCURVE",
"100 21 CURVE SMOOTH",
"100 28 OFFCURVE",
"105 41 OFFCURVE",
"120 41 CURVE SMOOTH",
"586 42 LINE"
);
}
);
width = 910;
}
);
unicode = 06CC;
},
{
glyphname = "yehHamzaabove-ar";
lastChange = "2013-06-18 09:38:46 +0330";
layers = (
{
layerId = "3D323242-F336-407C-B164-DE86AA499667";
name = "Regular";
paths = (
{
closed = 1;
nodes = (
"588 -1 OFFCURVE",
"583 -1 OFFCURVE",
"579 1 CURVE",
"150 1 LINE",
"277 -297 LINE",
"476 -297 LINE",
"602 1 LINE",
"593 1 LINE"
);
},
{
closed = 1;
nodes = (
"729 179 LINE SMOOTH",
"732 182 OFFCURVE",
"736 184 OFFCURVE",
"741 184 CURVE SMOOTH",
"750 184 OFFCURVE",
"759 175 OFFCURVE",
"759 166 CURVE SMOOTH",
"759 161 OFFCURVE",
"757 157 OFFCURVE",
"753 154 CURVE",
"636 41 LINE",
"641 40 OFFCURVE",
"646 38 OFFCURVE",
"649 33 CURVE",
"649 32 OFFCURVE",
"649 32 OFFCURVE",
"650 32 CURVE",
"835 119 LINE",
"839 120 OFFCURVE",
"842 121 OFFCURVE",
"843 121 CURVE SMOOTH",
"850 121 OFFCURVE",
"856 118 OFFCURVE",
"859 111 CURVE",
"860 109 OFFCURVE",
"860 106 OFFCURVE",
"860 103 CURVE SMOOTH",
"860 96 OFFCURVE",
"857 91 OFFCURVE",
"850 88 CURVE",
"641 -11 LINE",
"640 -11 LINE",
"507 -324 LINE",
"504 -333 OFFCURVE",
"498 -337 OFFCURVE",
"489 -337 CURVE SMOOTH",
"263 -337 LINE SMOOTH",
"254 -337 OFFCURVE",
"248 -333 OFFCURVE",
"245 -325 CURVE",
"102 13 LINE",
"101 15 OFFCURVE",
"100 18 OFFCURVE",
"100 21 CURVE SMOOTH",
"100 28 OFFCURVE",
"105 41 OFFCURVE",
"120 41 CURVE SMOOTH",
"586 42 LINE"
);
}
);
width = 910;
}
);
unicode = 0626;
},
{
glyphname = "zah-ar";
lastChange = "2013-06-18 07:03:52 +0330";
layers = (
{
layerId = "3D323242-F336-407C-B164-DE86AA499667";
name = "Regular";
paths = (
{
closed = 1;
nodes = (
"40 129 LINE",
"40 40 LINE",
"558 40 LINE",
"558 129 LINE"
);
},
{
closed = 1;
nodes = (
"578 169 LINE SMOOTH",
"591 169 OFFCURVE",
"598 162 OFFCURVE",
"598 149 CURVE SMOOTH",
"598 20 LINE SMOOTH",
"598 7 OFFCURVE",
"591 0 OFFCURVE",
"578 0 CURVE SMOOTH",
"20 0 LINE SMOOTH",
"7 0 OFFCURVE",
"0 7 OFFCURVE",
"0 20 CURVE SMOOTH",
"0 149 LINE SMOOTH",
"0 162 OFFCURVE",
"7 169 OFFCURVE",
"20 169 CURVE SMOOTH",
"227 169 LINE",
"228 170 OFFCURVE",
"228 170 OFFCURVE",
"228 170 CURVE",
"228 171 OFFCURVE",
"228 172 OFFCURVE",
"229 172 CURVE",
"437 531 LINE",
"479 505 LINE",
"479 504 LINE",
"288 169 LINE"
);
}
);
width = 598;
}
);
unicode = 0638;
},
{
glyphname = "zero";
lastChange = "2013-06-18 05:11:21 +0330";
layers = (
{
layerId = "3D323242-F336-407C-B164-DE86AA499667";
name = "Regular";
paths = (
{
closed = 1;
nodes = (
"429 60 OFFCURVE",
"379 12 OFFCURVE",
"306 12 CURVE SMOOTH",
"233 12 OFFCURVE",
"183 59 OFFCURVE",
"183 132 CURVE SMOOTH",
"183 208 OFFCURVE",
"233 259 OFFCURVE",
"309 259 CURVE SMOOTH",
"382 259 OFFCURVE",
"429 208 OFFCURVE",
"429 133 CURVE SMOOTH"
);
},
{
closed = 1;
nodes = (
"127 -27 LINE",
"522 259 LINE",
"496 295 LINE",
"100 9 LINE"
);
}
);
width = 622;
}
);
unicode = 0030;
},
{
glyphname = "one";
lastChange = "2013-06-18 05:11:26 +0330";
layers = (
{
layerId = "3D323242-F336-407C-B164-DE86AA499667";
name = "Regular";
paths = (
{
closed = 1;
nodes = (
"371 60 OFFCURVE",
"309 0 OFFCURVE",
"236 0 CURVE SMOOTH",
"163 0 OFFCURVE",
"100 59 OFFCURVE",
"100 132 CURVE SMOOTH",
"100 208 OFFCURVE",
"163 271 OFFCURVE",
"239 271 CURVE SMOOTH",
"312 271 OFFCURVE",
"371 208 OFFCURVE",
"371 133 CURVE SMOOTH"
);
}
);
width = 471;
}
);
unicode = 0031;
},
{
glyphname = "two";
lastChange = "2013-06-18 04:53:56 +0330";
layers = (
{
layerId = "3D323242-F336-407C-B164-DE86AA499667";
name = "Regular";
paths = (
{
closed = 1;
nodes = (
"347 55 OFFCURVE",
"290 0 OFFCURVE",
"224 0 CURVE SMOOTH",
"158 0 OFFCURVE",
"100 54 OFFCURVE",
"100 120 CURVE SMOOTH",
"100 189 OFFCURVE",
"158 247 OFFCURVE",
"227 247 CURVE SMOOTH",
"293 247 OFFCURVE",
"347 189 OFFCURVE",
"347 121 CURVE SMOOTH"
);
},
{
closed = 1;
nodes = (
"347 355 OFFCURVE",
"290 300 OFFCURVE",
"224 300 CURVE SMOOTH",
"158 300 OFFCURVE",
"100 354 OFFCURVE",
"100 420 CURVE SMOOTH",
"100 489 OFFCURVE",
"158 547 OFFCURVE",
"227 547 CURVE SMOOTH",
"293 547 OFFCURVE",
"347 489 OFFCURVE",
"347 421 CURVE SMOOTH"
);
}
);
width = 447;
}
);
unicode = 0032;
},
{
glyphname = "three";
lastChange = "2013-06-18 04:54:02 +0330";
layers = (
{
layerId = "3D323242-F336-407C-B164-DE86AA499667";
name = "Regular";
paths = (
{
closed = 1;
nodes = (
"347 55 OFFCURVE",
"290 0 OFFCURVE",
"224 0 CURVE SMOOTH",
"158 0 OFFCURVE",
"100 54 OFFCURVE",
"100 120 CURVE SMOOTH",
"100 189 OFFCURVE",
"158 247 OFFCURVE",
"227 247 CURVE SMOOTH",
"293 247 OFFCURVE",
"347 189 OFFCURVE",
"347 121 CURVE SMOOTH"
);
},
{
closed = 1;
nodes = (
"747 55 OFFCURVE",
"690 0 OFFCURVE",
"624 0 CURVE SMOOTH",
"558 0 OFFCURVE",
"500 54 OFFCURVE",
"500 120 CURVE SMOOTH",
"500 189 OFFCURVE",
"558 247 OFFCURVE",
"627 247 CURVE SMOOTH",
"693 247 OFFCURVE",
"747 189 OFFCURVE",
"747 121 CURVE SMOOTH"
);
},
{
closed = 1;
nodes = (
"557 351 OFFCURVE",
"500 296 OFFCURVE",
"434 296 CURVE SMOOTH",
"368 296 OFFCURVE",
"310 350 OFFCURVE",
"310 416 CURVE SMOOTH",
"310 485 OFFCURVE",
"368 543 OFFCURVE",
"437 543 CURVE SMOOTH",
"503 543 OFFCURVE",
"557 485 OFFCURVE",
"557 417 CURVE SMOOTH"
);
}
);
width = 847;
}
);
unicode = 0033;
},
{
glyphname = "four";
lastChange = "2013-06-18 05:11:31 +0330";
layers = (
{
layerId = "3D323242-F336-407C-B164-DE86AA499667";
name = "Regular";
paths = (
{
closed = 1;
nodes = (
"325 279 OFFCURVE",
"273 229 OFFCURVE",
"213 229 CURVE SMOOTH",
"153 229 OFFCURVE",
"100 278 OFFCURVE",
"100 338 CURVE SMOOTH",
"100 401 OFFCURVE",
"153 454 OFFCURVE",
"216 454 CURVE SMOOTH",
"276 454 OFFCURVE",
"325 401 OFFCURVE",
"325 339 CURVE SMOOTH"
);
},
{
closed = 1;
nodes = (
"689 279 OFFCURVE",
"637 229 OFFCURVE",
"577 229 CURVE SMOOTH",
"517 229 OFFCURVE",
"464 278 OFFCURVE",
"464 338 CURVE SMOOTH",
"464 401 OFFCURVE",
"517 454 OFFCURVE",
"580 454 CURVE SMOOTH",
"640 454 OFFCURVE",
"689 401 OFFCURVE",
"689 339 CURVE SMOOTH"
);
},
{
closed = 1;
nodes = (
"516 504 OFFCURVE",
"464 454 OFFCURVE",
"404 454 CURVE SMOOTH",
"344 454 OFFCURVE",
"291 503 OFFCURVE",
"291 563 CURVE SMOOTH",
"291 625 OFFCURVE",
"344 678 OFFCURVE",
"407 678 CURVE SMOOTH",
"467 678 OFFCURVE",
"516 625 OFFCURVE",
"516 564 CURVE SMOOTH"
);
},
{
closed = 1;
nodes = (
"516 50 OFFCURVE",
"464 0 OFFCURVE",
"404 0 CURVE SMOOTH",
"344 0 OFFCURVE",
"291 49 OFFCURVE",
"291 109 CURVE SMOOTH",
"291 172 OFFCURVE",
"344 224 OFFCURVE",
"407 224 CURVE SMOOTH",
"467 224 OFFCURVE",
"516 172 OFFCURVE",
"516 110 CURVE SMOOTH"
);
}
);
width = 789;
}
);
unicode = 0034;
},
{
glyphname = "five";
lastChange = "2013-06-18 04:54:09 +0330";
layers = (
{
layerId = "3D323242-F336-407C-B164-DE86AA499667";
name = "Regular";
paths = (
{
closed = 1;
nodes = (
"389 0 OFFCURVE",
"384 5 OFFCURVE",
"384 18 CURVE",
"404 391 LINE",
"347 398 OFFCURVE",
"312 406 OFFCURVE",
"283 420 CURVE SMOOTH",
"243 439 OFFCURVE",
"209 462 OFFCURVE",
"163 500 CURVE SMOOTH",
"163 500 OFFCURVE",
"147 513 OFFCURVE",
"107 544 CURVE",
"102 547 OFFCURVE",
"100 551 OFFCURVE",
"100 558 CURVE SMOOTH",
"100 562 OFFCURVE",
"101 565 OFFCURVE",
"101 567 CURVE",
"104 575 OFFCURVE",
"109 578 OFFCURVE",
"117 578 CURVE SMOOTH",
"118 578 OFFCURVE",
"119 578 OFFCURVE",
"120 577 CURVE",
"121 577 OFFCURVE",
"122 577 OFFCURVE",
"123 577 CURVE",
"151 568 OFFCURVE",
"163 564 OFFCURVE",
"182 558 CURVE SMOOTH",
"211 548 OFFCURVE",
"228 543 OFFCURVE",
"243 538 CURVE SMOOTH",
"293 525 OFFCURVE",
"320 518 OFFCURVE",
"337 516 CURVE SMOOTH",
"346 512 OFFCURVE",
"367 509 OFFCURVE",
"411 507 CURVE",
"431 888 LINE SMOOTH",
"432 901 OFFCURVE",
"443 906 OFFCURVE",
"468 906 CURVE SMOOTH",
"491 906 OFFCURVE",
"500 901 OFFCURVE",
"501 888 CURVE SMOOTH",
"521 509 LINE",
"601 516 OFFCURVE",
"661 529 OFFCURVE",
"732 553 CURVE SMOOTH",
"752 560 OFFCURVE",
"774 567 OFFCURVE",
"809 578 CURVE",
"810 578 OFFCURVE",
"811 578 OFFCURVE",
"814 578 CURVE SMOOTH",
"822 578 OFFCURVE",
"827 575 OFFCURVE",
"831 568 CURVE",
"831 565 OFFCURVE",
"832 562 OFFCURVE",
"832 560 CURVE SMOOTH",
"832 553 OFFCURVE",
"830 549 OFFCURVE",
"824 546 CURVE",
"815 539 OFFCURVE",
"804 530 OFFCURVE",
"768 502 CURVE SMOOTH",
"722 464 OFFCURVE",
"688 441 OFFCURVE",
"648 422 CURVE SMOOTH",
"620 408 OFFCURVE",
"585 400 OFFCURVE",
"528 393 CURVE",
"548 19 LINE",
"548 5 OFFCURVE",
"543 0 OFFCURVE",
"531 0 CURVE SMOOTH",
"531 0 OFFCURVE",
"531 0 OFFCURVE",
"530 0 CURVE SMOOTH",
"401 0 LINE SMOOTH"
);
}
);
width = 932;
}
);
unicode = 0035;
},
{
glyphname = "six";
lastChange = "2013-06-18 05:02:47 +0330";
layers = (
{
layerId = "3D323242-F336-407C-B164-DE86AA499667";
name = "Regular";
paths = (
{
closed = 1;
nodes = (
"741 623 OFFCURVE",
"694 577 OFFCURVE",
"639 577 CURVE SMOOTH",
"584 577 OFFCURVE",
"536 622 OFFCURVE",
"536 676 CURVE SMOOTH",
"536 734 OFFCURVE",
"584 782 OFFCURVE",
"642 782 CURVE SMOOTH",
"696 782 OFFCURVE",
"741 734 OFFCURVE",
"741 677 CURVE SMOOTH"
);
},
{
closed = 1;
nodes = (
"389 0 OFFCURVE",
"384 5 OFFCURVE",
"384 18 CURVE",
"404 391 LINE",
"347 398 OFFCURVE",
"312 406 OFFCURVE",
"283 420 CURVE SMOOTH",
"243 439 OFFCURVE",
"209 462 OFFCURVE",
"163 500 CURVE SMOOTH",
"163 500 OFFCURVE",
"147 513 OFFCURVE",
"107 544 CURVE",
"102 547 OFFCURVE",
"100 551 OFFCURVE",
"100 558 CURVE SMOOTH",
"100 562 OFFCURVE",
"101 565 OFFCURVE",
"101 567 CURVE",
"104 575 OFFCURVE",
"109 578 OFFCURVE",
"117 578 CURVE SMOOTH",
"118 578 OFFCURVE",
"119 578 OFFCURVE",
"120 577 CURVE",
"121 577 OFFCURVE",
"122 577 OFFCURVE",
"123 577 CURVE",
"151 568 OFFCURVE",
"163 564 OFFCURVE",
"182 558 CURVE SMOOTH",
"211 548 OFFCURVE",
"228 543 OFFCURVE",
"243 538 CURVE SMOOTH",
"293 525 OFFCURVE",
"320 518 OFFCURVE",
"337 516 CURVE SMOOTH",
"346 512 OFFCURVE",
"367 509 OFFCURVE",
"411 507 CURVE",
"431 888 LINE SMOOTH",
"432 901 OFFCURVE",
"443 906 OFFCURVE",
"468 906 CURVE SMOOTH",
"491 906 OFFCURVE",
"500 901 OFFCURVE",
"501 888 CURVE SMOOTH",
"521 509 LINE",
"601 516 OFFCURVE",
"661 529 OFFCURVE",
"732 553 CURVE SMOOTH",
"752 560 OFFCURVE",
"774 567 OFFCURVE",
"809 578 CURVE",
"810 578 OFFCURVE",
"811 578 OFFCURVE",
"814 578 CURVE SMOOTH",
"822 578 OFFCURVE",
"827 575 OFFCURVE",
"831 568 CURVE",
"831 565 OFFCURVE",
"832 562 OFFCURVE",
"832 560 CURVE SMOOTH",
"832 553 OFFCURVE",
"830 549 OFFCURVE",
"824 546 CURVE",
"815 539 OFFCURVE",
"804 530 OFFCURVE",
"768 502 CURVE SMOOTH",
"722 464 OFFCURVE",
"688 441 OFFCURVE",
"648 422 CURVE SMOOTH",
"620 408 OFFCURVE",
"585 400 OFFCURVE",
"528 393 CURVE",
"548 19 LINE",
"548 5 OFFCURVE",
"543 0 OFFCURVE",
"531 0 CURVE SMOOTH",
"531 0 OFFCURVE",
"531 0 OFFCURVE",
"530 0 CURVE SMOOTH",
"401 0 LINE SMOOTH"
);
}
);
width = 932;
}
);
unicode = 0036;
},
{
glyphname = "seven";
lastChange = "2013-06-18 05:03:27 +0330";
layers = (
{
layerId = "3D323242-F336-407C-B164-DE86AA499667";
name = "Regular";
paths = (
{
closed = 1;
nodes = (
"741 623 OFFCURVE",
"694 577 OFFCURVE",
"639 577 CURVE SMOOTH",
"584 577 OFFCURVE",
"536 622 OFFCURVE",
"536 676 CURVE SMOOTH",
"536 734 OFFCURVE",
"584 782 OFFCURVE",
"642 782 CURVE SMOOTH",
"696 782 OFFCURVE",
"741 734 OFFCURVE",
"741 677 CURVE SMOOTH"
);
},
{
closed = 1;
nodes = (
"398 624 OFFCURVE",
"351 578 OFFCURVE",
"296 578 CURVE SMOOTH",
"241 578 OFFCURVE",
"193 623 OFFCURVE",
"193 677 CURVE SMOOTH",
"193 735 OFFCURVE",
"241 783 OFFCURVE",
"299 783 CURVE SMOOTH",
"353 783 OFFCURVE",
"398 735 OFFCURVE",
"398 678 CURVE SMOOTH"
);
},
{
closed = 1;
nodes = (
"389 0 OFFCURVE",
"384 5 OFFCURVE",
"384 18 CURVE",
"404 391 LINE",
"347 398 OFFCURVE",
"312 406 OFFCURVE",
"283 420 CURVE SMOOTH",
"243 439 OFFCURVE",
"209 462 OFFCURVE",
"163 500 CURVE SMOOTH",
"163 500 OFFCURVE",
"147 513 OFFCURVE",
"107 544 CURVE",
"102 547 OFFCURVE",
"100 551 OFFCURVE",
"100 558 CURVE SMOOTH",
"100 562 OFFCURVE",
"101 565 OFFCURVE",
"101 567 CURVE",
"104 575 OFFCURVE",
"109 578 OFFCURVE",
"117 578 CURVE SMOOTH",
"118 578 OFFCURVE",
"119 578 OFFCURVE",
"120 577 CURVE",
"121 577 OFFCURVE",
"122 577 OFFCURVE",
"123 577 CURVE",
"151 568 OFFCURVE",
"163 564 OFFCURVE",
"182 558 CURVE SMOOTH",
"211 548 OFFCURVE",
"228 543 OFFCURVE",
"243 538 CURVE SMOOTH",
"293 525 OFFCURVE",
"320 518 OFFCURVE",
"337 516 CURVE SMOOTH",
"346 512 OFFCURVE",
"367 509 OFFCURVE",
"411 507 CURVE",
"431 888 LINE SMOOTH",
"432 901 OFFCURVE",
"443 906 OFFCURVE",
"468 906 CURVE SMOOTH",
"491 906 OFFCURVE",
"500 901 OFFCURVE",
"501 888 CURVE SMOOTH",
"521 509 LINE",
"601 516 OFFCURVE",
"661 529 OFFCURVE",
"732 553 CURVE SMOOTH",
"752 560 OFFCURVE",
"774 567 OFFCURVE",
"809 578 CURVE",
"810 578 OFFCURVE",
"811 578 OFFCURVE",
"814 578 CURVE SMOOTH",
"822 578 OFFCURVE",
"827 575 OFFCURVE",
"831 568 CURVE",
"831 565 OFFCURVE",
"832 562 OFFCURVE",
"832 560 CURVE SMOOTH",
"832 553 OFFCURVE",
"830 549 OFFCURVE",
"824 546 CURVE",
"815 539 OFFCURVE",
"804 530 OFFCURVE",
"768 502 CURVE SMOOTH",
"722 464 OFFCURVE",
"688 441 OFFCURVE",
"648 422 CURVE SMOOTH",
"620 408 OFFCURVE",
"585 400 OFFCURVE",
"528 393 CURVE",
"548 19 LINE",
"548 5 OFFCURVE",
"543 0 OFFCURVE",
"531 0 CURVE SMOOTH",
"531 0 OFFCURVE",
"531 0 OFFCURVE",
"530 0 CURVE SMOOTH",
"401 0 LINE SMOOTH"
);
}
);
width = 932;
}
);
unicode = 0037;
},
{
glyphname = "eight";
lastChange = "2013-06-18 05:03:51 +0330";
layers = (
{
layerId = "3D323242-F336-407C-B164-DE86AA499667";
name = "Regular";
paths = (
{
closed = 1;
nodes = (
"741 623 OFFCURVE",
"694 577 OFFCURVE",
"639 577 CURVE SMOOTH",
"584 577 OFFCURVE",
"536 622 OFFCURVE",
"536 676 CURVE SMOOTH",
"536 734 OFFCURVE",
"584 782 OFFCURVE",
"642 782 CURVE SMOOTH",
"696 782 OFFCURVE",
"741 734 OFFCURVE",
"741 677 CURVE SMOOTH"
);
},
{
closed = 1;
nodes = (
"759 227 OFFCURVE",
"712 181 OFFCURVE",
"657 181 CURVE SMOOTH",
"602 181 OFFCURVE",
"554 226 OFFCURVE",
"554 280 CURVE SMOOTH",
"554 338 OFFCURVE",
"602 386 OFFCURVE",
"660 386 CURVE SMOOTH",
"714 386 OFFCURVE",
"759 338 OFFCURVE",
"759 281 CURVE SMOOTH"
);
},
{
closed = 1;
nodes = (
"398 624 OFFCURVE",
"351 578 OFFCURVE",
"296 578 CURVE SMOOTH",
"241 578 OFFCURVE",
"193 623 OFFCURVE",
"193 677 CURVE SMOOTH",
"193 735 OFFCURVE",
"241 783 OFFCURVE",
"299 783 CURVE SMOOTH",
"353 783 OFFCURVE",
"398 735 OFFCURVE",
"398 678 CURVE SMOOTH"
);
},
{
closed = 1;
nodes = (
"389 0 OFFCURVE",
"384 5 OFFCURVE",
"384 18 CURVE",
"404 391 LINE",
"347 398 OFFCURVE",
"312 406 OFFCURVE",
"283 420 CURVE SMOOTH",
"243 439 OFFCURVE",
"209 462 OFFCURVE",
"163 500 CURVE SMOOTH",
"163 500 OFFCURVE",
"147 513 OFFCURVE",
"107 544 CURVE",
"102 547 OFFCURVE",
"100 551 OFFCURVE",
"100 558 CURVE SMOOTH",
"100 562 OFFCURVE",
"101 565 OFFCURVE",
"101 567 CURVE",
"104 575 OFFCURVE",
"109 578 OFFCURVE",
"117 578 CURVE SMOOTH",
"118 578 OFFCURVE",
"119 578 OFFCURVE",
"120 577 CURVE",
"121 577 OFFCURVE",
"122 577 OFFCURVE",
"123 577 CURVE",
"151 568 OFFCURVE",
"163 564 OFFCURVE",
"182 558 CURVE SMOOTH",
"211 548 OFFCURVE",
"228 543 OFFCURVE",
"243 538 CURVE SMOOTH",
"293 525 OFFCURVE",
"320 518 OFFCURVE",
"337 516 CURVE SMOOTH",
"346 512 OFFCURVE",
"367 509 OFFCURVE",
"411 507 CURVE",
"431 888 LINE SMOOTH",
"432 901 OFFCURVE",
"443 906 OFFCURVE",
"468 906 CURVE SMOOTH",
"491 906 OFFCURVE",
"500 901 OFFCURVE",
"501 888 CURVE SMOOTH",
"521 509 LINE",
"601 516 OFFCURVE",
"661 529 OFFCURVE",
"732 553 CURVE SMOOTH",
"752 560 OFFCURVE",
"774 567 OFFCURVE",
"809 578 CURVE",
"810 578 OFFCURVE",
"811 578 OFFCURVE",
"814 578 CURVE SMOOTH",
"822 578 OFFCURVE",
"827 575 OFFCURVE",
"831 568 CURVE",
"831 565 OFFCURVE",
"832 562 OFFCURVE",
"832 560 CURVE SMOOTH",
"832 553 OFFCURVE",
"830 549 OFFCURVE",
"824 546 CURVE",
"815 539 OFFCURVE",
"804 530 OFFCURVE",
"768 502 CURVE SMOOTH",
"722 464 OFFCURVE",
"688 441 OFFCURVE",
"648 422 CURVE SMOOTH",
"620 408 OFFCURVE",
"585 400 OFFCURVE",
"528 393 CURVE",
"548 19 LINE",
"548 5 OFFCURVE",
"543 0 OFFCURVE",
"531 0 CURVE SMOOTH",
"531 0 OFFCURVE",
"531 0 OFFCURVE",
"530 0 CURVE SMOOTH",
"401 0 LINE SMOOTH"
);
}
);
width = 932;
}
);
unicode = 0038;
},
{
glyphname = "nine";
lastChange = "2013-06-18 05:02:05 +0330";
layers = (
{
layerId = "3D323242-F336-407C-B164-DE86AA499667";
name = "Regular";
paths = (
{
closed = 1;
nodes = (
"741 623 OFFCURVE",
"694 577 OFFCURVE",
"639 577 CURVE SMOOTH",
"584 577 OFFCURVE",
"536 622 OFFCURVE",
"536 676 CURVE SMOOTH",
"536 734 OFFCURVE",
"584 782 OFFCURVE",
"642 782 CURVE SMOOTH",
"696 782 OFFCURVE",
"741 734 OFFCURVE",
"741 677 CURVE SMOOTH"
);
},
{
closed = 1;
nodes = (
"759 227 OFFCURVE",
"712 181 OFFCURVE",
"657 181 CURVE SMOOTH",
"602 181 OFFCURVE",
"554 226 OFFCURVE",
"554 280 CURVE SMOOTH",
"554 338 OFFCURVE",
"602 386 OFFCURVE",
"660 386 CURVE SMOOTH",
"714 386 OFFCURVE",
"759 338 OFFCURVE",
"759 281 CURVE SMOOTH"
);
},
{
closed = 1;
nodes = (
"384 228 OFFCURVE",
"337 182 OFFCURVE",
"282 182 CURVE SMOOTH",
"227 182 OFFCURVE",
"179 227 OFFCURVE",
"179 281 CURVE SMOOTH",
"179 339 OFFCURVE",
"227 387 OFFCURVE",
"285 387 CURVE SMOOTH",
"339 387 OFFCURVE",
"384 339 OFFCURVE",
"384 282 CURVE SMOOTH"
);
},
{
closed = 1;
nodes = (
"398 624 OFFCURVE",
"351 578 OFFCURVE",
"296 578 CURVE SMOOTH",
"241 578 OFFCURVE",
"193 623 OFFCURVE",
"193 677 CURVE SMOOTH",
"193 735 OFFCURVE",
"241 783 OFFCURVE",
"299 783 CURVE SMOOTH",
"353 783 OFFCURVE",
"398 735 OFFCURVE",
"398 678 CURVE SMOOTH"
);
},
{
closed = 1;
nodes = (
"389 0 OFFCURVE",
"384 5 OFFCURVE",
"384 18 CURVE",
"404 391 LINE",
"347 398 OFFCURVE",
"312 406 OFFCURVE",
"283 420 CURVE SMOOTH",
"243 439 OFFCURVE",
"209 462 OFFCURVE",
"163 500 CURVE SMOOTH",
"163 500 OFFCURVE",
"147 513 OFFCURVE",
"107 544 CURVE",
"102 547 OFFCURVE",
"100 551 OFFCURVE",
"100 558 CURVE SMOOTH",
"100 562 OFFCURVE",
"101 565 OFFCURVE",
"101 567 CURVE",
"104 575 OFFCURVE",
"109 578 OFFCURVE",
"117 578 CURVE SMOOTH",
"118 578 OFFCURVE",
"119 578 OFFCURVE",
"120 577 CURVE",
"121 577 OFFCURVE",
"122 577 OFFCURVE",
"123 577 CURVE",
"151 568 OFFCURVE",
"163 564 OFFCURVE",
"182 558 CURVE SMOOTH",
"211 548 OFFCURVE",
"228 543 OFFCURVE",
"243 538 CURVE SMOOTH",
"293 525 OFFCURVE",
"320 518 OFFCURVE",
"337 516 CURVE SMOOTH",
"346 512 OFFCURVE",
"367 509 OFFCURVE",
"411 507 CURVE",
"431 888 LINE SMOOTH",
"432 901 OFFCURVE",
"443 906 OFFCURVE",
"468 906 CURVE SMOOTH",
"491 906 OFFCURVE",
"500 901 OFFCURVE",
"501 888 CURVE SMOOTH",
"521 509 LINE",
"601 516 OFFCURVE",
"661 529 OFFCURVE",
"732 553 CURVE SMOOTH",
"752 560 OFFCURVE",
"774 567 OFFCURVE",
"809 578 CURVE",
"810 578 OFFCURVE",
"811 578 OFFCURVE",
"814 578 CURVE SMOOTH",
"822 578 OFFCURVE",
"827 575 OFFCURVE",
"831 568 CURVE",
"831 565 OFFCURVE",
"832 562 OFFCURVE",
"832 560 CURVE SMOOTH",
"832 553 OFFCURVE",
"830 549 OFFCURVE",
"824 546 CURVE",
"815 539 OFFCURVE",
"804 530 OFFCURVE",
"768 502 CURVE SMOOTH",
"722 464 OFFCURVE",
"688 441 OFFCURVE",
"648 422 CURVE SMOOTH",
"620 408 OFFCURVE",
"585 400 OFFCURVE",
"528 393 CURVE",
"548 19 LINE",
"548 5 OFFCURVE",
"543 0 OFFCURVE",
"531 0 CURVE SMOOTH",
"531 0 OFFCURVE",
"531 0 OFFCURVE",
"530 0 CURVE SMOOTH",
"401 0 LINE SMOOTH"
);
}
);
width = 932;
}
);
unicode = 0039;
},
{
glyphname = "zero-persian";
lastChange = "2013-06-18 05:11:38 +0330";
layers = (
{
layerId = "3D323242-F336-407C-B164-DE86AA499667";
name = "Regular";
paths = (
{
closed = 1;
nodes = (
"429 60 OFFCURVE",
"379 12 OFFCURVE",
"306 12 CURVE SMOOTH",
"233 12 OFFCURVE",
"183 59 OFFCURVE",
"183 132 CURVE SMOOTH",
"183 208 OFFCURVE",
"233 259 OFFCURVE",
"309 259 CURVE SMOOTH",
"382 259 OFFCURVE",
"429 208 OFFCURVE",
"429 133 CURVE SMOOTH"
);
},
{
closed = 1;
nodes = (
"127 -27 LINE",
"522 259 LINE",
"496 295 LINE",
"100 9 LINE"
);
}
);
width = 622;
}
);
unicode = 06F0;
},
{
glyphname = "one-persian";
lastChange = "2013-06-18 05:11:40 +0330";
layers = (
{
layerId = "3D323242-F336-407C-B164-DE86AA499667";
name = "Regular";
paths = (
{
closed = 1;
nodes = (
"371 60 OFFCURVE",
"309 0 OFFCURVE",
"236 0 CURVE SMOOTH",
"163 0 OFFCURVE",
"100 59 OFFCURVE",
"100 132 CURVE SMOOTH",
"100 208 OFFCURVE",
"163 271 OFFCURVE",
"239 271 CURVE SMOOTH",
"312 271 OFFCURVE",
"371 208 OFFCURVE",
"371 133 CURVE SMOOTH"
);
}
);
width = 471;
}
);
unicode = 06F1;
},
{
glyphname = "two-persian";
lastChange = "2013-06-18 05:10:30 +0330";
layers = (
{
layerId = "3D323242-F336-407C-B164-DE86AA499667";
name = "Regular";
paths = (
{
closed = 1;
nodes = (
"347 55 OFFCURVE",
"290 0 OFFCURVE",
"224 0 CURVE SMOOTH",
"158 0 OFFCURVE",
"100 54 OFFCURVE",
"100 120 CURVE SMOOTH",
"100 189 OFFCURVE",
"158 247 OFFCURVE",
"227 247 CURVE SMOOTH",
"293 247 OFFCURVE",
"347 189 OFFCURVE",
"347 121 CURVE SMOOTH"
);
},
{
closed = 1;
nodes = (
"347 355 OFFCURVE",
"290 300 OFFCURVE",
"224 300 CURVE SMOOTH",
"158 300 OFFCURVE",
"100 354 OFFCURVE",
"100 420 CURVE SMOOTH",
"100 489 OFFCURVE",
"158 547 OFFCURVE",
"227 547 CURVE SMOOTH",
"293 547 OFFCURVE",
"347 489 OFFCURVE",
"347 421 CURVE SMOOTH"
);
}
);
width = 447;
}
);
unicode = 06F2;
},
{
glyphname = "three-persian";
lastChange = "2013-06-18 05:10:28 +0330";
layers = (
{
layerId = "3D323242-F336-407C-B164-DE86AA499667";
name = "Regular";
paths = (
{
closed = 1;
nodes = (
"347 55 OFFCURVE",
"290 0 OFFCURVE",
"224 0 CURVE SMOOTH",
"158 0 OFFCURVE",
"100 54 OFFCURVE",
"100 120 CURVE SMOOTH",
"100 189 OFFCURVE",
"158 247 OFFCURVE",
"227 247 CURVE SMOOTH",
"293 247 OFFCURVE",
"347 189 OFFCURVE",
"347 121 CURVE SMOOTH"
);
},
{
closed = 1;
nodes = (
"747 55 OFFCURVE",
"690 0 OFFCURVE",
"624 0 CURVE SMOOTH",
"558 0 OFFCURVE",
"500 54 OFFCURVE",
"500 120 CURVE SMOOTH",
"500 189 OFFCURVE",
"558 247 OFFCURVE",
"627 247 CURVE SMOOTH",
"693 247 OFFCURVE",
"747 189 OFFCURVE",
"747 121 CURVE SMOOTH"
);
},
{
closed = 1;
nodes = (
"557 351 OFFCURVE",
"500 296 OFFCURVE",
"434 296 CURVE SMOOTH",
"368 296 OFFCURVE",
"310 350 OFFCURVE",
"310 416 CURVE SMOOTH",
"310 485 OFFCURVE",
"368 543 OFFCURVE",
"437 543 CURVE SMOOTH",
"503 543 OFFCURVE",
"557 485 OFFCURVE",
"557 417 CURVE SMOOTH"
);
}
);
width = 847;
}
);
unicode = 06F3;
},
{
glyphname = "four-persian";
lastChange = "2013-06-18 05:11:48 +0330";
layers = (
{
layerId = "3D323242-F336-407C-B164-DE86AA499667";
name = "Regular";
paths = (
{
closed = 1;
nodes = (
"325 279 OFFCURVE",
"273 229 OFFCURVE",
"213 229 CURVE SMOOTH",
"153 229 OFFCURVE",
"100 278 OFFCURVE",
"100 338 CURVE SMOOTH",
"100 401 OFFCURVE",
"153 454 OFFCURVE",
"216 454 CURVE SMOOTH",
"276 454 OFFCURVE",
"325 401 OFFCURVE",
"325 339 CURVE SMOOTH"
);
},
{
closed = 1;
nodes = (
"689 279 OFFCURVE",
"637 229 OFFCURVE",
"577 229 CURVE SMOOTH",
"517 229 OFFCURVE",
"464 278 OFFCURVE",
"464 338 CURVE SMOOTH",
"464 401 OFFCURVE",
"517 454 OFFCURVE",
"580 454 CURVE SMOOTH",
"640 454 OFFCURVE",
"689 401 OFFCURVE",
"689 339 CURVE SMOOTH"
);
},
{
closed = 1;
nodes = (
"516 504 OFFCURVE",
"464 454 OFFCURVE",
"404 454 CURVE SMOOTH",
"344 454 OFFCURVE",
"291 503 OFFCURVE",
"291 563 CURVE SMOOTH",
"291 625 OFFCURVE",
"344 678 OFFCURVE",
"407 678 CURVE SMOOTH",
"467 678 OFFCURVE",
"516 625 OFFCURVE",
"516 564 CURVE SMOOTH"
);
},
{
closed = 1;
nodes = (
"516 50 OFFCURVE",
"464 0 OFFCURVE",
"404 0 CURVE SMOOTH",
"344 0 OFFCURVE",
"291 49 OFFCURVE",
"291 109 CURVE SMOOTH",
"291 172 OFFCURVE",
"344 224 OFFCURVE",
"407 224 CURVE SMOOTH",
"467 224 OFFCURVE",
"516 172 OFFCURVE",
"516 110 CURVE SMOOTH"
);
}
);
width = 789;
}
);
unicode = 06F4;
},
{
glyphname = "five-persian";
lastChange = "2013-06-18 05:10:32 +0330";
layers = (
{
layerId = "3D323242-F336-407C-B164-DE86AA499667";
name = "Regular";
paths = (
{
closed = 1;
nodes = (
"389 0 OFFCURVE",
"384 5 OFFCURVE",
"384 18 CURVE",
"404 391 LINE",
"347 398 OFFCURVE",
"312 406 OFFCURVE",
"283 420 CURVE SMOOTH",
"243 439 OFFCURVE",
"209 462 OFFCURVE",
"163 500 CURVE SMOOTH",
"163 500 OFFCURVE",
"147 513 OFFCURVE",
"107 544 CURVE",
"102 547 OFFCURVE",
"100 551 OFFCURVE",
"100 558 CURVE SMOOTH",
"100 562 OFFCURVE",
"101 565 OFFCURVE",
"101 567 CURVE",
"104 575 OFFCURVE",
"109 578 OFFCURVE",
"117 578 CURVE SMOOTH",
"118 578 OFFCURVE",
"119 578 OFFCURVE",
"120 577 CURVE",
"121 577 OFFCURVE",
"122 577 OFFCURVE",
"123 577 CURVE",
"151 568 OFFCURVE",
"163 564 OFFCURVE",
"182 558 CURVE SMOOTH",
"211 548 OFFCURVE",
"228 543 OFFCURVE",
"243 538 CURVE SMOOTH",
"293 525 OFFCURVE",
"320 518 OFFCURVE",
"337 516 CURVE SMOOTH",
"346 512 OFFCURVE",
"367 509 OFFCURVE",
"411 507 CURVE",
"431 888 LINE SMOOTH",
"432 901 OFFCURVE",
"443 906 OFFCURVE",
"468 906 CURVE SMOOTH",
"491 906 OFFCURVE",
"500 901 OFFCURVE",
"501 888 CURVE SMOOTH",
"521 509 LINE",
"601 516 OFFCURVE",
"661 529 OFFCURVE",
"732 553 CURVE SMOOTH",
"752 560 OFFCURVE",
"774 567 OFFCURVE",
"809 578 CURVE",
"810 578 OFFCURVE",
"811 578 OFFCURVE",
"814 578 CURVE SMOOTH",
"822 578 OFFCURVE",
"827 575 OFFCURVE",
"831 568 CURVE",
"831 565 OFFCURVE",
"832 562 OFFCURVE",
"832 560 CURVE SMOOTH",
"832 553 OFFCURVE",
"830 549 OFFCURVE",
"824 546 CURVE",
"815 539 OFFCURVE",
"804 530 OFFCURVE",
"768 502 CURVE SMOOTH",
"722 464 OFFCURVE",
"688 441 OFFCURVE",
"648 422 CURVE SMOOTH",
"620 408 OFFCURVE",
"585 400 OFFCURVE",
"528 393 CURVE",
"548 19 LINE",
"548 5 OFFCURVE",
"543 0 OFFCURVE",
"531 0 CURVE SMOOTH",
"531 0 OFFCURVE",
"531 0 OFFCURVE",
"530 0 CURVE SMOOTH",
"401 0 LINE SMOOTH"
);
}
);
width = 932;
}
);
unicode = 06F5;
},
{
glyphname = "six-persian";
lastChange = "2013-06-18 05:10:40 +0330";
layers = (
{
layerId = "3D323242-F336-407C-B164-DE86AA499667";
name = "Regular";
paths = (
{
closed = 1;
nodes = (
"741 623 OFFCURVE",
"694 577 OFFCURVE",
"639 577 CURVE SMOOTH",
"584 577 OFFCURVE",
"536 622 OFFCURVE",
"536 676 CURVE SMOOTH",
"536 734 OFFCURVE",
"584 782 OFFCURVE",
"642 782 CURVE SMOOTH",
"696 782 OFFCURVE",
"741 734 OFFCURVE",
"741 677 CURVE SMOOTH"
);
},
{
closed = 1;
nodes = (
"389 0 OFFCURVE",
"384 5 OFFCURVE",
"384 18 CURVE",
"404 391 LINE",
"347 398 OFFCURVE",
"312 406 OFFCURVE",
"283 420 CURVE SMOOTH",
"243 439 OFFCURVE",
"209 462 OFFCURVE",
"163 500 CURVE SMOOTH",
"163 500 OFFCURVE",
"147 513 OFFCURVE",
"107 544 CURVE",
"102 547 OFFCURVE",
"100 551 OFFCURVE",
"100 558 CURVE SMOOTH",
"100 562 OFFCURVE",
"101 565 OFFCURVE",
"101 567 CURVE",
"104 575 OFFCURVE",
"109 578 OFFCURVE",
"117 578 CURVE SMOOTH",
"118 578 OFFCURVE",
"119 578 OFFCURVE",
"120 577 CURVE",
"121 577 OFFCURVE",
"122 577 OFFCURVE",
"123 577 CURVE",
"151 568 OFFCURVE",
"163 564 OFFCURVE",
"182 558 CURVE SMOOTH",
"211 548 OFFCURVE",
"228 543 OFFCURVE",
"243 538 CURVE SMOOTH",
"293 525 OFFCURVE",
"320 518 OFFCURVE",
"337 516 CURVE SMOOTH",
"346 512 OFFCURVE",
"367 509 OFFCURVE",
"411 507 CURVE",
"431 888 LINE SMOOTH",
"432 901 OFFCURVE",
"443 906 OFFCURVE",
"468 906 CURVE SMOOTH",
"491 906 OFFCURVE",
"500 901 OFFCURVE",
"501 888 CURVE SMOOTH",
"521 509 LINE",
"601 516 OFFCURVE",
"661 529 OFFCURVE",
"732 553 CURVE SMOOTH",
"752 560 OFFCURVE",
"774 567 OFFCURVE",
"809 578 CURVE",
"810 578 OFFCURVE",
"811 578 OFFCURVE",
"814 578 CURVE SMOOTH",
"822 578 OFFCURVE",
"827 575 OFFCURVE",
"831 568 CURVE",
"831 565 OFFCURVE",
"832 562 OFFCURVE",
"832 560 CURVE SMOOTH",
"832 553 OFFCURVE",
"830 549 OFFCURVE",
"824 546 CURVE",
"815 539 OFFCURVE",
"804 530 OFFCURVE",
"768 502 CURVE SMOOTH",
"722 464 OFFCURVE",
"688 441 OFFCURVE",
"648 422 CURVE SMOOTH",
"620 408 OFFCURVE",
"585 400 OFFCURVE",
"528 393 CURVE",
"548 19 LINE",
"548 5 OFFCURVE",
"543 0 OFFCURVE",
"531 0 CURVE SMOOTH",
"531 0 OFFCURVE",
"531 0 OFFCURVE",
"530 0 CURVE SMOOTH",
"401 0 LINE SMOOTH"
);
}
);
width = 932;
}
);
unicode = 06F6;
},
{
glyphname = "seven-persian";
lastChange = "2013-06-18 05:10:45 +0330";
layers = (
{
layerId = "3D323242-F336-407C-B164-DE86AA499667";
name = "Regular";
paths = (
{
closed = 1;
nodes = (
"741 623 OFFCURVE",
"694 577 OFFCURVE",
"639 577 CURVE SMOOTH",
"584 577 OFFCURVE",
"536 622 OFFCURVE",
"536 676 CURVE SMOOTH",
"536 734 OFFCURVE",
"584 782 OFFCURVE",
"642 782 CURVE SMOOTH",
"696 782 OFFCURVE",
"741 734 OFFCURVE",
"741 677 CURVE SMOOTH"
);
},
{
closed = 1;
nodes = (
"398 624 OFFCURVE",
"351 578 OFFCURVE",
"296 578 CURVE SMOOTH",
"241 578 OFFCURVE",
"193 623 OFFCURVE",
"193 677 CURVE SMOOTH",
"193 735 OFFCURVE",
"241 783 OFFCURVE",
"299 783 CURVE SMOOTH",
"353 783 OFFCURVE",
"398 735 OFFCURVE",
"398 678 CURVE SMOOTH"
);
},
{
closed = 1;
nodes = (
"389 0 OFFCURVE",
"384 5 OFFCURVE",
"384 18 CURVE",
"404 391 LINE",
"347 398 OFFCURVE",
"312 406 OFFCURVE",
"283 420 CURVE SMOOTH",
"243 439 OFFCURVE",
"209 462 OFFCURVE",
"163 500 CURVE SMOOTH",
"163 500 OFFCURVE",
"147 513 OFFCURVE",
"107 544 CURVE",
"102 547 OFFCURVE",
"100 551 OFFCURVE",
"100 558 CURVE SMOOTH",
"100 562 OFFCURVE",
"101 565 OFFCURVE",
"101 567 CURVE",
"104 575 OFFCURVE",
"109 578 OFFCURVE",
"117 578 CURVE SMOOTH",
"118 578 OFFCURVE",
"119 578 OFFCURVE",
"120 577 CURVE",
"121 577 OFFCURVE",
"122 577 OFFCURVE",
"123 577 CURVE",
"151 568 OFFCURVE",
"163 564 OFFCURVE",
"182 558 CURVE SMOOTH",
"211 548 OFFCURVE",
"228 543 OFFCURVE",
"243 538 CURVE SMOOTH",
"293 525 OFFCURVE",
"320 518 OFFCURVE",
"337 516 CURVE SMOOTH",
"346 512 OFFCURVE",
"367 509 OFFCURVE",
"411 507 CURVE",
"431 888 LINE SMOOTH",
"432 901 OFFCURVE",
"443 906 OFFCURVE",
"468 906 CURVE SMOOTH",
"491 906 OFFCURVE",
"500 901 OFFCURVE",
"501 888 CURVE SMOOTH",
"521 509 LINE",
"601 516 OFFCURVE",
"661 529 OFFCURVE",
"732 553 CURVE SMOOTH",
"752 560 OFFCURVE",
"774 567 OFFCURVE",
"809 578 CURVE",
"810 578 OFFCURVE",
"811 578 OFFCURVE",
"814 578 CURVE SMOOTH",
"822 578 OFFCURVE",
"827 575 OFFCURVE",
"831 568 CURVE",
"831 565 OFFCURVE",
"832 562 OFFCURVE",
"832 560 CURVE SMOOTH",
"832 553 OFFCURVE",
"830 549 OFFCURVE",
"824 546 CURVE",
"815 539 OFFCURVE",
"804 530 OFFCURVE",
"768 502 CURVE SMOOTH",
"722 464 OFFCURVE",
"688 441 OFFCURVE",
"648 422 CURVE SMOOTH",
"620 408 OFFCURVE",
"585 400 OFFCURVE",
"528 393 CURVE",
"548 19 LINE",
"548 5 OFFCURVE",
"543 0 OFFCURVE",
"531 0 CURVE SMOOTH",
"531 0 OFFCURVE",
"531 0 OFFCURVE",
"530 0 CURVE SMOOTH",
"401 0 LINE SMOOTH"
);
}
);
width = 932;
}
);
unicode = 06F7;
},
{
glyphname = "eight-persian";
lastChange = "2013-06-18 05:10:42 +0330";
layers = (
{
layerId = "3D323242-F336-407C-B164-DE86AA499667";
name = "Regular";
paths = (
{
closed = 1;
nodes = (
"741 623 OFFCURVE",
"694 577 OFFCURVE",
"639 577 CURVE SMOOTH",
"584 577 OFFCURVE",
"536 622 OFFCURVE",
"536 676 CURVE SMOOTH",
"536 734 OFFCURVE",
"584 782 OFFCURVE",
"642 782 CURVE SMOOTH",
"696 782 OFFCURVE",
"741 734 OFFCURVE",
"741 677 CURVE SMOOTH"
);
},
{
closed = 1;
nodes = (
"759 227 OFFCURVE",
"712 181 OFFCURVE",
"657 181 CURVE SMOOTH",
"602 181 OFFCURVE",
"554 226 OFFCURVE",
"554 280 CURVE SMOOTH",
"554 338 OFFCURVE",
"602 386 OFFCURVE",
"660 386 CURVE SMOOTH",
"714 386 OFFCURVE",
"759 338 OFFCURVE",
"759 281 CURVE SMOOTH"
);
},
{
closed = 1;
nodes = (
"398 624 OFFCURVE",
"351 578 OFFCURVE",
"296 578 CURVE SMOOTH",
"241 578 OFFCURVE",
"193 623 OFFCURVE",
"193 677 CURVE SMOOTH",
"193 735 OFFCURVE",
"241 783 OFFCURVE",
"299 783 CURVE SMOOTH",
"353 783 OFFCURVE",
"398 735 OFFCURVE",
"398 678 CURVE SMOOTH"
);
},
{
closed = 1;
nodes = (
"389 0 OFFCURVE",
"384 5 OFFCURVE",
"384 18 CURVE",
"404 391 LINE",
"347 398 OFFCURVE",
"312 406 OFFCURVE",
"283 420 CURVE SMOOTH",
"243 439 OFFCURVE",
"209 462 OFFCURVE",
"163 500 CURVE SMOOTH",
"163 500 OFFCURVE",
"147 513 OFFCURVE",
"107 544 CURVE",
"102 547 OFFCURVE",
"100 551 OFFCURVE",
"100 558 CURVE SMOOTH",
"100 562 OFFCURVE",
"101 565 OFFCURVE",
"101 567 CURVE",
"104 575 OFFCURVE",
"109 578 OFFCURVE",
"117 578 CURVE SMOOTH",
"118 578 OFFCURVE",
"119 578 OFFCURVE",
"120 577 CURVE",
"121 577 OFFCURVE",
"122 577 OFFCURVE",
"123 577 CURVE",
"151 568 OFFCURVE",
"163 564 OFFCURVE",
"182 558 CURVE SMOOTH",
"211 548 OFFCURVE",
"228 543 OFFCURVE",
"243 538 CURVE SMOOTH",
"293 525 OFFCURVE",
"320 518 OFFCURVE",
"337 516 CURVE SMOOTH",
"346 512 OFFCURVE",
"367 509 OFFCURVE",
"411 507 CURVE",
"431 888 LINE SMOOTH",
"432 901 OFFCURVE",
"443 906 OFFCURVE",
"468 906 CURVE SMOOTH",
"491 906 OFFCURVE",
"500 901 OFFCURVE",
"501 888 CURVE SMOOTH",
"521 509 LINE",
"601 516 OFFCURVE",
"661 529 OFFCURVE",
"732 553 CURVE SMOOTH",
"752 560 OFFCURVE",
"774 567 OFFCURVE",
"809 578 CURVE",
"810 578 OFFCURVE",
"811 578 OFFCURVE",
"814 578 CURVE SMOOTH",
"822 578 OFFCURVE",
"827 575 OFFCURVE",
"831 568 CURVE",
"831 565 OFFCURVE",
"832 562 OFFCURVE",
"832 560 CURVE SMOOTH",
"832 553 OFFCURVE",
"830 549 OFFCURVE",
"824 546 CURVE",
"815 539 OFFCURVE",
"804 530 OFFCURVE",
"768 502 CURVE SMOOTH",
"722 464 OFFCURVE",
"688 441 OFFCURVE",
"648 422 CURVE SMOOTH",
"620 408 OFFCURVE",
"585 400 OFFCURVE",
"528 393 CURVE",
"548 19 LINE",
"548 5 OFFCURVE",
"543 0 OFFCURVE",
"531 0 CURVE SMOOTH",
"531 0 OFFCURVE",
"531 0 OFFCURVE",
"530 0 CURVE SMOOTH",
"401 0 LINE SMOOTH"
);
}
);
width = 932;
}
);
unicode = 06F8;
},
{
glyphname = "nine-persian";
lastChange = "2013-06-18 05:10:48 +0330";
layers = (
{
layerId = "3D323242-F336-407C-B164-DE86AA499667";
name = "Regular";
paths = (
{
closed = 1;
nodes = (
"741 623 OFFCURVE",
"694 577 OFFCURVE",
"639 577 CURVE SMOOTH",
"584 577 OFFCURVE",
"536 622 OFFCURVE",
"536 676 CURVE SMOOTH",
"536 734 OFFCURVE",
"584 782 OFFCURVE",
"642 782 CURVE SMOOTH",
"696 782 OFFCURVE",
"741 734 OFFCURVE",
"741 677 CURVE SMOOTH"
);
},
{
closed = 1;
nodes = (
"759 227 OFFCURVE",
"712 181 OFFCURVE",
"657 181 CURVE SMOOTH",
"602 181 OFFCURVE",
"554 226 OFFCURVE",
"554 280 CURVE SMOOTH",
"554 338 OFFCURVE",
"602 386 OFFCURVE",
"660 386 CURVE SMOOTH",
"714 386 OFFCURVE",
"759 338 OFFCURVE",
"759 281 CURVE SMOOTH"
);
},
{
closed = 1;
nodes = (
"384 228 OFFCURVE",
"337 182 OFFCURVE",
"282 182 CURVE SMOOTH",
"227 182 OFFCURVE",
"179 227 OFFCURVE",
"179 281 CURVE SMOOTH",
"179 339 OFFCURVE",
"227 387 OFFCURVE",
"285 387 CURVE SMOOTH",
"339 387 OFFCURVE",
"384 339 OFFCURVE",
"384 282 CURVE SMOOTH"
);
},
{
closed = 1;
nodes = (
"398 624 OFFCURVE",
"351 578 OFFCURVE",
"296 578 CURVE SMOOTH",
"241 578 OFFCURVE",
"193 623 OFFCURVE",
"193 677 CURVE SMOOTH",
"193 735 OFFCURVE",
"241 783 OFFCURVE",
"299 783 CURVE SMOOTH",
"353 783 OFFCURVE",
"398 735 OFFCURVE",
"398 678 CURVE SMOOTH"
);
},
{
closed = 1;
nodes = (
"389 0 OFFCURVE",
"384 5 OFFCURVE",
"384 18 CURVE",
"404 391 LINE",
"347 398 OFFCURVE",
"312 406 OFFCURVE",
"283 420 CURVE SMOOTH",
"243 439 OFFCURVE",
"209 462 OFFCURVE",
"163 500 CURVE SMOOTH",
"163 500 OFFCURVE",
"147 513 OFFCURVE",
"107 544 CURVE",
"102 547 OFFCURVE",
"100 551 OFFCURVE",
"100 558 CURVE SMOOTH",
"100 562 OFFCURVE",
"101 565 OFFCURVE",
"101 567 CURVE",
"104 575 OFFCURVE",
"109 578 OFFCURVE",
"117 578 CURVE SMOOTH",
"118 578 OFFCURVE",
"119 578 OFFCURVE",
"120 577 CURVE",
"121 577 OFFCURVE",
"122 577 OFFCURVE",
"123 577 CURVE",
"151 568 OFFCURVE",
"163 564 OFFCURVE",
"182 558 CURVE SMOOTH",
"211 548 OFFCURVE",
"228 543 OFFCURVE",
"243 538 CURVE SMOOTH",
"293 525 OFFCURVE",
"320 518 OFFCURVE",
"337 516 CURVE SMOOTH",
"346 512 OFFCURVE",
"367 509 OFFCURVE",
"411 507 CURVE",
"431 888 LINE SMOOTH",
"432 901 OFFCURVE",
"443 906 OFFCURVE",
"468 906 CURVE SMOOTH",
"491 906 OFFCURVE",
"500 901 OFFCURVE",
"501 888 CURVE SMOOTH",
"521 509 LINE",
"601 516 OFFCURVE",
"661 529 OFFCURVE",
"732 553 CURVE SMOOTH",
"752 560 OFFCURVE",
"774 567 OFFCURVE",
"809 578 CURVE",
"810 578 OFFCURVE",
"811 578 OFFCURVE",
"814 578 CURVE SMOOTH",
"822 578 OFFCURVE",
"827 575 OFFCURVE",
"831 568 CURVE",
"831 565 OFFCURVE",
"832 562 OFFCURVE",
"832 560 CURVE SMOOTH",
"832 553 OFFCURVE",
"830 549 OFFCURVE",
"824 546 CURVE",
"815 539 OFFCURVE",
"804 530 OFFCURVE",
"768 502 CURVE SMOOTH",
"722 464 OFFCURVE",
"688 441 OFFCURVE",
"648 422 CURVE SMOOTH",
"620 408 OFFCURVE",
"585 400 OFFCURVE",
"528 393 CURVE",
"548 19 LINE",
"548 5 OFFCURVE",
"543 0 OFFCURVE",
"531 0 CURVE SMOOTH",
"531 0 OFFCURVE",
"531 0 OFFCURVE",
"530 0 CURVE SMOOTH",
"401 0 LINE SMOOTH"
);
}
);
width = 932;
}
);
unicode = 06F9;
},
{
glyphname = "rzj";
lastChange = "2013-06-18 06:30:33 +0330";
layers = (
{
layerId = "3D323242-F336-407C-B164-DE86AA499667";
name = "Regular";
paths = (
{
closed = 1;
nodes = (
"602 997 LINE",
"604 825 OFFCURVE",
"606 694 OFFCURVE",
"608 604 CURVE SMOOTH",
"608 600 LINE SMOOTH",
"608 577 OFFCURVE",
"607 548 OFFCURVE",
"606 513 CURVE SMOOTH",
"604 478 OFFCURVE",
"603 451 OFFCURVE",
"603 433 CURVE SMOOTH",
"603 413 OFFCURVE",
"603 397 OFFCURVE",
"604 386 CURVE SMOOTH",
"609 302 OFFCURVE",
"613 266 OFFCURVE",
"638 203 CURVE",
"649 172 OFFCURVE",
"668 154 OFFCURVE",
"695 149 CURVE",
"698 148 OFFCURVE",
"704 148 OFFCURVE",
"711 148 CURVE SMOOTH",
"726 148 OFFCURVE",
"748 150 OFFCURVE",
"777 154 CURVE SMOOTH",
"805 158 OFFCURVE",
"827 160 OFFCURVE",
"842 160 CURVE SMOOTH",
"843 160 OFFCURVE",
"846 160 OFFCURVE",
"849 160 CURVE",
"852 159 OFFCURVE",
"855 159 OFFCURVE",
"857 159 CURVE SMOOTH",
"886 159 OFFCURVE",
"916 146 OFFCURVE",
"947 119 CURVE",
"963 104 OFFCURVE",
"973 90 OFFCURVE",
"982 67 CURVE",
"987 56 OFFCURVE",
"991 46 OFFCURVE",
"996 39 CURVE",
"884 88 OFFCURVE",
"871 92 OFFCURVE",
"803 101 CURVE SMOOTH",
"794 102 OFFCURVE",
"781 103 OFFCURVE",
"766 103 CURVE SMOOTH",
"760 103 OFFCURVE",
"752 103 OFFCURVE",
"742 103 CURVE",
"732 102 OFFCURVE",
"724 102 OFFCURVE",
"719 102 CURVE SMOOTH",
"701 102 OFFCURVE",
"684 104 OFFCURVE",
"667 107 CURVE SMOOTH",
"648 111 OFFCURVE",
"636 118 OFFCURVE",
"618 130 CURVE",
"609 135 OFFCURVE",
"601 140 OFFCURVE",
"594 143 CURVE",
"589 136 OFFCURVE",
"567 109 OFFCURVE",
"554 97 CURVE SMOOTH",
"490 38 OFFCURVE",
"453 16 OFFCURVE",
"402 7 CURVE SMOOTH",
"389 5 OFFCURVE",
"377 4 OFFCURVE",
"368 4 CURVE SMOOTH",
"345 4 OFFCURVE",
"312 8 OFFCURVE",
"284 20 CURVE SMOOTH",
"269 26 OFFCURVE",
"257 30 OFFCURVE",
"247 31 CURVE SMOOTH",
"238 32 OFFCURVE",
"232 33 OFFCURVE",
"229 33 CURVE SMOOTH",
"214 33 OFFCURVE",
"200 27 OFFCURVE",
"189 21 CURVE",
"184 18 OFFCURVE",
"178 14 OFFCURVE",
"172 10 CURVE",
"165 6 OFFCURVE",
"160 3 OFFCURVE",
"155 0 CURVE",
"156 2 OFFCURVE",
"156 6 OFFCURVE",
"156 11 CURVE SMOOTH",
"156 14 OFFCURVE",
"156 19 OFFCURVE",
"156 25 CURVE",
"155 31 OFFCURVE",
"155 35 OFFCURVE",
"155 38 CURVE SMOOTH",
"155 43 OFFCURVE",
"157 45 OFFCURVE",
"162 48 CURVE",
"165 49 OFFCURVE",
"167 51 OFFCURVE",
"169 53 CURVE SMOOTH",
"186 70 OFFCURVE",
"212 79 OFFCURVE",
"247 79 CURVE SMOOTH",
"258 79 LINE SMOOTH",
"271 79 OFFCURVE",
"289 77 OFFCURVE",
"310 73 CURVE SMOOTH",
"352 64 OFFCURVE",
"387 63 OFFCURVE",
"398 63 CURVE SMOOTH",
"422 63 OFFCURVE",
"453 68 OFFCURVE",
"465 85 CURVE SMOOTH",
"471 94 OFFCURVE",
"476 102 OFFCURVE",
"480 111 CURVE",
"482 114 OFFCURVE",
"483 118 OFFCURVE",
"483 121 CURVE SMOOTH",
"483 130 OFFCURVE",
"479 136 OFFCURVE",
"472 137 CURVE SMOOTH",
"453 140 OFFCURVE",
"433 141 OFFCURVE",
"413 141 CURVE SMOOTH",
"402 141 OFFCURVE",
"384 140 OFFCURVE",
"360 139 CURVE SMOOTH",
"336 138 OFFCURVE",
"316 137 OFFCURVE",
"301 137 CURVE SMOOTH",
"286 137 OFFCURVE",
"266 138 OFFCURVE",
"242 141 CURVE SMOOTH",
"218 144 OFFCURVE",
"201 145 OFFCURVE",
"190 145 CURVE SMOOTH",
"151 145 OFFCURVE",
"114 133 OFFCURVE",
"87 117 CURVE",
"73 108 OFFCURVE",
"58 97 OFFCURVE",
"42 84 CURVE SMOOTH",
"26 71 OFFCURVE",
"12 60 OFFCURVE",
"0 53 CURVE",
"27 131 LINE",
"56 168 OFFCURVE",
"70 175 OFFCURVE",
"135 196 CURVE",
"152 199 OFFCURVE",
"170 201 OFFCURVE",
"189 201 CURVE SMOOTH",
"208 201 OFFCURVE",
"233 199 OFFCURVE",
"262 196 CURVE SMOOTH",
"291 192 OFFCURVE",
"315 190 OFFCURVE",
"334 189 CURVE",
"341 189 OFFCURVE",
"352 188 OFFCURVE",
"366 187 CURVE SMOOTH",
"379 186 OFFCURVE",
"390 185 OFFCURVE",
"397 185 CURVE SMOOTH",
"444 185 OFFCURVE",
"474 187 OFFCURVE",
"489 191 CURVE SMOOTH",
"503 195 OFFCURVE",
"514 204 OFFCURVE",
"522 219 CURVE",
"530 246 OFFCURVE",
"536 285 OFFCURVE",
"540 336 CURVE SMOOTH",
"545 411 LINE",
"545 434 OFFCURVE",
"543 465 OFFCURVE",
"540 506 CURVE SMOOTH",
"536 547 OFFCURVE",
"534 580 OFFCURVE",
"534 606 CURVE SMOOTH",
"534 648 LINE SMOOTH",
"534 747 OFFCURVE",
"539 941 OFFCURVE",
"540 998 CURVE"
);
}
);
width = 996;
}
);
unicode = E186;
},
{
glyphname = "sadzad";
lastChange = "2013-06-18 06:30:33 +0330";
layers = (
{
layerId = "3D323242-F336-407C-B164-DE86AA499667";
name = "Regular";
paths = (
{
closed = 1;
nodes = (
"298 562 LINE SMOOTH",
"264 562 OFFCURVE",
"227 573 OFFCURVE",
"187 594 CURVE",
"152 576 OFFCURVE",
"118 564 OFFCURVE",
"87 557 CURVE SMOOTH",
"83 556 OFFCURVE",
"79 555 OFFCURVE",
"74 555 CURVE SMOOTH",
"39 555 OFFCURVE",
"16 582 OFFCURVE",
"8 603 CURVE",
"5 609 OFFCURVE",
"3 619 OFFCURVE",
"0 632 CURVE",
"0 637 LINE SMOOTH",
"0 674 OFFCURVE",
"32 704 OFFCURVE",
"67 704 CURVE SMOOTH",
"68 704 OFFCURVE",
"69 704 OFFCURVE",
"72 704 CURVE",
"75 703 OFFCURVE",
"76 703 OFFCURVE",
"77 703 CURVE",
"106 698 OFFCURVE",
"143 683 OFFCURVE",
"187 658 CURVE",
"209 671 OFFCURVE",
"229 683 OFFCURVE",
"248 695 CURVE SMOOTH",
"284 718 OFFCURVE",
"338 738 OFFCURVE",
"394 739 CURVE",
"399 740 OFFCURVE",
"407 740 OFFCURVE",
"418 740 CURVE SMOOTH",
"506 740 OFFCURVE",
"590 720 OFFCURVE",
"670 679 CURVE",
"728 695 OFFCURVE",
"788 709 OFFCURVE",
"851 721 CURVE",
"856 721 LINE SMOOTH",
"871 721 OFFCURVE",
"880 714 OFFCURVE",
"883 699 CURVE",
"883 694 LINE SMOOTH",
"883 679 OFFCURVE",
"876 670 OFFCURVE",
"861 667 CURVE SMOOTH",
"826 661 OFFCURVE",
"786 652 OFFCURVE",
"741 641 CURVE",
"762 628 LINE SMOOTH",
"835 583 OFFCURVE",
"861 534 OFFCURVE",
"894 433 CURVE SMOOTH",
"903 406 OFFCURVE",
"907 376 OFFCURVE",
"907 345 CURVE SMOOTH",
"907 334 OFFCURVE",
"907 320 OFFCURVE",
"906 301 CURVE SMOOTH",
"905 282 OFFCURVE",
"904 267 OFFCURVE",
"904 258 CURVE SMOOTH",
"904 214 OFFCURVE",
"913 180 OFFCURVE",
"927 147 CURVE SMOOTH",
"934 130 OFFCURVE",
"943 111 OFFCURVE",
"954 90 CURVE SMOOTH",
"965 69 OFFCURVE",
"974 51 OFFCURVE",
"980 38 CURVE",
"981 33 OFFCURVE",
"982 29 OFFCURVE",
"982 27 CURVE SMOOTH",
"982 14 OFFCURVE",
"976 6 OFFCURVE",
"965 2 CURVE",
"963 1 OFFCURVE",
"960 0 OFFCURVE",
"955 0 CURVE SMOOTH",
"943 0 OFFCURVE",
"934 5 OFFCURVE",
"929 16 CURVE",
"926 22 OFFCURVE",
"915 45 OFFCURVE",
"895 86 CURVE SMOOTH",
"855 166 OFFCURVE",
"849 213 OFFCURVE",
"849 258 CURVE SMOOTH",
"849 269 OFFCURVE",
"850 285 OFFCURVE",
"851 304 CURVE SMOOTH",
"852 323 OFFCURVE",
"853 336 OFFCURVE",
"853 345 CURVE SMOOTH",
"853 396 OFFCURVE",
"827 471 OFFCURVE",
"799 519 CURVE SMOOTH",
"785 542 OFFCURVE",
"763 563 OFFCURVE",
"734 581 CURVE",
"664 621 LINE",
"560 594 OFFCURVE",
"534 586 OFFCURVE",
"442 573 CURVE SMOOTH",
"395 566 OFFCURVE",
"349 563 OFFCURVE",
"303 562 CURVE SMOOTH"
);
},
{
closed = 1;
nodes = (
"261 621 OFFCURVE",
"279 617 OFFCURVE",
"298 617 CURVE SMOOTH",
"302 617 LINE SMOOTH",
"387 618 OFFCURVE",
"481 632 OFFCURVE",
"584 657 CURVE",
"535 676 OFFCURVE",
"479 685 OFFCURVE",
"418 685 CURVE SMOOTH",
"396 685 LINE SMOOTH",
"352 684 OFFCURVE",
"301 665 OFFCURVE",
"243 628 CURVE"
);
},
{
closed = 1;
nodes = (
"109 638 OFFCURVE",
"88 646 OFFCURVE",
"68 649 CURVE",
"67 649 LINE SMOOTH",
"62 649 OFFCURVE",
"55 642 OFFCURVE",
"55 637 CURVE",
"56 631 OFFCURVE",
"57 627 OFFCURVE",
"58 625 CURVE",
"62 615 OFFCURVE",
"67 610 OFFCURVE",
"74 610 CURVE SMOOTH",
"76 610 LINE",
"93 613 OFFCURVE",
"111 619 OFFCURVE",
"130 627 CURVE"
);
}
);
width = 982;
}
);
unicode = E396;
},
{
glyphname = "seh";
lastChange = "2013-06-18 06:30:33 +0330";
layers = (
{
layerId = "3D323242-F336-407C-B164-DE86AA499667";
name = "Regular";
paths = (
{
closed = 1;
nodes = (
"16 271 OFFCURVE",
"19 276 OFFCURVE",
"25 279 CURVE",
"28 282 OFFCURVE",
"31 283 OFFCURVE",
"35 283 CURVE SMOOTH",
"36 283 OFFCURVE",
"37 283 OFFCURVE",
"38 283 CURVE",
"39 282 OFFCURVE",
"40 282 OFFCURVE",
"41 282 CURVE",
"61 276 OFFCURVE",
"85 267 OFFCURVE",
"112 255 CURVE SMOOTH",
"167 231 OFFCURVE",
"208 217 OFFCURVE",
"257 217 CURVE SMOOTH",
"260 217 LINE SMOOTH",
"272 217 OFFCURVE",
"287 227 OFFCURVE",
"304 246 CURVE SMOOTH",
"321 265 OFFCURVE",
"337 278 OFFCURVE",
"353 285 CURVE SMOOTH",
"402 305 OFFCURVE",
"449 315 OFFCURVE",
"494 315 CURVE SMOOTH",
"539 315 OFFCURVE",
"586 305 OFFCURVE",
"635 285 CURVE SMOOTH",
"652 278 OFFCURVE",
"668 265 OFFCURVE",
"685 246 CURVE SMOOTH",
"701 227 OFFCURVE",
"715 217 OFFCURVE",
"727 217 CURVE SMOOTH",
"731 217 LINE SMOOTH",
"780 217 OFFCURVE",
"821 231 OFFCURVE",
"876 255 CURVE SMOOTH",
"903 267 OFFCURVE",
"927 276 OFFCURVE",
"947 282 CURVE",
"948 282 OFFCURVE",
"949 282 OFFCURVE",
"950 283 CURVE",
"951 283 OFFCURVE",
"952 283 OFFCURVE",
"953 283 CURVE SMOOTH",
"961 283 OFFCURVE",
"969 278 OFFCURVE",
"972 265 CURVE",
"973 262 OFFCURVE",
"975 256 OFFCURVE",
"978 245 CURVE SMOOTH",
"984 224 OFFCURVE",
"988 200 OFFCURVE",
"988 169 CURVE SMOOTH",
"988 135 OFFCURVE",
"983 95 OFFCURVE",
"972 49 CURVE SMOOTH",
"969 36 OFFCURVE",
"961 31 OFFCURVE",
"953 31 CURVE SMOOTH",
"952 31 OFFCURVE",
"951 31 OFFCURVE",
"950 32 CURVE",
"949 32 OFFCURVE",
"948 32 OFFCURVE",
"947 32 CURVE",
"927 38 OFFCURVE",
"903 47 OFFCURVE",
"876 59 CURVE SMOOTH",
"821 83 OFFCURVE",
"780 97 OFFCURVE",
"731 97 CURVE SMOOTH",
"727 97 LINE SMOOTH",
"715 97 OFFCURVE",
"701 87 OFFCURVE",
"684 68 CURVE SMOOTH",
"667 49 OFFCURVE",
"651 36 OFFCURVE",
"635 29 CURVE SMOOTH",
"588 10 OFFCURVE",
"540 0 OFFCURVE",
"492 0 CURVE SMOOTH",
"445 0 OFFCURVE",
"399 10 OFFCURVE",
"353 29 CURVE SMOOTH",
"337 36 OFFCURVE",
"321 49 OFFCURVE",
"304 68 CURVE SMOOTH",
"287 87 OFFCURVE",
"273 97 OFFCURVE",
"261 97 CURVE SMOOTH",
"257 97 LINE SMOOTH",
"208 97 OFFCURVE",
"167 83 OFFCURVE",
"112 59 CURVE SMOOTH",
"85 47 OFFCURVE",
"61 38 OFFCURVE",
"41 32 CURVE",
"40 32 OFFCURVE",
"39 32 OFFCURVE",
"38 32 CURVE",
"37 31 OFFCURVE",
"36 31 OFFCURVE",
"35 31 CURVE SMOOTH",
"27 31 OFFCURVE",
"19 36 OFFCURVE",
"16 49 CURVE SMOOTH",
"5 95 OFFCURVE",
"0 135 OFFCURVE",
"0 169 CURVE SMOOTH",
"0 200 OFFCURVE",
"5 224 OFFCURVE",
"11 245 CURVE SMOOTH",
"14 256 OFFCURVE",
"15 262 OFFCURVE",
"16 265 CURVE"
);
},
{
closed = 1;
nodes = (
"359 244 OFFCURVE",
"349 236 OFFCURVE",
"338 224 CURVE SMOOTH",
"317 200 OFFCURVE",
"294 177 OFFCURVE",
"261 177 CURVE SMOOTH",
"257 177 LINE SMOOTH",
"206 177 OFFCURVE",
"170 187 OFFCURVE",
"111 212 CURVE SMOOTH",
"82 225 OFFCURVE",
"62 233 OFFCURVE",
"51 237 CURVE",
"44 202 OFFCURVE",
"40 176 OFFCURVE",
"40 158 CURVE SMOOTH",
"40 139 OFFCURVE",
"44 112 OFFCURVE",
"51 77 CURVE",
"62 81 OFFCURVE",
"82 89 OFFCURVE",
"111 102 CURVE SMOOTH",
"170 127 OFFCURVE",
"206 137 OFFCURVE",
"257 137 CURVE SMOOTH",
"261 137 LINE SMOOTH",
"288 137 OFFCURVE",
"310 122 OFFCURVE",
"322 107 CURVE SMOOTH",
"334 92 OFFCURVE",
"352 73 OFFCURVE",
"368 66 CURVE SMOOTH",
"412 48 OFFCURVE",
"454 39 OFFCURVE",
"493 39 CURVE SMOOTH",
"534 39 OFFCURVE",
"577 48 OFFCURVE",
"620 66 CURVE SMOOTH",
"629 70 OFFCURVE",
"639 78 OFFCURVE",
"650 90 CURVE",
"670 114 OFFCURVE",
"692 137 OFFCURVE",
"727 137 CURVE SMOOTH",
"731 137 LINE SMOOTH",
"782 137 OFFCURVE",
"818 127 OFFCURVE",
"877 102 CURVE SMOOTH",
"906 89 OFFCURVE",
"926 81 OFFCURVE",
"937 77 CURVE",
"944 112 OFFCURVE",
"948 139 OFFCURVE",
"948 158 CURVE SMOOTH",
"948 176 OFFCURVE",
"944 202 OFFCURVE",
"937 237 CURVE",
"926 233 OFFCURVE",
"906 225 OFFCURVE",
"877 212 CURVE SMOOTH",
"818 187 OFFCURVE",
"782 177 OFFCURVE",
"731 177 CURVE SMOOTH",
"727 177 LINE SMOOTH",
"694 177 OFFCURVE",
"671 200 OFFCURVE",
"650 224 CURVE SMOOTH",
"639 236 OFFCURVE",
"629 244 OFFCURVE",
"620 248 CURVE SMOOTH",
"577 266 OFFCURVE",
"535 275 OFFCURVE",
"494 275 CURVE SMOOTH",
"453 275 OFFCURVE",
"411 266 OFFCURVE",
"368 248 CURVE SMOOTH"
);
}
);
width = 988;
}
);
unicode = E3B7;
},
{
glyphname = "sinshin";
lastChange = "2013-06-18 06:30:33 +0330";
layers = (
{
layerId = "3D323242-F336-407C-B164-DE86AA499667";
name = "Regular";
paths = (
{
closed = 1;
nodes = (
"207 321 OFFCURVE",
"208 311 OFFCURVE",
"208 300 CURVE SMOOTH",
"208 289 OFFCURVE",
"207 276 OFFCURVE",
"204 260 CURVE SMOOTH",
"201 244 OFFCURVE",
"199 230 OFFCURVE",
"199 219 CURVE SMOOTH",
"199 218 LINE",
"199 214 LINE SMOOTH",
"199 204 OFFCURVE",
"199 192 OFFCURVE",
"198 177 CURVE SMOOTH",
"197 162 OFFCURVE",
"197 151 OFFCURVE",
"197 144 CURVE SMOOTH",
"197 104 OFFCURVE",
"206 58 OFFCURVE",
"239 51 CURVE",
"241 50 OFFCURVE",
"244 50 OFFCURVE",
"247 50 CURVE SMOOTH",
"258 50 OFFCURVE",
"265 54 OFFCURVE",
"269 63 CURVE SMOOTH",
"284 94 OFFCURVE",
"285 119 OFFCURVE",
"286 159 CURVE SMOOTH",
"287 178 OFFCURVE",
"288 197 OFFCURVE",
"291 214 CURVE SMOOTH",
"292 219 OFFCURVE",
"292 227 OFFCURVE",
"292 237 CURVE SMOOTH",
"292 251 LINE SMOOTH",
"292 266 OFFCURVE",
"295 283 OFFCURVE",
"302 304 CURVE",
"321 324 OFFCURVE",
"335 335 OFFCURVE",
"344 337 CURVE",
"347 337 OFFCURVE",
"354 338 OFFCURVE",
"364 341 CURVE SMOOTH",
"373 344 OFFCURVE",
"379 345 OFFCURVE",
"382 345 CURVE SMOOTH",
"383 345 LINE",
"402 343 OFFCURVE",
"418 339 OFFCURVE",
"430 334 CURVE SMOOTH",
"446 327 OFFCURVE",
"458 317 OFFCURVE",
"462 310 CURVE",
"466 304 LINE",
"478 281 OFFCURVE",
"483 265 OFFCURVE",
"486 237 CURVE",
"487 223 OFFCURVE",
"489 213 OFFCURVE",
"490 206 CURVE SMOOTH",
"491 197 OFFCURVE",
"492 186 OFFCURVE",
"492 171 CURVE SMOOTH",
"492 166 OFFCURVE",
"492 159 OFFCURVE",
"492 150 CURVE",
"491 141 OFFCURVE",
"491 135 OFFCURVE",
"491 132 CURVE SMOOTH",
"491 116 OFFCURVE",
"493 102 OFFCURVE",
"498 89 CURVE",
"501 84 OFFCURVE",
"507 81 OFFCURVE",
"514 80 CURVE",
"515 80 OFFCURVE",
"516 80 OFFCURVE",
"517 80 CURVE",
"518 79 OFFCURVE",
"520 79 OFFCURVE",
"521 79 CURVE SMOOTH",
"526 79 OFFCURVE",
"531 83 OFFCURVE",
"534 91 CURVE",
"539 101 OFFCURVE",
"543 120 OFFCURVE",
"547 147 CURVE",
"550 174 OFFCURVE",
"556 196 OFFCURVE",
"565 212 CURVE SMOOTH",
"573 227 OFFCURVE",
"584 238 OFFCURVE",
"600 247 CURVE",
"609 251 OFFCURVE",
"621 254 OFFCURVE",
"636 255 CURVE",
"639 255 LINE",
"639 255 OFFCURVE",
"639 255 OFFCURVE",
"640 255 CURVE SMOOTH",
"641 255 OFFCURVE",
"641 255 OFFCURVE",
"641 255 CURVE",
"670 255 OFFCURVE",
"685 243 OFFCURVE",
"705 219 CURVE",
"717 202 OFFCURVE",
"723 182 OFFCURVE",
"727 162 CURVE SMOOTH",
"729 152 OFFCURVE",
"731 145 OFFCURVE",
"732 141 CURVE",
"736 130 OFFCURVE",
"739 122 OFFCURVE",
"740 117 CURVE SMOOTH",
"742 105 OFFCURVE",
"743 98 OFFCURVE",
"748 97 CURVE",
"757 91 OFFCURVE",
"770 88 OFFCURVE",
"787 88 CURVE SMOOTH",
"824 88 OFFCURVE",
"855 88 OFFCURVE",
"879 87 CURVE SMOOTH",
"902 86 OFFCURVE",
"917 86 OFFCURVE",
"924 86 CURVE",
"931 85 OFFCURVE",
"937 85 OFFCURVE",
"942 84 CURVE SMOOTH",
"947 83 OFFCURVE",
"953 83 OFFCURVE",
"958 83 CURVE SMOOTH",
"971 83 LINE",
"984 81 OFFCURVE",
"991 76 OFFCURVE",
"992 69 CURVE",
"993 68 LINE",
"993 57 OFFCURVE",
"985 50 OFFCURVE",
"970 49 CURVE SMOOTH",
"917 44 OFFCURVE",
"855 42 OFFCURVE",
"785 42 CURVE SMOOTH",
"772 42 LINE SMOOTH",
"735 42 OFFCURVE",
"706 54 OFFCURVE",
"694 89 CURVE SMOOTH",
"693 92 OFFCURVE",
"693 96 OFFCURVE",
"692 100 CURVE",
"691 107 OFFCURVE",
"689 112 OFFCURVE",
"685 123 CURVE",
"684 128 OFFCURVE",
"681 138 OFFCURVE",
"677 155 CURVE SMOOTH",
"673 172 OFFCURVE",
"669 183 OFFCURVE",
"664 189 CURVE",
"660 198 OFFCURVE",
"650 205 OFFCURVE",
"642 205 CURVE SMOOTH",
"641 205 OFFCURVE",
"641 205 OFFCURVE",
"640 205 CURVE SMOOTH",
"639 205 OFFCURVE",
"639 205 OFFCURVE",
"639 205 CURVE SMOOTH",
"638 205 LINE SMOOTH",
"633 205 OFFCURVE",
"628 204 OFFCURVE",
"622 202 CURVE",
"614 197 OFFCURVE",
"612 195 OFFCURVE",
"609 188 CURVE",
"602 175 OFFCURVE",
"598 157 OFFCURVE",
"596 133 CURVE SMOOTH",
"591 84 OFFCURVE",
"574 30 OFFCURVE",
"521 30 CURVE SMOOTH",
"509 30 LINE",
"453 37 OFFCURVE",
"441 84 OFFCURVE",
"441 132 CURVE SMOOTH",
"441 137 OFFCURVE",
"441 143 OFFCURVE",
"442 152 CURVE",
"442 161 OFFCURVE",
"442 167 OFFCURVE",
"442 171 CURVE SMOOTH",
"442 183 OFFCURVE",
"441 192 OFFCURVE",
"440 198 CURVE",
"433 264 LINE",
"422 282 OFFCURVE",
"417 291 OFFCURVE",
"416 291 CURVE SMOOTH",
"415 291 OFFCURVE",
"414 292 OFFCURVE",
"413 293 CURVE",
"411 294 OFFCURVE",
"408 296 OFFCURVE",
"405 297 CURVE",
"401 298 OFFCURVE",
"395 298 OFFCURVE",
"388 298 CURVE SMOOTH",
"385 298 OFFCURVE",
"380 297 OFFCURVE",
"373 294 CURVE",
"365 291 OFFCURVE",
"360 290 OFFCURVE",
"359 290 CURVE",
"345 276 LINE",
"342 251 LINE",
"342 237 LINE SMOOTH",
"342 224 OFFCURVE",
"341 214 OFFCURVE",
"340 206 CURVE",
"338 194 OFFCURVE",
"337 177 OFFCURVE",
"336 156 CURVE SMOOTH",
"335 113 OFFCURVE",
"330 79 OFFCURVE",
"314 42 CURVE SMOOTH",
"301 14 OFFCURVE",
"279 0 OFFCURVE",
"247 0 CURVE SMOOTH",
"244 0 OFFCURVE",
"237 1 OFFCURVE",
"228 2 CURVE",
"157 18 OFFCURVE",
"147 91 OFFCURVE",
"147 144 CURVE SMOOTH",
"147 151 OFFCURVE",
"147 163 OFFCURVE",
"148 178 CURVE SMOOTH",
"149 193 OFFCURVE",
"149 205 OFFCURVE",
"149 214 CURVE SMOOTH",
"149 218 LINE",
"149 219 LINE SMOOTH",
"149 231 OFFCURVE",
"151 246 OFFCURVE",
"154 263 CURVE SMOOTH",
"157 280 OFFCURVE",
"158 293 OFFCURVE",
"158 300 CURVE SMOOTH",
"158 319 OFFCURVE",
"158 323 OFFCURVE",
"138 327 CURVE",
"109 318 OFFCURVE",
"87 313 OFFCURVE",
"73 313 CURVE SMOOTH",
"71 313 LINE SMOOTH",
"42 313 OFFCURVE",
"20 321 OFFCURVE",
"7 337 CURVE",
"2 342 OFFCURVE",
"0 348 OFFCURVE",
"0 356 CURVE SMOOTH",
"0 385 OFFCURVE",
"36 407 OFFCURVE",
"77 407 CURVE SMOOTH",
"93 407 OFFCURVE",
"105 407 OFFCURVE",
"119 400 CURVE",
"126 397 OFFCURVE",
"134 392 OFFCURVE",
"143 386 CURVE",
"152 379 OFFCURVE",
"159 375 OFFCURVE",
"163 372 CURVE",
"164 372 OFFCURVE",
"169 369 OFFCURVE",
"180 362 CURVE",
"193 355 OFFCURVE",
"201 345 OFFCURVE",
"204 331 CURVE"
);
},
{
closed = 1;
nodes = (
"77 377 LINE SMOOTH",
"60 377 OFFCURVE",
"46 373 OFFCURVE",
"35 364 CURVE",
"32 361 OFFCURVE",
"30 358 OFFCURVE",
"30 356 CURVE",
"37 347 OFFCURVE",
"51 343 OFFCURVE",
"72 343 CURVE SMOOTH",
"73 343 LINE SMOOTH",
"84 343 OFFCURVE",
"100 346 OFFCURVE",
"121 353 CURVE SMOOTH",
"124 354 OFFCURVE",
"126 356 OFFCURVE",
"126 358 CURVE SMOOTH",
"126 359 OFFCURVE",
"125 361 OFFCURVE",
"124 363 CURVE",
"111 371 OFFCURVE",
"101 376 OFFCURVE",
"92 377 CURVE"
);
}
);
width = 993;
}
);
unicode = E199;
},
{
glyphname = "teh";
lastChange = "2013-06-18 06:30:33 +0330";
layers = (
{
layerId = "3D323242-F336-407C-B164-DE86AA499667";
name = "Regular";
paths = (
{
closed = 1;
nodes = (
"413 122 OFFCURVE",
"392 105 OFFCURVE",
"392 84 CURVE SMOOTH",
"392 61 OFFCURVE",
"413 42 OFFCURVE",
"438 42 CURVE SMOOTH",
"461 42 OFFCURVE",
"479 62 OFFCURVE",
"479 86 CURVE SMOOTH",
"479 105 OFFCURVE",
"461 122 OFFCURVE",
"438 122 CURVE SMOOTH"
);
},
{
closed = 1;
nodes = (
"539 120 OFFCURVE",
"521 104 OFFCURVE",
"521 84 CURVE SMOOTH",
"521 60 OFFCURVE",
"539 40 OFFCURVE",
"562 40 CURVE SMOOTH",
"587 40 OFFCURVE",
"608 59 OFFCURVE",
"608 82 CURVE",
"607 98 OFFCURVE",
"607 104 OFFCURVE",
"593 113 CURVE",
"586 117 OFFCURVE",
"575 119 OFFCURVE",
"562 120 CURVE"
);
},
{
closed = 1;
nodes = (
"483 12 OFFCURVE",
"463 2 OFFCURVE",
"438 2 CURVE SMOOTH",
"399 2 OFFCURVE",
"364 27 OFFCURVE",
"355 63 CURVE",
"25 63 LINE SMOOTH",
"12 63 OFFCURVE",
"0 76 OFFCURVE",
"0 89 CURVE SMOOTH",
"0 102 OFFCURVE",
"12 113 OFFCURVE",
"25 113 CURVE SMOOTH",
"358 113 LINE",
"370 144 OFFCURVE",
"403 162 OFFCURVE",
"438 162 CURVE SMOOTH",
"463 162 OFFCURVE",
"484 153 OFFCURVE",
"501 134 CURVE",
"517 151 OFFCURVE",
"537 160 OFFCURVE",
"562 160 CURVE SMOOTH",
"597 160 OFFCURVE",
"630 141 OFFCURVE",
"642 112 CURVE",
"972 112 LINE SMOOTH",
"985 112 OFFCURVE",
"997 100 OFFCURVE",
"997 87 CURVE SMOOTH",
"997 74 OFFCURVE",
"985 62 OFFCURVE",
"972 62 CURVE SMOOTH",
"645 62 LINE",
"636 26 OFFCURVE",
"601 0 OFFCURVE",
"562 0 CURVE SMOOTH",
"537 0 OFFCURVE",
"516 10 OFFCURVE",
"499 31 CURVE"
);
}
);
width = 997;
}
);
unicode = E283;
},
{
glyphname = "uniE191";
lastChange = "2013-06-18 07:13:30 +0330";
layers = (
{
layerId = "3D323242-F336-407C-B164-DE86AA499667";
name = "Regular";
paths = (
{
closed = 1;
nodes = (
"987 22 OFFCURVE",
"988 20 OFFCURVE",
"973 15 CURVE",
"972 15 LINE",
"968 12 OFFCURVE",
"964 11 OFFCURVE",
"960 11 CURVE SMOOTH",
"881 13 OFFCURVE",
"810 14 OFFCURVE",
"747 15 CURVE SMOOTH",
"647 18 OFFCURVE",
"653 17 OFFCURVE",
"606 26 CURVE SMOOTH",
"582 30 OFFCURVE",
"563 32 OFFCURVE",
"550 32 CURVE SMOOTH",
"545 32 OFFCURVE",
"541 32 OFFCURVE",
"539 31 CURVE",
"521 30 OFFCURVE",
"495 25 OFFCURVE",
"462 15 CURVE SMOOTH",
"428 5 OFFCURVE",
"402 0 OFFCURVE",
"383 0 CURVE SMOOTH",
"370 0 OFFCURVE",
"357 1 OFFCURVE",
"344 4 CURVE SMOOTH",
"313 11 OFFCURVE",
"280 30 OFFCURVE",
"247 60 CURVE SMOOTH",
"213 89 OFFCURVE",
"186 108 OFFCURVE",
"165 117 CURVE",
"161 118 OFFCURVE",
"157 119 OFFCURVE",
"154 119 CURVE SMOOTH",
"151 119 OFFCURVE",
"144 117 OFFCURVE",
"131 114 CURVE SMOOTH",
"118 111 OFFCURVE",
"107 109 OFFCURVE",
"99 109 CURVE SMOOTH",
"94 109 LINE",
"87 109 LINE",
"70 109 LINE SMOOTH",
"63 109 OFFCURVE",
"57 110 OFFCURVE",
"52 111 CURVE SMOOTH",
"40 113 OFFCURVE",
"29 119 OFFCURVE",
"18 130 CURVE",
"6 145 OFFCURVE",
"0 161 OFFCURVE",
"0 177 CURVE SMOOTH",
"0 178 LINE SMOOTH",
"0 210 OFFCURVE",
"27 240 OFFCURVE",
"72 252 CURVE",
"57 261 OFFCURVE",
"41 275 OFFCURVE",
"25 295 CURVE",
"19 304 OFFCURVE",
"16 311 OFFCURVE",
"16 318 CURVE SMOOTH",
"16 324 OFFCURVE",
"18 329 OFFCURVE",
"21 333 CURVE",
"32 342 OFFCURVE",
"43 347 OFFCURVE",
"54 347 CURVE SMOOTH",
"66 347 OFFCURVE",
"82 343 OFFCURVE",
"93 319 CURVE SMOOTH",
"104 294 OFFCURVE",
"116 285 OFFCURVE",
"129 285 CURVE SMOOTH",
"134 285 OFFCURVE",
"138 286 OFFCURVE",
"141 289 CURVE",
"148 294 OFFCURVE",
"154 303 OFFCURVE",
"161 316 CURVE",
"167 329 OFFCURVE",
"174 337 OFFCURVE",
"183 340 CURVE",
"187 342 OFFCURVE",
"191 343 OFFCURVE",
"194 343 CURVE SMOOTH",
"205 343 OFFCURVE",
"216 337 OFFCURVE",
"225 325 CURVE",
"228 320 OFFCURVE",
"229 316 OFFCURVE",
"229 312 CURVE SMOOTH",
"229 303 OFFCURVE",
"225 285 OFFCURVE",
"197 261 CURVE SMOOTH",
"184 250 OFFCURVE",
"177 244 OFFCURVE",
"176 243 CURVE",
"181 240 OFFCURVE",
"193 233 OFFCURVE",
"197 230 CURVE",
"213 221 OFFCURVE",
"236 202 OFFCURVE",
"267 175 CURVE SMOOTH",
"297 148 OFFCURVE",
"325 131 OFFCURVE",
"351 125 CURVE",
"358 123 OFFCURVE",
"367 122 OFFCURVE",
"379 122 CURVE SMOOTH",
"394 122 OFFCURVE",
"418 127 OFFCURVE",
"452 138 CURVE SMOOTH",
"485 148 OFFCURVE",
"513 153 OFFCURVE",
"535 153 CURVE SMOOTH",
"543 153 LINE SMOOTH",
"576 152 OFFCURVE",
"602 143 OFFCURVE",
"635 128 CURVE",
"652 121 OFFCURVE",
"665 115 OFFCURVE",
"674 112 CURVE",
"678 111 OFFCURVE",
"689 106 OFFCURVE",
"707 98 CURVE",
"725 89 OFFCURVE",
"739 84 OFFCURVE",
"750 83 CURVE",
"781 79 OFFCURVE",
"815 77 OFFCURVE",
"851 77 CURVE SMOOTH",
"858 77 OFFCURVE",
"869 77 OFFCURVE",
"884 78 CURVE",
"899 78 OFFCURVE",
"910 78 OFFCURVE",
"919 78 CURVE SMOOTH",
"937 78 OFFCURVE",
"951 78 OFFCURVE",
"961 77 CURVE",
"967 77 OFFCURVE",
"972 75 OFFCURVE",
"976 70 CURVE",
"978 69 LINE",
"979 68 OFFCURVE",
"979 68 OFFCURVE",
"980 67 CURVE",
"990 60 OFFCURVE",
"995 52 OFFCURVE",
"995 41 CURVE"
);
},
{
closed = 1;
nodes = (
"723 56 OFFCURVE",
"702 63 OFFCURVE",
"661 74 CURVE",
"650 78 OFFCURVE",
"636 84 OFFCURVE",
"620 91 CURVE SMOOTH",
"588 106 OFFCURVE",
"570 112 OFFCURVE",
"541 113 CURVE SMOOTH",
"535 113 LINE SMOOTH",
"515 113 OFFCURVE",
"489 108 OFFCURVE",
"457 98 CURVE SMOOTH",
"424 87 OFFCURVE",
"398 82 OFFCURVE",
"379 82 CURVE SMOOTH",
"366 82 OFFCURVE",
"353 83 OFFCURVE",
"342 86 CURVE",
"311 93 OFFCURVE",
"279 111 OFFCURVE",
"245 141 CURVE SMOOTH",
"177 201 OFFCURVE",
"146 217 OFFCURVE",
"126 217 CURVE SMOOTH",
"124 217 LINE",
"79 214 OFFCURVE",
"63 212 OFFCURVE",
"46 193 CURVE",
"45 192 OFFCURVE",
"43 190 OFFCURVE",
"42 187 CURVE",
"41 186 OFFCURVE",
"41 186 OFFCURVE",
"41 185 CURVE",
"40 184 OFFCURVE",
"40 181 OFFCURVE",
"40 178 CURVE SMOOTH",
"40 171 OFFCURVE",
"43 163 OFFCURVE",
"49 156 CURVE SMOOTH",
"56 148 OFFCURVE",
"61 149 OFFCURVE",
"70 149 CURVE SMOOTH",
"87 149 LINE",
"96 149 LINE",
"99 149 LINE SMOOTH",
"104 149 OFFCURVE",
"113 151 OFFCURVE",
"125 154 CURVE SMOOTH",
"136 157 OFFCURVE",
"146 159 OFFCURVE",
"154 159 CURVE SMOOTH",
"163 159 OFFCURVE",
"172 157 OFFCURVE",
"181 154 CURVE",
"202 145 OFFCURVE",
"222 133 OFFCURVE",
"241 116 CURVE SMOOTH",
"280 82 OFFCURVE",
"312 52 OFFCURVE",
"353 43 CURVE",
"363 40 OFFCURVE",
"373 39 OFFCURVE",
"383 39 CURVE SMOOTH",
"400 39 OFFCURVE",
"424 44 OFFCURVE",
"455 54 CURVE SMOOTH",
"486 64 OFFCURVE",
"514 70 OFFCURVE",
"537 71 CURVE",
"538 71 OFFCURVE",
"541 71 OFFCURVE",
"544 72 CURVE",
"547 72 OFFCURVE",
"549 72 OFFCURVE",
"550 72 CURVE SMOOTH",
"567 72 OFFCURVE",
"588 70 OFFCURVE",
"612 66 CURVE SMOOTH",
"660 57 OFFCURVE",
"685 55 OFFCURVE",
"725 55 CURVE"
);
}
);
width = 995;
}
);
unicode = E191;
},
{
glyphname = "uniE298";
lastChange = "2013-06-18 07:14:41 +0330";
layers = (
{
layerId = "3D323242-F336-407C-B164-DE86AA499667";
name = "Regular";
paths = (
{
closed = 1;
nodes = (
"420 92 OFFCURVE",
"327 0 OFFCURVE",
"214 0 CURVE SMOOTH",
"97 0 OFFCURVE",
"0 97 OFFCURVE",
"0 214 CURVE SMOOTH",
"0 323 OFFCURVE",
"98 405 OFFCURVE",
"211 405 CURVE SMOOTH",
"256 405 OFFCURVE",
"294 394 OFFCURVE",
"325 373 CURVE",
"326 375 OFFCURVE",
"329 377 OFFCURVE",
"334 379 CURVE SMOOTH",
"339 381 OFFCURVE",
"343 382 OFFCURVE",
"344 383 CURVE",
"491 506 LINE",
"498 511 OFFCURVE",
"506 514 OFFCURVE",
"513 514 CURVE SMOOTH",
"536 514 OFFCURVE",
"548 498 OFFCURVE",
"548 479 CURVE SMOOTH",
"548 468 OFFCURVE",
"544 459 OFFCURVE",
"536 452 CURVE SMOOTH",
"389 329 LINE",
"385 326 OFFCURVE",
"382 325 OFFCURVE",
"379 324 CURVE",
"406 288 OFFCURVE",
"420 248 OFFCURVE",
"420 205 CURVE SMOOTH"
);
},
{
closed = 1;
nodes = (
"298 350 OFFCURVE",
"258 365 OFFCURVE",
"211 365 CURVE SMOOTH",
"118 365 OFFCURVE",
"40 299 OFFCURVE",
"40 214 CURVE SMOOTH",
"40 118 OFFCURVE",
"118 40 OFFCURVE",
"214 40 CURVE SMOOTH",
"305 40 OFFCURVE",
"380 114 OFFCURVE",
"380 205 CURVE SMOOTH",
"380 250 OFFCURVE",
"364 288 OFFCURVE",
"331 319 CURVE SMOOTH"
);
}
